<?xml version="1.0" encoding="iso-8859-1"?>
<!-- Generator: Adobe Illustrator 19.0.0, SVG Export Plug-In . SVG Version: 6.00 Build 0)  -->
<svg version="1.1" id="Layer_1" xmlns="http://www.w3.org/2000/svg" xmlns:xlink="http://www.w3.org/1999/xlink" x="0px" y="0px"
	 viewBox="0 0 512.001 512.001" style="enable-background:new 0 0 512.001 512.001;" xml:space="preserve">
<g>
	<g>
		<path d="M480.467,51.284c-20.334-20.334-47.371-31.534-76.129-31.534c-28.758,0-55.795,11.199-76.13,31.534l-233.22,233.22
			c-15.06,15.059-23.353,35.083-23.353,56.38s8.293,41.32,23.353,56.38c31.088,31.088,81.673,31.088,112.76,0l204.485-204.484
			l-23.614-23.614L184.133,373.651c-18.067,18.067-47.465,18.066-65.533,0c-8.752-8.752-13.572-20.389-13.572-32.766
			c0-12.378,4.82-24.015,13.572-32.767L351.82,74.899c14.028-14.027,32.679-21.753,52.517-21.753s38.487,7.725,52.515,21.753
			c14.028,14.027,21.753,32.677,21.753,52.515s-7.724,38.487-21.753,52.515L207.795,428.986c-39.847,39.846-104.684,39.845-144.53,0
			c-19.303-19.303-29.933-44.967-29.933-72.264c0-27.299,10.631-52.963,29.933-72.266l220.32-220.32l-23.614-23.614l-220.32,220.32
			c-52.868,52.867-52.868,138.889,0,191.758c26.434,26.435,61.157,39.652,95.879,39.652s69.446-13.217,95.879-39.652
			l249.057-249.058c20.335-20.334,31.534-47.371,31.534-76.129S500.802,71.618,480.467,51.284z"/>
	</g>
</g>
<g>
</g>
<g>
</g>
<g>
</g>
<g>
</g>
<g>
</g>
<g>
</g>
<g>
</g>
<g>
</g>
<g>
</g>
<g>
</g>
<g>
</g>
<g>
</g>
<g>
</g>
<g>
</g>
<g>
</g>
</svg>
