<svg id="svg" version="1.1" xmlns="http://www.w3.org/2000/svg" xmlns:xlink="http://www.w3.org/1999/xlink" width="400" height="431.57894736842104" viewBox="0, 0, 400,431.57894736842104"><g id="svgg"><path id="path0" d="M147.137 76.961 C 142.465 78.020,138.965 80.534,137.764 83.696 C 137.492 84.413,136.945 85.810,136.548 86.800 C 135.870 88.495,135.821 91.468,135.721 137.600 C 135.611 187.931,135.500 191.597,134.063 192.366 C 131.879 193.535,126.800 192.993,126.800 191.591 C 126.800 191.387,126.035 190.852,125.100 190.403 C 124.165 189.954,123.130 189.437,122.800 189.255 C 122.470 189.073,121.784 188.708,121.276 188.444 C 120.768 188.180,119.221 187.353,117.840 186.607 C 111.357 183.106,95.444 183.121,93.480 186.629 C 93.304 186.943,92.944 187.200,92.680 187.200 C 92.137 187.200,90.000 189.734,90.000 190.379 C 90.000 190.610,89.842 190.800,89.649 190.800 C 89.272 190.800,88.612 192.325,88.232 194.073 C 87.779 196.155,87.953 214.347,88.443 216.104 C 89.238 218.954,90.728 221.833,93.501 225.878 C 94.435 227.241,95.200 228.460,95.200 228.587 C 95.200 228.713,96.100 229.962,97.200 231.362 C 98.300 232.762,99.200 234.014,99.200 234.146 C 99.200 234.277,99.875 235.401,100.700 236.643 C 101.525 237.884,102.380 239.197,102.600 239.559 C 102.820 239.921,103.405 240.781,103.900 241.470 C 104.395 242.159,104.800 242.824,104.800 242.948 C 104.800 243.415,109.180 249.302,109.700 249.533 C 109.865 249.607,110.000 249.907,110.000 250.201 C 110.000 250.889,111.308 253.194,111.700 253.197 C 111.865 253.199,112.000 253.532,112.000 253.938 C 112.000 254.344,112.368 255.009,112.819 255.417 C 113.269 255.824,113.919 256.752,114.264 257.479 C 114.609 258.206,115.051 258.800,115.246 258.800 C 115.441 258.800,115.600 259.098,115.600 259.462 C 115.600 259.826,116.050 260.714,116.600 261.436 C 117.150 262.157,117.600 262.911,117.600 263.111 C 117.600 263.312,117.947 263.790,118.370 264.173 C 119.157 264.885,121.200 268.736,121.200 269.507 C 121.200 269.741,121.353 269.993,121.540 270.067 C 122.017 270.253,123.546 272.944,126.613 278.994 C 128.062 281.851,129.470 284.461,129.744 284.794 C 130.017 285.127,131.003 286.930,131.936 288.800 C 132.868 290.670,134.078 292.920,134.624 293.800 C 135.170 294.680,135.722 295.670,135.850 296.000 C 136.237 296.996,139.144 302.858,140.359 305.092 C 140.985 306.243,141.603 307.715,141.733 308.363 C 141.994 309.668,142.817 311.629,145.359 317.000 C 146.296 318.980,147.583 321.770,148.218 323.200 C 148.853 324.630,149.660 326.250,150.010 326.800 C 150.702 327.889,152.587 332.775,152.953 334.432 C 153.214 335.613,156.393 339.970,157.007 339.988 C 157.231 339.995,158.081 340.453,158.895 341.006 L 160.376 342.012 209.088 341.906 L 257.800 341.800 259.701 340.820 C 262.113 339.576,263.486 337.030,264.780 331.400 C 265.286 329.200,266.101 326.140,266.592 324.600 C 268.056 320.002,269.524 315.188,270.433 312.000 C 270.904 310.350,271.710 307.650,272.225 306.000 C 274.011 300.277,274.812 297.396,274.806 296.715 C 274.799 295.914,275.983 292.800,277.587 289.400 C 278.982 286.444,280.400 282.755,280.400 282.084 C 280.400 281.809,280.850 280.871,281.400 280.000 C 281.950 279.129,282.400 278.266,282.400 278.083 C 282.400 277.900,282.737 277.041,283.149 276.175 C 283.560 275.309,284.378 272.800,284.965 270.600 C 285.553 268.400,286.461 265.700,286.984 264.600 C 288.498 261.413,289.704 258.313,290.017 256.800 C 290.336 255.261,291.190 252.780,292.768 248.800 L 293.800 246.200 293.800 219.600 L 293.800 193.000 292.731 190.800 C 291.737 188.755,290.850 186.779,290.108 184.956 C 289.599 183.707,286.713 179.600,286.343 179.600 C 286.155 179.600,286.000 179.358,286.000 179.062 C 286.000 178.766,285.640 178.198,285.200 177.800 C 284.760 177.402,284.400 176.873,284.400 176.624 C 284.400 176.156,277.062 169.124,276.275 168.838 C 276.030 168.749,274.653 167.846,273.215 166.830 C 270.129 164.651,268.071 163.612,264.000 162.177 C 262.350 161.595,260.802 161.002,260.560 160.860 C 258.901 159.881,256.578 158.224,256.467 157.940 C 256.393 157.753,256.170 157.600,255.970 157.600 C 255.769 157.600,254.331 156.340,252.772 154.800 C 251.214 153.260,249.725 152.000,249.463 152.000 C 249.202 152.000,248.291 151.626,247.438 151.169 C 244.054 149.355,240.292 148.721,231.623 148.502 L 223.446 148.296 221.016 147.048 C 219.571 146.306,217.616 144.786,216.195 143.300 C 214.881 141.925,213.607 140.800,213.365 140.800 C 213.122 140.800,212.598 140.440,212.200 140.000 C 211.802 139.560,211.312 139.200,211.111 139.200 C 210.911 139.200,210.157 138.750,209.436 138.200 C 208.714 137.650,207.691 137.199,207.162 137.198 C 206.633 137.197,205.570 137.023,204.800 136.811 C 204.030 136.600,200.430 136.261,196.800 136.058 C 189.106 135.628,187.142 135.066,186.359 133.068 C 186.001 132.153,185.781 126.005,185.571 111.000 C 185.255 88.494,184.628 82.000,182.770 82.000 C 182.618 82.000,182.396 81.627,182.276 81.170 C 182.157 80.714,181.686 80.243,181.230 80.124 C 180.773 80.004,180.400 79.759,180.400 79.578 C 180.400 79.398,179.189 78.654,177.710 77.925 L 175.019 76.600 162.210 76.524 C 152.992 76.470,148.765 76.592,147.137 76.961 M167.625 90.855 C 168.860 91.439,169.765 92.248,170.425 93.359 L 171.400 95.000 171.646 141.600 C 171.885 186.994,171.966 189.769,173.146 192.863 C 173.854 194.717,176.267 196.799,177.713 196.804 C 178.421 196.807,179.653 196.917,180.450 197.049 C 181.814 197.274,181.972 197.184,183.098 195.544 C 185.118 192.600,185.291 190.931,185.576 171.600 C 185.720 161.810,185.983 153.485,186.162 153.100 C 187.810 149.538,199.675 148.903,204.615 152.112 C 209.376 155.206,209.600 156.188,209.600 173.982 C 209.600 196.177,210.091 197.559,217.492 196.203 C 220.837 195.591,222.000 191.277,222.000 179.484 C 222.000 168.212,222.443 165.606,224.600 164.199 C 229.013 161.319,238.151 161.620,241.625 164.759 C 244.364 167.233,244.502 168.204,244.768 186.800 C 244.986 202.053,245.047 203.079,245.800 204.350 C 246.240 205.092,246.765 205.992,246.967 206.350 C 247.168 206.707,247.937 207.516,248.675 208.147 L 250.016 209.293 252.652 208.631 C 255.185 207.995,256.400 207.294,256.400 206.469 C 256.400 206.256,256.848 205.298,257.395 204.341 C 258.384 202.610,258.390 202.539,258.395 192.257 C 258.400 182.392,258.442 181.823,259.298 179.957 L 260.195 178.000 262.884 178.000 C 265.637 178.000,268.806 179.396,269.707 181.006 C 269.890 181.333,270.256 181.610,270.520 181.623 C 271.063 181.648,274.800 186.106,274.800 186.728 C 274.800 186.951,274.946 187.193,275.124 187.267 C 275.771 187.533,278.800 191.688,278.800 192.309 C 278.800 192.660,279.205 194.039,279.700 195.373 C 280.594 197.785,280.600 197.941,280.600 220.600 C 280.600 243.271,280.595 243.414,279.700 245.786 C 279.205 247.099,278.800 248.406,278.800 248.691 C 278.800 248.977,278.031 250.783,277.091 252.705 C 276.151 254.627,274.878 257.820,274.262 259.800 C 272.471 265.564,271.420 268.587,270.334 271.096 C 269.930 272.028,269.600 273.032,269.600 273.325 C 269.600 274.028,267.074 281.174,266.305 282.649 C 264.764 285.602,264.000 287.322,264.000 287.840 C 264.000 288.150,263.550 289.337,263.000 290.477 C 262.450 291.617,262.000 292.793,262.000 293.091 C 262.000 293.388,261.612 294.390,261.138 295.316 C 260.664 296.242,260.143 297.540,259.980 298.200 C 259.817 298.860,259.409 300.210,259.072 301.200 C 258.477 302.951,256.910 308.468,256.034 311.900 C 254.959 316.110,254.654 317.158,253.792 319.600 C 253.288 321.030,252.768 322.682,252.637 323.272 C 252.506 323.862,252.157 324.585,251.863 324.880 C 251.568 325.175,251.112 325.818,250.849 326.308 C 250.587 326.799,250.185 327.200,249.957 327.200 C 249.729 327.200,249.278 327.465,248.953 327.789 C 247.585 329.158,245.601 329.221,207.121 329.110 L 169.000 329.000 167.323 328.104 C 165.214 326.976,162.000 322.590,162.000 320.839 C 162.000 320.623,161.595 319.760,161.100 318.923 C 160.178 317.362,158.969 314.333,158.418 312.200 C 158.247 311.540,157.588 309.982,156.954 308.739 C 156.319 307.495,155.115 305.065,154.277 303.339 C 153.439 301.612,152.136 299.030,151.382 297.600 C 150.627 296.170,149.367 293.650,148.581 292.000 C 147.796 290.350,146.621 288.010,145.971 286.800 C 144.819 284.654,141.948 278.799,141.461 277.600 C 141.327 277.270,140.769 276.280,140.221 275.400 C 139.673 274.520,138.447 272.270,137.498 270.400 C 136.548 268.530,135.311 266.280,134.749 265.400 C 134.186 264.520,133.128 262.720,132.397 261.400 C 131.666 260.080,130.743 258.460,130.346 257.800 C 129.573 256.516,128.951 255.383,126.644 251.052 C 125.839 249.541,124.590 247.614,123.868 246.771 C 123.146 245.928,121.846 243.939,120.978 242.351 C 120.110 240.764,119.208 239.270,118.974 239.032 C 118.469 238.519,115.600 234.068,115.600 233.797 C 115.600 233.604,115.005 232.856,113.106 230.663 C 112.505 229.968,112.010 229.267,112.006 229.105 C 112.003 228.942,110.875 227.255,109.500 225.355 C 106.488 221.194,105.880 220.276,104.758 218.200 C 104.282 217.320,103.761 216.510,103.600 216.400 C 100.292 214.138,100.088 200.223,103.360 200.022 C 103.558 200.010,104.638 199.554,105.760 199.009 L 107.800 198.018 111.505 199.185 C 113.543 199.827,115.491 200.633,115.834 200.976 C 116.177 201.319,116.678 201.600,116.949 201.600 C 117.219 201.600,118.557 202.500,119.922 203.600 C 121.287 204.700,122.491 205.600,122.597 205.600 C 122.955 205.600,124.417 206.967,131.053 213.504 C 138.816 221.152,138.991 221.264,142.573 220.930 C 144.957 220.707,145.321 220.554,146.113 219.442 C 148.425 216.194,148.352 218.277,148.377 155.400 C 148.403 90.766,148.384 91.200,151.203 91.200 C 151.591 91.200,152.514 90.937,153.254 90.616 C 155.580 89.606,165.325 89.769,167.625 90.855 " stroke="none" fill="#d6dad1" fill-rule="evenodd"></path><path id="path1" d="M0.000 215.600 L 0.000 431.200 200.000 431.200 L 400.000 431.200 400.000 215.600 L 400.000 0.000 200.000 0.000 L 0.000 0.000 0.000 215.600 M177.710 77.925 C 179.189 78.654,180.400 79.398,180.400 79.578 C 180.400 79.759,180.773 80.004,181.230 80.124 C 181.686 80.243,182.157 80.714,182.276 81.170 C 182.396 81.627,182.618 82.000,182.770 82.000 C 184.628 82.000,185.255 88.494,185.571 111.000 C 185.781 126.005,186.001 132.153,186.359 133.068 C 187.142 135.066,189.106 135.628,196.800 136.058 C 200.430 136.261,204.030 136.600,204.800 136.811 C 205.570 137.023,206.633 137.197,207.162 137.198 C 207.691 137.199,208.714 137.650,209.436 138.200 C 210.157 138.750,210.911 139.200,211.111 139.200 C 211.312 139.200,211.802 139.560,212.200 140.000 C 212.598 140.440,213.122 140.800,213.365 140.800 C 213.607 140.800,214.881 141.925,216.195 143.300 C 217.616 144.786,219.571 146.306,221.016 147.048 L 223.446 148.296 231.623 148.502 C 240.292 148.721,244.054 149.355,247.438 151.169 C 248.291 151.626,249.202 152.000,249.463 152.000 C 249.725 152.000,251.214 153.260,252.772 154.800 C 254.331 156.340,255.769 157.600,255.970 157.600 C 256.170 157.600,256.393 157.753,256.467 157.940 C 256.578 158.224,258.901 159.881,260.560 160.860 C 260.802 161.002,262.350 161.595,264.000 162.177 C 268.071 163.612,270.129 164.651,273.215 166.830 C 274.653 167.846,276.030 168.749,276.275 168.838 C 277.062 169.124,284.400 176.156,284.400 176.624 C 284.400 176.873,284.760 177.402,285.200 177.800 C 285.640 178.198,286.000 178.766,286.000 179.062 C 286.000 179.358,286.155 179.600,286.343 179.600 C 286.713 179.600,289.599 183.707,290.108 184.956 C 290.850 186.779,291.737 188.755,292.731 190.800 L 293.800 193.000 293.800 219.600 L 293.800 246.200 292.768 248.800 C 291.190 252.780,290.336 255.261,290.017 256.800 C 289.704 258.313,288.498 261.413,286.984 264.600 C 286.461 265.700,285.553 268.400,284.965 270.600 C 284.378 272.800,283.560 275.309,283.149 276.175 C 282.737 277.041,282.400 277.900,282.400 278.083 C 282.400 278.266,281.950 279.129,281.400 280.000 C 280.850 280.871,280.400 281.809,280.400 282.084 C 280.400 282.755,278.982 286.444,277.587 289.400 C 275.983 292.800,274.799 295.914,274.806 296.715 C 274.812 297.396,274.011 300.277,272.225 306.000 C 271.710 307.650,270.904 310.350,270.433 312.000 C 269.524 315.188,268.056 320.002,266.592 324.600 C 266.101 326.140,265.286 329.200,264.780 331.400 C 263.486 337.030,262.113 339.576,259.701 340.820 L 257.800 341.800 209.088 341.906 L 160.376 342.012 158.895 341.006 C 158.081 340.453,157.231 339.995,157.007 339.988 C 156.393 339.970,153.214 335.613,152.953 334.432 C 152.587 332.775,150.702 327.889,150.010 326.800 C 149.660 326.250,148.853 324.630,148.218 323.200 C 147.583 321.770,146.296 318.980,145.359 317.000 C 142.817 311.629,141.994 309.668,141.733 308.363 C 141.603 307.715,140.985 306.243,140.359 305.092 C 139.144 302.858,136.237 296.996,135.850 296.000 C 135.722 295.670,135.170 294.680,134.624 293.800 C 134.078 292.920,132.868 290.670,131.936 288.800 C 131.003 286.930,130.017 285.127,129.744 284.794 C 129.470 284.461,128.062 281.851,126.613 278.994 C 123.546 272.944,122.017 270.253,121.540 270.067 C 121.353 269.993,121.200 269.741,121.200 269.507 C 121.200 268.736,119.157 264.885,118.370 264.173 C 117.947 263.790,117.600 263.312,117.600 263.111 C 117.600 262.911,117.150 262.157,116.600 261.436 C 116.050 260.714,115.600 259.826,115.600 259.462 C 115.600 259.098,115.441 258.800,115.246 258.800 C 115.051 258.800,114.609 258.206,114.264 257.479 C 113.919 256.752,113.269 255.824,112.819 255.417 C 112.368 255.009,112.000 254.344,112.000 253.938 C 112.000 253.532,111.865 253.199,111.700 253.197 C 111.308 253.194,110.000 250.889,110.000 250.201 C 110.000 249.907,109.865 249.607,109.700 249.533 C 109.180 249.302,104.800 243.415,104.800 242.948 C 104.800 242.824,104.395 242.159,103.900 241.470 C 103.405 240.781,102.820 239.921,102.600 239.559 C 102.380 239.197,101.525 237.884,100.700 236.643 C 99.875 235.401,99.200 234.277,99.200 234.146 C 99.200 234.014,98.300 232.762,97.200 231.362 C 96.100 229.962,95.200 228.713,95.200 228.587 C 95.200 228.460,94.435 227.241,93.501 225.878 C 90.728 221.833,89.238 218.954,88.443 216.104 C 87.953 214.347,87.779 196.155,88.232 194.073 C 88.612 192.325,89.272 190.800,89.649 190.800 C 89.842 190.800,90.000 190.610,90.000 190.379 C 90.000 189.734,92.137 187.200,92.680 187.200 C 92.944 187.200,93.304 186.943,93.480 186.629 C 95.444 183.121,111.357 183.106,117.840 186.607 C 119.221 187.353,120.768 188.180,121.276 188.444 C 121.784 188.708,122.470 189.073,122.800 189.255 C 123.130 189.437,124.165 189.954,125.100 190.403 C 126.035 190.852,126.800 191.387,126.800 191.591 C 126.800 192.993,131.879 193.535,134.063 192.366 C 135.500 191.597,135.611 187.931,135.721 137.600 C 135.821 91.468,135.870 88.495,136.548 86.800 C 136.945 85.810,137.492 84.413,137.764 83.696 C 140.036 77.713,144.447 76.419,162.210 76.524 L 175.019 76.600 177.710 77.925 M153.254 90.616 C 152.514 90.937,151.591 91.200,151.203 91.200 C 148.384 91.200,148.403 90.766,148.377 155.400 C 148.352 218.277,148.425 216.194,146.113 219.442 C 145.321 220.554,144.957 220.707,142.573 220.930 C 138.991 221.264,138.816 221.152,131.053 213.504 C 124.417 206.967,122.955 205.600,122.597 205.600 C 122.491 205.600,121.287 204.700,119.922 203.600 C 118.557 202.500,117.219 201.600,116.949 201.600 C 116.678 201.600,116.177 201.319,115.834 200.976 C 115.491 200.633,113.543 199.827,111.505 199.185 L 107.800 198.018 105.760 199.009 C 104.638 199.554,103.558 200.010,103.360 200.022 C 100.088 200.223,100.292 214.138,103.600 216.400 C 103.761 216.510,104.282 217.320,104.758 218.200 C 105.880 220.276,106.488 221.194,109.500 225.355 C 110.875 227.255,112.003 228.942,112.006 229.105 C 112.010 229.267,112.505 229.968,113.106 230.663 C 115.005 232.856,115.600 233.604,115.600 233.797 C 115.600 234.068,118.469 238.519,118.974 239.032 C 119.208 239.270,120.110 240.764,120.978 242.351 C 121.846 243.939,123.146 245.928,123.868 246.771 C 124.590 247.614,125.839 249.541,126.644 251.052 C 128.951 255.383,129.573 256.516,130.346 257.800 C 130.743 258.460,131.666 260.080,132.397 261.400 C 133.128 262.720,134.186 264.520,134.749 265.400 C 135.311 266.280,136.548 268.530,137.498 270.400 C 138.447 272.270,139.673 274.520,140.221 275.400 C 140.769 276.280,141.327 277.270,141.461 277.600 C 141.948 278.799,144.819 284.654,145.971 286.800 C 146.621 288.010,147.796 290.350,148.581 292.000 C 149.367 293.650,150.627 296.170,151.382 297.600 C 152.136 299.030,153.439 301.612,154.277 303.339 C 155.115 305.065,156.319 307.495,156.954 308.739 C 157.588 309.982,158.247 311.540,158.418 312.200 C 158.969 314.333,160.178 317.362,161.100 318.923 C 161.595 319.760,162.000 320.623,162.000 320.839 C 162.000 322.590,165.214 326.976,167.323 328.104 L 169.000 329.000 207.121 329.110 C 245.601 329.221,247.585 329.158,248.953 327.789 C 249.278 327.465,249.729 327.200,249.957 327.200 C 250.185 327.200,250.587 326.799,250.849 326.308 C 251.112 325.818,251.568 325.175,251.863 324.880 C 252.157 324.585,252.506 323.862,252.637 323.272 C 252.768 322.682,253.288 321.030,253.792 319.600 C 254.654 317.158,254.959 316.110,256.034 311.900 C 256.910 308.468,258.477 302.951,259.072 301.200 C 259.409 300.210,259.817 298.860,259.980 298.200 C 260.143 297.540,260.664 296.242,261.138 295.316 C 261.612 294.390,262.000 293.388,262.000 293.091 C 262.000 292.793,262.450 291.617,263.000 290.477 C 263.550 289.337,264.000 288.150,264.000 287.840 C 264.000 287.322,264.764 285.602,266.305 282.649 C 267.074 281.174,269.600 274.028,269.600 273.325 C 269.600 273.032,269.930 272.028,270.334 271.096 C 271.420 268.587,272.471 265.564,274.262 259.800 C 274.878 257.820,276.151 254.627,277.091 252.705 C 278.031 250.783,278.800 248.977,278.800 248.691 C 278.800 248.406,279.205 247.099,279.700 245.786 C 280.595 243.414,280.600 243.271,280.600 220.600 C 280.600 197.941,280.594 197.785,279.700 195.373 C 279.205 194.039,278.800 192.660,278.800 192.309 C 278.800 191.688,275.771 187.533,275.124 187.267 C 274.946 187.193,274.800 186.951,274.800 186.728 C 274.800 186.106,271.063 181.648,270.520 181.623 C 270.256 181.610,269.890 181.333,269.707 181.006 C 268.806 179.396,265.637 178.000,262.884 178.000 L 260.195 178.000 259.298 179.957 C 258.442 181.823,258.400 182.392,258.395 192.257 C 258.390 202.539,258.384 202.610,257.395 204.341 C 256.848 205.298,256.400 206.256,256.400 206.469 C 256.400 207.294,255.185 207.995,252.652 208.631 L 250.016 209.293 248.675 208.147 C 247.937 207.516,247.168 206.707,246.967 206.350 C 246.765 205.992,246.240 205.092,245.800 204.350 C 245.047 203.079,244.986 202.053,244.768 186.800 C 244.502 168.204,244.364 167.233,241.625 164.759 C 238.151 161.620,229.013 161.319,224.600 164.199 C 222.443 165.606,222.000 168.212,222.000 179.484 C 222.000 191.277,220.837 195.591,217.492 196.203 C 210.091 197.559,209.600 196.177,209.600 173.982 C 209.600 156.188,209.376 155.206,204.615 152.112 C 199.675 148.903,187.810 149.538,186.162 153.100 C 185.983 153.485,185.720 161.810,185.576 171.600 C 185.291 190.931,185.118 192.600,183.098 195.544 C 181.972 197.184,181.814 197.274,180.450 197.049 C 179.653 196.917,178.421 196.807,177.713 196.804 C 176.267 196.799,173.854 194.717,173.146 192.863 C 171.966 189.769,171.885 186.994,171.646 141.600 L 171.400 95.000 170.425 93.359 C 168.540 90.186,158.090 88.516,153.254 90.616 " stroke="none" fill="#3c546c" fill-rule="evenodd"></path></g></svg>