<svg id="svg" version="1.1" xmlns="http://www.w3.org/2000/svg" xmlns:xlink="http://www.w3.org/1999/xlink" width="400" height="76.63551401869158" viewBox="0, 0, 400,76.63551401869158"><g id="svgg"><path id="path0" d="M2.333 0.241 C 2.333 0.415,2.088 0.497,1.458 0.533 L 0.583 0.583 0.533 1.458 C 0.497 2.088,0.415 2.333,0.241 2.333 C 0.031 2.333,0.000 7.011,0.000 38.250 C 0.000 70.065,0.029 74.167,0.250 74.167 C 0.442 74.167,0.500 74.380,0.500 75.083 L 0.500 76.000 1.417 76.000 C 2.120 76.000,2.333 76.058,2.333 76.250 C 2.333 76.472,10.287 76.500,72.917 76.500 L 143.500 76.500 143.500 38.250 L 143.500 0.000 72.917 0.000 C 11.419 0.000,2.333 0.031,2.333 0.241 M70.276 13.149 C 72.140 13.510,72.500 14.552,72.500 19.591 L 72.500 22.970 73.013 23.402 C 73.443 23.764,73.692 23.833,74.554 23.834 C 76.056 23.836,76.653 24.061,77.813 25.066 L 78.852 25.965 80.801 26.031 C 82.974 26.103,83.263 26.204,84.630 27.368 C 85.092 27.761,85.935 28.266,86.503 28.490 C 87.602 28.924,88.343 29.431,89.417 30.487 C 90.389 31.443,90.547 31.646,91.178 32.750 L 91.750 33.750 91.801 38.476 C 91.832 41.301,91.784 43.481,91.683 43.893 C 91.432 44.918,90.535 47.507,90.355 47.726 C 90.270 47.831,90.115 48.254,90.012 48.667 C 89.909 49.079,89.645 49.829,89.426 50.333 C 88.620 52.184,88.160 53.622,86.919 58.167 C 86.477 59.785,86.253 60.334,85.916 60.625 L 85.481 61.000 76.469 61.000 C 66.269 61.000,66.583 61.040,66.158 59.701 C 66.050 59.361,65.602 58.333,65.162 57.417 C 64.722 56.500,64.309 55.568,64.243 55.344 C 64.178 55.121,63.947 54.604,63.729 54.195 C 63.511 53.785,63.333 53.354,63.333 53.237 C 63.333 53.120,63.229 52.919,63.101 52.791 C 62.902 52.592,61.886 50.747,60.597 48.243 C 60.406 47.873,60.081 47.336,59.875 47.051 C 59.669 46.765,59.500 46.484,59.500 46.426 C 59.500 46.368,59.359 46.117,59.187 45.868 C 58.557 44.957,57.237 42.952,56.787 42.219 C 56.532 41.805,56.213 41.356,56.078 41.221 C 55.944 41.086,55.833 40.881,55.833 40.764 C 55.833 40.647,55.675 40.409,55.482 40.234 C 54.103 38.986,53.857 34.655,55.083 33.197 C 56.028 32.075,58.958 32.015,61.010 33.077 C 62.966 34.089,62.833 34.691,62.833 24.784 C 62.833 13.007,62.812 13.059,67.750 13.026 C 68.758 13.020,69.895 13.075,70.276 13.149 M66.401 16.684 C 66.097 17.019,66.080 17.512,66.000 27.839 C 65.904 40.222,65.994 39.531,64.476 39.633 C 63.749 39.681,63.708 39.655,62.286 38.261 C 58.064 34.124,55.881 35.141,59.083 39.753 C 59.450 40.281,60.125 41.290,60.583 41.996 C 61.042 42.701,61.631 43.603,61.894 43.999 C 63.298 46.119,68.219 55.886,68.440 56.992 C 68.631 57.944,69.065 58.000,76.295 57.999 C 83.946 57.999,83.634 58.067,84.002 56.310 C 84.123 55.727,84.398 54.745,84.612 54.128 C 84.825 53.511,85.000 52.911,85.001 52.795 C 85.002 52.678,85.121 52.358,85.266 52.083 C 85.412 51.808,85.677 51.208,85.856 50.750 C 86.035 50.292,86.283 49.692,86.407 49.417 C 86.530 49.142,86.686 48.654,86.752 48.333 C 86.818 48.012,87.008 47.466,87.175 47.118 C 87.341 46.770,87.528 46.245,87.591 45.951 C 87.653 45.657,87.926 44.955,88.196 44.390 L 88.687 43.364 88.635 38.883 L 88.583 34.403 88.167 33.856 C 86.225 31.308,85.507 31.487,85.502 34.517 C 85.499 36.959,85.202 37.506,83.886 37.495 C 82.460 37.483,82.268 36.978,82.167 32.966 C 82.072 29.254,82.093 29.311,80.798 29.209 C 79.354 29.096,79.273 29.227,79.159 31.860 C 79.050 34.371,78.813 35.092,78.039 35.262 C 77.788 35.316,77.498 35.387,77.394 35.418 C 76.481 35.692,76.145 34.581,76.017 30.858 C 75.890 27.179,75.926 27.265,74.421 27.077 C 73.777 26.996,73.412 27.037,73.035 27.232 L 72.524 27.496 72.470 30.986 C 72.410 34.919,72.285 35.360,71.200 35.468 C 69.369 35.651,69.335 35.469,69.334 25.700 C 69.333 15.800,69.422 16.333,67.772 16.333 C 66.913 16.333,66.660 16.398,66.401 16.684 M193.833 25.423 C 187.623 26.525,184.017 32.122,184.440 40.000 C 184.534 41.740,185.488 45.500,185.836 45.500 C 185.912 45.500,186.056 45.744,186.156 46.042 C 186.256 46.340,186.562 46.837,186.836 47.148 C 187.109 47.458,187.333 47.801,187.333 47.911 C 187.333 48.021,187.521 48.211,187.750 48.333 C 187.979 48.456,188.167 48.612,188.167 48.679 C 188.167 48.905,189.813 49.988,191.039 50.569 C 194.278 52.105,200.311 52.160,203.403 50.683 C 203.961 50.416,204.576 50.152,204.770 50.095 C 204.964 50.038,205.257 49.843,205.421 49.662 C 205.584 49.481,205.802 49.333,205.904 49.333 C 206.182 49.333,207.949 47.348,208.352 46.583 C 208.546 46.217,208.813 45.711,208.946 45.460 C 209.640 44.156,209.083 43.852,206.000 43.853 C 203.218 43.853,202.788 43.969,201.868 44.967 C 198.612 48.496,191.833 46.130,191.833 41.465 C 191.833 39.832,191.825 39.833,201.001 39.833 L 208.987 39.833 209.421 39.375 C 209.819 38.955,209.849 38.826,209.780 37.833 C 209.653 36.043,209.005 32.809,208.679 32.346 C 208.513 32.110,208.322 31.729,208.254 31.500 C 207.692 29.598,205.142 27.128,202.667 26.089 C 200.596 25.219,196.654 24.922,193.833 25.423 M222.417 25.419 C 221.683 25.537,220.746 25.789,220.333 25.980 C 219.921 26.170,219.488 26.328,219.371 26.330 C 219.098 26.334,217.550 27.398,217.084 27.900 C 216.888 28.112,216.657 28.315,216.572 28.351 C 216.219 28.500,215.276 30.133,214.930 31.193 L 214.559 32.331 214.931 32.680 C 215.283 33.011,215.448 33.026,218.154 32.973 L 221.006 32.917 221.678 32.130 C 222.973 30.615,224.298 30.205,226.888 30.519 C 230.346 30.938,231.302 35.888,227.991 36.228 C 227.492 36.279,226.071 36.367,224.833 36.423 C 216.075 36.820,212.201 39.997,213.308 45.874 C 214.341 51.360,223.467 53.493,227.604 49.216 C 229.006 47.766,229.783 48.003,230.084 49.972 C 230.292 51.337,230.171 51.295,234.005 51.317 C 236.398 51.330,236.993 51.286,237.296 51.074 L 237.667 50.814 237.667 42.429 C 237.667 30.217,237.248 28.758,233.167 26.753 C 232.479 26.415,231.693 26.026,231.419 25.888 C 230.065 25.206,225.293 24.957,222.417 25.419 M178.828 25.491 C 177.993 25.643,176.654 26.468,176.206 27.106 C 176.047 27.332,175.692 27.810,175.417 28.167 C 175.142 28.524,174.782 29.008,174.616 29.242 C 174.011 30.102,173.459 29.281,173.233 27.184 C 173.047 25.459,173.059 25.464,169.362 25.529 C 167.650 25.559,166.156 25.644,166.042 25.718 C 165.878 25.824,165.833 28.547,165.833 38.410 L 165.833 50.967 166.358 51.150 C 167.085 51.404,172.236 51.390,172.947 51.133 L 173.500 50.933 173.505 44.425 C 173.511 37.620,173.621 35.946,174.139 34.773 C 175.017 32.788,176.939 31.669,179.692 31.539 C 180.670 31.492,181.564 31.397,181.677 31.327 C 181.956 31.155,182.002 25.937,181.728 25.661 C 181.482 25.415,179.791 25.315,178.828 25.491 M200.273 31.158 C 200.719 31.474,201.133 31.811,201.194 31.908 C 201.254 32.004,201.460 32.263,201.651 32.482 C 202.417 33.364,202.546 34.909,201.903 35.513 L 201.473 35.917 197.250 35.917 L 193.027 35.917 192.597 35.513 C 191.496 34.479,193.081 31.359,195.042 30.699 C 196.343 30.262,199.385 30.528,200.273 31.158 M229.090 40.075 C 230.138 40.513,230.314 42.465,229.443 44.000 C 227.315 47.752,220.653 47.350,220.670 43.470 C 220.678 41.545,222.450 40.262,225.442 40.015 C 227.975 39.806,228.466 39.815,229.090 40.075 M328.373 43.164 C 328.044 43.692,328.082 50.889,328.416 51.166 C 328.898 51.566,335.931 51.476,336.343 51.064 C 337.070 50.337,336.770 43.439,335.994 43.046 C 335.218 42.653,328.629 42.756,328.373 43.164 " stroke="none" fill="#3d556d" fill-rule="evenodd"></path><path id="path1" d="M144.833 38.250 L 144.833 76.500 271.250 76.500 C 381.481 76.500,397.667 76.469,397.667 76.259 C 397.667 76.085,397.912 76.003,398.542 75.967 L 399.417 75.917 399.467 75.042 C 399.503 74.412,399.585 74.167,399.759 74.167 C 399.969 74.167,400.000 69.489,400.000 38.250 C 400.000 7.011,399.969 2.333,399.759 2.333 C 399.585 2.333,399.503 2.088,399.467 1.458 L 399.417 0.583 398.542 0.533 C 397.912 0.497,397.667 0.415,397.667 0.241 C 397.667 0.031,381.481 0.000,271.250 0.000 L 144.833 0.000 144.833 38.250 M348.167 13.941 C 349.611 14.541,350.665 16.220,350.661 17.917 C 350.654 21.721,345.845 23.668,343.134 20.965 C 339.650 17.493,343.564 12.030,348.167 13.941 M198.957 23.832 C 200.523 23.973,201.988 24.322,202.413 24.656 C 202.506 24.730,202.846 24.838,203.167 24.898 C 203.487 24.957,204.080 25.230,204.483 25.503 C 204.887 25.776,205.288 26.000,205.375 26.000 C 205.462 26.000,205.736 26.206,205.984 26.458 C 206.232 26.710,206.749 27.177,207.134 27.496 C 207.519 27.815,207.833 28.168,207.833 28.280 C 207.833 28.392,207.938 28.543,208.066 28.617 C 208.335 28.771,209.217 30.151,209.588 31.000 C 209.729 31.321,209.946 31.771,210.070 32.000 C 210.599 32.972,210.982 37.746,210.692 39.737 C 210.444 41.440,211.033 41.333,201.912 41.333 C 193.348 41.333,193.500 41.321,193.500 41.999 C 193.500 42.796,194.492 44.500,194.957 44.500 C 195.037 44.500,195.356 44.688,195.667 44.917 C 196.411 45.466,198.604 45.509,199.417 44.990 C 199.692 44.814,200.023 44.619,200.153 44.557 C 200.283 44.494,200.780 44.043,201.256 43.555 L 202.123 42.667 205.960 42.667 C 210.627 42.667,210.599 42.656,210.558 44.395 C 210.531 45.507,209.579 47.743,209.042 47.954 C 208.927 47.999,208.833 48.112,208.833 48.206 C 208.833 48.451,207.657 49.728,207.301 49.870 C 207.135 49.935,207.000 50.069,207.000 50.167 C 207.000 50.265,206.681 50.496,206.292 50.680 C 205.902 50.864,205.283 51.172,204.917 51.365 C 203.069 52.334,202.641 52.499,201.733 52.597 C 201.192 52.655,200.338 52.823,199.833 52.969 C 198.584 53.333,194.977 53.324,194.159 52.955 C 193.842 52.812,193.208 52.645,192.750 52.584 C 192.292 52.524,191.603 52.292,191.220 52.070 C 190.837 51.848,190.403 51.667,190.254 51.667 C 190.106 51.667,189.810 51.492,189.597 51.279 C 189.384 51.066,188.975 50.794,188.687 50.675 C 187.559 50.208,185.447 47.834,184.676 46.167 C 184.570 45.938,184.371 45.544,184.233 45.293 C 184.096 45.041,183.917 44.428,183.836 43.930 C 183.755 43.433,183.552 42.776,183.386 42.471 C 182.937 41.648,182.933 35.543,183.381 34.671 C 183.545 34.352,183.747 33.612,183.830 33.025 C 183.922 32.376,184.107 31.820,184.303 31.604 C 184.481 31.409,184.713 30.978,184.819 30.645 C 184.925 30.312,185.160 29.907,185.340 29.744 C 185.519 29.582,185.667 29.362,185.667 29.256 C 185.667 28.905,188.860 25.833,189.224 25.833 C 189.340 25.833,189.688 25.647,189.997 25.419 C 190.306 25.191,190.809 24.957,191.115 24.900 C 191.420 24.842,191.708 24.734,191.755 24.659 C 191.905 24.416,193.690 23.977,195.072 23.843 C 196.954 23.660,197.048 23.660,198.957 23.832 M228.417 23.841 C 230.060 24.029,231.072 24.276,231.579 24.614 C 231.760 24.735,232.023 24.833,232.165 24.833 C 232.306 24.833,232.683 24.984,233.003 25.169 C 233.322 25.353,233.921 25.658,234.333 25.846 C 235.276 26.277,237.667 28.746,237.667 29.289 C 237.667 29.441,237.873 29.863,238.125 30.227 L 238.583 30.888 238.631 41.247 C 238.678 51.567,238.677 51.608,238.327 52.053 L 237.976 52.500 233.946 52.499 C 229.324 52.499,228.957 52.411,228.739 51.249 C 228.621 50.620,227.792 50.515,227.459 51.087 C 226.486 52.760,219.208 53.442,217.226 52.046 C 216.964 51.861,216.563 51.653,216.333 51.582 C 216.104 51.512,215.767 51.315,215.583 51.144 C 215.400 50.972,214.894 50.523,214.458 50.145 C 214.023 49.767,213.667 49.368,213.667 49.258 C 213.667 49.148,213.479 48.882,213.250 48.667 C 213.021 48.451,212.833 48.209,212.833 48.127 C 212.833 48.046,212.627 47.553,212.375 47.031 C 211.744 45.727,211.690 42.386,212.279 41.167 C 212.478 40.754,212.750 40.148,212.884 39.820 C 213.391 38.570,216.126 36.478,217.750 36.098 C 218.025 36.033,218.555 35.835,218.928 35.657 C 219.437 35.414,220.245 35.290,222.178 35.161 C 226.814 34.849,228.500 34.491,228.500 33.815 C 228.500 31.256,223.989 30.862,222.681 33.307 C 222.567 33.520,222.222 33.800,221.915 33.928 C 221.607 34.057,221.309 34.238,221.252 34.331 C 221.075 34.617,215.108 34.550,214.399 34.253 C 212.116 33.299,213.312 29.358,216.815 26.292 C 217.103 26.040,217.440 25.833,217.564 25.833 C 217.687 25.833,217.997 25.670,218.251 25.470 C 218.505 25.269,219.059 25.009,219.482 24.891 C 219.904 24.773,220.700 24.516,221.250 24.321 C 222.841 23.758,225.896 23.553,228.417 23.841 M181.886 24.187 C 182.086 24.289,182.494 24.604,182.792 24.886 L 183.333 25.399 183.333 28.686 C 183.333 33.135,183.528 32.877,180.073 33.000 C 177.816 33.080,177.709 33.100,177.185 33.542 C 176.886 33.794,176.543 34.000,176.424 34.000 C 176.305 34.000,176.110 34.234,175.992 34.520 C 175.873 34.806,175.620 35.185,175.430 35.363 C 175.091 35.678,175.081 35.859,174.990 43.718 C 174.939 48.135,174.883 51.763,174.865 51.778 C 174.092 52.460,173.802 52.500,169.637 52.500 L 165.562 52.500 165.073 51.989 L 164.583 51.478 164.539 38.550 L 164.494 25.621 165.171 24.977 L 165.847 24.333 169.236 24.333 C 173.350 24.333,173.502 24.361,174.469 25.274 C 175.384 26.138,175.161 26.117,176.000 25.417 C 176.384 25.096,176.826 24.833,176.982 24.833 C 177.139 24.833,177.340 24.760,177.429 24.671 C 178.005 24.095,181.060 23.763,181.886 24.187 M288.833 24.496 C 289.154 24.578,289.829 24.749,290.333 24.877 C 292.140 25.333,294.616 26.695,295.657 27.803 C 297.927 30.222,298.000 30.666,298.000 42.111 L 298.000 51.026 297.513 51.513 L 297.026 52.000 293.447 52.000 L 289.868 52.000 289.351 51.411 C 289.018 51.032,288.833 50.643,288.833 50.322 C 288.833 49.551,288.503 49.585,287.110 50.504 C 281.716 54.060,274.961 52.422,272.515 46.964 C 270.374 42.189,273.583 37.275,279.581 36.145 C 282.480 35.599,283.032 35.528,285.250 35.420 C 288.420 35.264,288.461 35.253,288.692 34.482 C 289.215 32.736,287.590 30.999,285.438 31.001 C 283.802 31.003,283.009 31.459,281.456 33.292 L 280.997 33.833 277.688 33.833 C 273.789 33.833,273.500 33.736,273.500 32.431 C 273.500 29.188,276.985 25.693,280.977 24.932 C 281.607 24.812,282.211 24.659,282.319 24.592 C 282.952 24.201,287.415 24.135,288.833 24.496 M71.254 24.815 C 71.144 25.316,71.272 26.333,71.445 26.333 C 71.778 26.333,72.113 25.562,71.950 25.173 C 71.607 24.358,71.380 24.241,71.254 24.815 M370.750 24.514 C 371.117 24.608,371.904 24.792,372.500 24.921 C 375.035 25.470,378.543 28.015,379.614 30.083 C 379.757 30.358,379.965 30.696,380.076 30.833 C 380.187 30.971,380.360 31.308,380.460 31.583 C 380.560 31.858,380.827 32.571,381.054 33.167 C 381.549 34.463,381.914 37.810,381.754 39.578 C 381.543 41.906,381.307 43.386,381.091 43.731 C 380.970 43.925,380.744 44.476,380.589 44.956 C 380.435 45.437,380.241 45.871,380.159 45.922 C 380.077 45.972,379.864 46.343,379.686 46.744 C 377.723 51.183,369.448 53.910,363.417 52.106 C 359.017 50.790,356.161 48.000,354.693 43.583 C 354.015 41.542,354.017 35.445,354.697 33.417 C 355.832 30.030,358.514 26.709,360.717 25.963 C 361.010 25.864,361.454 25.641,361.703 25.467 C 361.951 25.294,362.664 25.046,363.286 24.917 C 363.908 24.787,364.679 24.611,365.000 24.524 C 365.799 24.309,369.930 24.302,370.750 24.514 M261.347 24.813 C 265.444 25.553,268.576 28.749,269.422 33.052 C 269.552 33.711,269.751 34.550,269.865 34.917 C 270.181 35.930,270.131 41.163,269.794 42.333 C 269.649 42.837,269.449 43.646,269.349 44.131 C 267.808 51.615,259.156 54.911,253.125 50.311 C 251.286 48.909,251.378 48.693,251.308 54.556 C 251.230 61.084,251.499 60.709,246.833 60.798 C 243.432 60.863,242.585 60.714,242.211 59.984 C 242.051 59.674,242.004 55.740,242.002 42.567 L 242.000 25.552 242.351 25.234 C 242.674 24.942,242.998 24.917,246.422 24.917 C 250.796 24.917,250.991 24.978,251.197 26.409 C 251.399 27.813,251.685 27.919,252.710 26.970 C 253.899 25.869,255.603 25.050,257.157 24.833 C 257.839 24.737,258.432 24.623,258.476 24.579 C 258.632 24.423,259.638 24.505,261.347 24.813 M308.486 24.990 C 309.631 25.211,309.930 25.768,310.423 28.593 C 310.564 29.402,310.744 30.144,310.822 30.241 C 310.900 30.338,311.085 31.017,311.234 31.750 C 311.384 32.483,311.616 33.421,311.750 33.833 C 311.885 34.246,312.147 35.296,312.334 36.167 C 313.680 42.452,314.371 43.966,314.826 41.625 C 314.937 41.052,315.168 40.058,315.339 39.417 C 315.510 38.775,316.071 36.450,316.585 34.250 C 317.100 32.050,317.696 29.537,317.910 28.667 C 318.124 27.796,318.346 26.821,318.405 26.500 C 318.672 25.034,319.733 24.755,324.583 24.877 C 328.304 24.970,328.499 25.087,327.952 26.893 C 327.809 27.364,327.496 28.412,327.256 29.221 C 327.017 30.029,326.752 30.817,326.668 30.971 C 326.584 31.124,326.206 32.300,325.829 33.583 C 325.451 34.867,325.083 36.067,325.011 36.250 C 324.570 37.370,322.842 42.796,322.496 44.147 C 322.393 44.549,322.243 44.999,322.162 45.147 C 321.962 45.516,321.064 48.311,320.663 49.815 C 319.309 54.896,316.949 58.469,313.778 60.240 C 310.987 61.799,304.010 62.543,302.705 61.421 L 302.250 61.029 302.250 58.353 C 302.250 54.966,302.248 54.969,304.545 54.818 C 308.349 54.569,308.999 53.287,307.492 49.000 C 307.121 47.946,306.708 46.671,306.573 46.167 C 306.438 45.663,306.244 45.104,306.141 44.925 C 305.935 44.563,305.158 42.335,304.657 40.669 C 304.479 40.075,304.188 39.212,304.012 38.752 C 303.409 37.179,302.696 35.082,301.658 31.833 C 301.088 30.046,300.479 28.273,300.305 27.894 C 299.933 27.083,299.751 25.681,299.975 25.352 C 300.291 24.885,306.564 24.619,308.486 24.990 M350.463 25.259 L 350.833 25.519 350.833 38.414 L 350.833 51.309 350.394 51.655 C 349.980 51.981,349.746 52.000,346.220 52.000 L 342.485 52.000 342.076 51.591 L 341.667 51.182 341.667 38.456 C 341.667 25.879,341.671 25.725,342.006 25.365 C 342.457 24.882,349.793 24.790,350.463 25.259 M77.333 27.475 C 77.333 27.879,77.844 28.049,78.483 27.858 C 78.834 27.753,79.782 27.667,80.589 27.667 C 81.396 27.667,82.024 27.639,81.986 27.606 C 81.822 27.463,77.333 27.337,77.333 27.475 M84.513 29.875 C 84.506 30.219,84.556 30.499,84.625 30.497 C 84.841 30.493,85.262 30.172,85.056 30.169 C 84.949 30.168,84.786 29.960,84.694 29.708 C 84.529 29.257,84.526 29.260,84.513 29.875 M367.333 31.274 C 364.324 32.344,363.075 35.461,363.667 40.422 C 364.397 46.532,370.655 47.647,371.914 41.891 C 372.051 41.263,372.238 40.450,372.328 40.083 C 372.868 37.892,371.983 34.037,370.595 32.527 C 369.766 31.626,368.121 30.994,367.333 31.274 M196.417 31.743 C 195.091 32.140,194.833 32.242,194.833 32.368 C 194.833 32.449,194.646 32.690,194.417 32.902 C 194.188 33.114,193.953 33.524,193.896 33.814 L 193.790 34.340 197.187 34.295 L 200.583 34.250 200.550 33.777 C 200.532 33.516,200.325 33.126,200.092 32.910 C 199.858 32.693,199.667 32.447,199.667 32.363 C 199.667 32.021,197.114 31.534,196.417 31.743 M254.924 31.999 C 254.561 32.068,254.236 32.210,254.201 32.313 C 254.167 32.416,254.042 32.500,253.924 32.500 C 253.806 32.500,253.393 32.843,253.007 33.262 C 250.191 36.316,251.019 43.486,254.319 44.637 C 256.973 45.562,259.086 44.291,260.365 41.000 C 260.731 40.059,260.549 36.252,260.090 35.249 C 259.857 34.740,259.666 34.269,259.666 34.203 C 259.665 34.055,258.766 33.151,258.051 32.578 C 257.652 32.260,255.583 31.652,255.583 31.853 C 255.583 31.863,255.286 31.929,254.924 31.999 M63.553 36.103 C 63.408 36.481,63.709 37.250,64.002 37.250 C 64.289 37.250,64.404 36.803,64.262 36.237 C 64.147 35.779,63.709 35.697,63.553 36.103 M285.111 41.007 C 282.100 41.271,280.950 42.187,281.353 44.000 C 282.058 47.174,288.378 45.871,288.760 42.474 C 288.938 40.900,288.470 40.712,285.111 41.007 M337.100 41.533 C 338.256 42.166,338.617 44.508,338.341 49.576 C 338.165 52.788,337.222 53.136,329.874 52.703 C 326.702 52.516,326.930 52.909,326.865 47.509 C 326.803 42.348,326.870 41.955,327.885 41.485 C 328.863 41.033,336.258 41.072,337.100 41.533 M224.360 41.663 C 224.053 41.737,223.719 41.881,223.618 41.982 C 223.516 42.084,223.299 42.167,223.135 42.167 C 222.970 42.167,222.653 42.459,222.421 42.827 L 222.004 43.487 222.346 44.067 C 222.957 45.102,225.476 45.879,225.916 45.167 C 225.973 45.076,226.373 44.849,226.805 44.663 C 227.238 44.477,227.677 44.158,227.781 43.954 C 228.930 41.709,228.875 41.590,226.667 41.556 C 225.704 41.541,224.666 41.589,224.360 41.663 " stroke="none" fill="#fbfbeb" fill-rule="evenodd"></path><path id="path2" d="M144.000 38.250 C 144.000 63.639,144.056 76.500,144.167 76.500 C 144.277 76.500,144.333 63.639,144.333 38.250 C 144.333 12.861,144.277 0.000,144.167 0.000 C 144.056 0.000,144.000 12.861,144.000 38.250 M64.586 14.361 C 63.666 15.084,63.667 15.072,63.657 24.703 C 63.647 34.414,63.621 34.707,62.782 34.804 C 62.482 34.838,62.121 34.714,61.782 34.459 C 57.495 31.246,54.478 32.827,55.237 37.890 C 55.334 38.535,57.511 42.256,58.480 43.431 C 59.617 44.811,63.664 52.191,65.097 55.500 C 65.435 56.279,65.917 57.367,66.168 57.917 C 66.420 58.467,66.677 59.083,66.739 59.287 C 67.064 60.347,66.941 60.333,76.323 60.333 C 86.071 60.333,85.448 60.428,85.902 58.870 C 86.054 58.346,86.322 57.429,86.497 56.833 C 86.672 56.237,87.011 55.075,87.251 54.250 C 87.490 53.425,87.803 52.450,87.946 52.083 C 88.089 51.717,88.389 50.931,88.614 50.337 C 88.838 49.743,89.087 49.179,89.167 49.083 C 89.246 48.988,89.460 48.386,89.642 47.746 C 89.825 47.107,90.125 46.208,90.311 45.750 C 91.123 43.742,91.167 43.396,91.167 38.957 C 91.167 34.146,91.104 33.806,89.905 32.097 C 88.849 30.590,87.299 29.362,86.083 29.070 C 85.489 28.927,84.182 28.066,84.054 27.734 C 83.856 27.217,82.470 26.804,80.620 26.710 C 78.679 26.612,78.351 26.477,76.793 25.144 C 76.204 24.640,76.067 24.603,74.378 24.482 C 71.883 24.304,72.003 24.520,71.988 20.190 C 71.972 15.687,71.883 15.075,71.157 14.469 L 70.596 14.000 67.820 14.000 C 65.226 14.000,65.015 14.024,64.586 14.361 M71.109 14.881 L 71.667 15.407 71.671 19.162 C 71.676 24.594,71.652 24.532,73.878 24.661 C 75.535 24.758,76.727 25.189,77.291 25.895 C 77.958 26.729,78.632 26.956,80.704 27.041 C 82.827 27.129,82.892 27.153,84.166 28.323 C 84.579 28.702,85.216 29.100,85.583 29.209 C 87.010 29.633,89.073 31.201,89.660 32.308 C 89.801 32.573,90.053 32.982,90.219 33.216 C 90.989 34.298,90.925 43.772,90.138 45.289 C 89.895 45.758,89.606 46.579,89.497 47.113 C 89.388 47.647,89.201 48.196,89.081 48.333 C 88.961 48.471,88.740 49.008,88.591 49.528 C 88.441 50.047,88.213 50.559,88.085 50.666 C 87.956 50.772,87.760 51.285,87.649 51.805 C 87.537 52.325,87.344 52.870,87.219 53.017 C 87.095 53.164,86.884 53.904,86.751 54.661 C 86.618 55.419,86.424 56.141,86.321 56.265 C 86.217 56.390,85.994 57.113,85.825 57.871 C 85.592 58.921,85.414 59.340,85.083 59.625 L 84.648 60.000 76.396 60.000 C 70.470 60.000,68.042 59.946,67.781 59.807 C 67.215 59.507,66.849 59.009,66.649 58.267 C 66.548 57.893,66.286 57.249,66.066 56.836 C 65.846 56.424,65.667 56.010,65.667 55.917 C 65.667 55.824,65.489 55.410,65.273 54.999 C 65.056 54.587,64.788 53.969,64.677 53.626 C 64.566 53.283,64.379 52.946,64.261 52.876 C 64.143 52.807,63.954 52.450,63.839 52.083 C 63.725 51.717,63.469 51.154,63.269 50.833 C 63.069 50.512,62.812 50.063,62.696 49.833 C 62.581 49.604,62.231 48.967,61.919 48.417 C 61.607 47.867,61.210 47.117,61.035 46.750 C 60.697 46.039,59.986 44.911,59.617 44.500 C 59.494 44.362,59.213 43.950,58.994 43.583 C 58.775 43.217,58.499 42.818,58.381 42.696 C 58.263 42.575,58.167 42.380,58.167 42.262 C 58.167 42.143,57.905 41.718,57.585 41.315 C 57.265 40.913,57.003 40.490,57.002 40.375 C 57.001 40.260,56.926 40.167,56.835 40.167 C 56.677 40.167,56.337 39.599,55.739 38.339 C 55.351 37.520,55.450 34.218,55.870 33.983 C 56.024 33.897,56.274 33.702,56.426 33.550 C 56.875 33.102,58.309 33.067,59.247 33.481 C 59.684 33.675,60.110 33.833,60.193 33.833 C 60.275 33.833,60.719 34.131,61.179 34.494 C 63.865 36.618,63.998 36.136,63.999 24.229 L 64.000 15.542 64.544 14.948 C 65.183 14.251,65.752 14.160,68.734 14.281 C 70.500 14.352,70.567 14.369,71.109 14.881 M345.167 14.783 C 344.846 14.928,344.408 15.126,344.194 15.225 C 342.553 15.983,342.453 19.162,344.030 20.484 C 346.828 22.832,350.878 19.737,349.353 16.417 C 348.675 14.940,346.610 14.135,345.167 14.783 M66.182 15.501 C 65.012 15.777,65.043 15.458,65.020 27.546 L 65.000 38.008 64.571 38.171 C 64.047 38.371,63.931 38.297,62.243 36.682 C 61.550 36.018,60.729 35.370,60.419 35.240 C 60.110 35.111,59.811 34.932,59.755 34.842 C 59.342 34.173,57.408 34.365,56.895 35.127 C 56.344 35.946,56.611 38.746,57.292 39.286 C 57.432 39.397,57.668 39.673,57.815 39.899 C 58.545 41.018,60.090 43.260,60.183 43.333 C 60.241 43.379,60.467 43.743,60.686 44.142 C 60.905 44.541,61.308 45.268,61.583 45.756 C 61.858 46.245,62.254 46.950,62.462 47.322 C 62.670 47.695,62.909 48.000,62.992 48.000 C 63.076 48.000,63.194 48.169,63.255 48.375 C 63.394 48.847,64.705 51.555,64.848 51.667 C 64.907 51.712,65.006 51.913,65.068 52.112 C 65.130 52.312,65.356 52.733,65.570 53.048 C 65.784 53.363,66.052 53.913,66.166 54.269 C 66.280 54.625,66.508 55.142,66.672 55.417 C 66.835 55.692,67.056 56.240,67.161 56.636 C 67.418 57.603,68.142 58.611,68.733 58.825 C 69.272 59.020,82.967 59.046,83.656 58.853 C 84.264 58.684,84.958 57.409,85.264 55.901 C 85.411 55.176,85.625 54.433,85.739 54.250 C 85.854 54.067,85.998 53.692,86.060 53.417 C 86.180 52.883,87.190 50.189,87.686 49.083 C 87.850 48.717,88.060 48.079,88.152 47.667 C 88.244 47.254,88.473 46.602,88.660 46.216 C 88.847 45.831,89.001 45.419,89.002 45.300 C 89.002 45.181,89.188 44.708,89.413 44.250 C 89.815 43.432,89.823 43.339,89.828 39.167 L 89.833 34.917 89.300 33.877 C 88.373 32.068,86.991 30.833,85.895 30.833 C 84.657 30.833,84.358 31.375,84.186 33.927 C 84.116 34.980,83.972 35.928,83.868 36.032 C 83.565 36.335,83.523 35.992,83.466 32.741 C 83.396 28.699,83.048 28.169,80.468 28.167 C 78.427 28.166,78.013 28.754,78.003 31.667 C 77.999 32.912,77.950 33.144,77.595 33.583 C 77.051 34.259,77.032 34.167,76.961 30.454 L 76.902 27.324 76.283 26.705 C 75.325 25.747,72.334 25.703,71.894 26.640 C 71.823 26.792,71.724 28.529,71.674 30.500 C 71.587 33.923,71.568 34.085,71.250 34.126 C 70.396 34.235,70.423 34.497,70.333 25.032 C 70.266 17.945,70.206 16.164,70.024 15.945 C 69.567 15.396,67.596 15.168,66.182 15.501 M69.417 16.000 C 70.165 16.463,70.163 16.427,70.165 25.719 C 70.167 34.551,70.162 34.500,71.071 34.500 C 71.855 34.500,71.882 34.380,71.961 30.500 C 72.046 26.306,72.033 26.333,73.948 26.333 C 76.353 26.333,76.520 26.604,76.669 30.750 C 76.798 34.340,76.850 34.573,77.481 34.417 C 78.198 34.240,78.247 34.081,78.333 31.644 C 78.417 29.308,78.417 29.303,78.903 28.886 C 79.630 28.261,81.766 28.357,82.456 29.046 L 82.917 29.507 83.005 32.754 C 83.109 36.563,83.253 36.966,84.280 36.341 L 84.806 36.021 84.862 33.861 C 84.936 30.934,85.264 30.584,86.982 31.599 C 88.948 32.760,89.500 34.395,89.500 39.051 L 89.500 42.775 88.910 44.429 C 88.585 45.339,88.090 46.758,87.808 47.583 C 87.527 48.408,87.085 49.608,86.827 50.250 C 85.734 52.965,85.490 53.663,85.165 55.004 C 84.825 56.407,84.712 56.736,84.197 57.809 C 83.792 58.653,83.663 58.667,76.197 58.664 C 67.755 58.662,68.236 58.793,67.369 56.250 C 67.078 55.396,63.459 48.101,62.912 47.267 C 62.537 46.694,62.128 45.985,61.589 44.972 C 61.226 44.291,59.969 42.395,57.767 39.213 C 55.865 36.462,56.975 34.034,59.588 35.231 C 60.657 35.720,61.100 36.062,62.767 37.682 C 64.176 39.052,64.831 39.224,65.150 38.308 C 65.275 37.951,65.339 34.455,65.350 27.350 C 65.368 16.284,65.372 16.200,66.007 15.879 C 66.689 15.534,68.783 15.609,69.417 16.000 M194.667 24.333 C 192.904 24.721,191.215 25.226,190.841 25.476 C 190.608 25.633,190.140 25.886,189.801 26.040 C 188.825 26.482,187.383 27.743,186.432 28.985 C 184.911 30.971,184.249 32.566,183.757 35.427 C 183.249 38.375,183.238 38.972,183.652 41.200 C 183.828 42.144,184.021 43.217,184.081 43.583 C 184.142 43.950,184.303 44.424,184.441 44.637 C 184.578 44.849,184.794 45.320,184.923 45.683 C 185.210 46.497,186.793 48.627,187.630 49.325 C 187.971 49.610,188.403 49.990,188.589 50.171 C 188.776 50.352,189.009 50.500,189.108 50.500 C 189.207 50.500,189.501 50.669,189.762 50.875 C 190.245 51.258,191.528 51.793,193.167 52.296 C 194.323 52.650,199.534 52.690,201.083 52.356 C 205.608 51.380,209.068 48.502,210.036 44.907 C 210.488 43.233,210.046 42.985,206.417 42.876 C 203.248 42.780,202.517 42.924,201.666 43.809 C 201.346 44.143,200.749 44.679,200.340 45.000 L 199.597 45.583 197.653 45.583 L 195.709 45.583 194.771 44.938 C 194.255 44.583,193.833 44.199,193.833 44.083 C 193.833 43.968,193.725 43.784,193.592 43.674 C 192.875 43.079,192.677 41.360,193.290 41.060 C 193.451 40.981,197.209 40.879,201.640 40.833 L 209.696 40.750 210.119 40.258 L 210.541 39.767 210.452 37.092 C 210.335 33.611,209.873 32.157,207.935 29.161 C 206.027 26.212,201.490 24.149,197.000 24.189 C 196.037 24.198,194.987 24.263,194.667 24.333 M223.500 24.282 C 223.271 24.320,222.746 24.454,222.333 24.579 C 221.921 24.703,221.283 24.855,220.917 24.915 C 217.163 25.531,212.610 30.851,213.840 33.185 C 214.173 33.817,214.240 33.828,217.823 33.831 C 221.627 33.834,221.970 33.742,222.611 32.553 C 223.901 30.160,228.652 30.948,228.834 33.584 C 228.941 35.130,228.931 35.136,225.434 35.343 C 223.793 35.440,222.143 35.582,221.767 35.659 C 221.391 35.737,220.462 35.923,219.702 36.074 C 218.068 36.399,215.912 37.385,214.772 38.330 C 213.426 39.445,212.980 40.275,212.307 42.917 C 211.556 45.862,214.220 50.512,217.250 51.545 C 217.525 51.638,217.835 51.781,217.939 51.862 C 218.222 52.082,220.786 52.500,221.833 52.497 C 223.983 52.492,226.597 51.478,228.203 50.025 L 228.655 49.615 228.826 50.065 C 228.920 50.312,229.042 50.692,229.096 50.908 C 229.366 51.985,229.700 52.078,233.471 52.137 C 237.587 52.201,238.072 52.108,238.341 51.203 C 238.469 50.772,238.509 47.711,238.471 41.167 L 238.417 31.750 237.788 30.448 C 237.443 29.732,237.088 29.057,237.001 28.948 C 236.014 27.725,235.386 27.058,234.935 26.751 C 233.975 26.100,231.719 25.039,230.890 24.849 C 230.446 24.747,229.673 24.552,229.172 24.415 C 228.314 24.181,224.621 24.094,223.500 24.282 M200.500 24.848 C 206.505 26.076,210.213 30.907,210.241 37.535 C 210.254 40.757,211.315 40.406,201.353 40.469 L 193.051 40.522 192.772 41.107 C 192.445 41.793,192.602 42.637,193.266 43.750 C 194.875 46.451,198.904 46.793,201.441 44.445 C 202.783 43.203,202.915 43.167,206.155 43.167 C 210.437 43.167,210.883 44.029,208.422 47.550 C 205.026 52.407,195.663 54.074,190.123 50.808 C 189.681 50.547,189.261 50.333,189.191 50.333 C 188.634 50.333,185.000 45.972,185.000 45.303 C 185.000 45.218,184.843 44.803,184.650 44.381 C 183.626 42.133,183.567 34.464,184.562 32.920 C 184.682 32.735,184.900 32.225,185.047 31.788 C 185.553 30.290,187.551 27.780,188.945 26.892 C 189.204 26.726,189.454 26.543,189.500 26.484 C 189.720 26.203,192.367 25.128,193.409 24.896 C 196.126 24.292,197.727 24.281,200.500 24.848 M229.833 24.848 C 233.885 25.766,236.481 27.807,237.783 31.095 L 238.240 32.250 238.245 41.723 L 238.250 51.196 237.857 51.514 C 237.497 51.806,237.162 51.833,233.989 51.833 C 229.806 51.833,229.333 51.675,229.333 50.268 C 229.333 49.510,228.734 49.208,228.205 49.700 C 222.980 54.553,213.767 51.930,212.648 45.270 C 211.979 41.287,213.938 38.369,218.427 36.663 C 219.223 36.360,223.898 35.697,226.000 35.588 C 228.954 35.435,229.249 35.268,229.193 33.787 C 229.074 30.684,224.150 29.716,222.362 32.444 C 221.617 33.579,221.292 33.665,217.763 33.666 C 214.113 33.667,214.000 33.628,214.000 32.374 C 214.000 30.769,215.648 28.162,217.644 26.611 C 218.728 25.767,222.199 24.708,224.750 24.441 C 225.913 24.319,228.367 24.516,229.833 24.848 M178.309 24.815 C 177.261 25.085,175.333 26.276,175.333 26.653 C 175.333 26.731,175.111 26.828,174.840 26.868 C 174.314 26.945,174.167 26.774,174.167 26.088 C 174.167 24.994,173.906 24.922,169.714 24.864 C 166.117 24.814,165.874 24.830,165.490 25.141 L 165.083 25.471 165.083 38.388 L 165.083 51.306 165.487 51.737 L 165.891 52.167 169.421 52.167 C 174.943 52.167,174.500 52.809,174.501 44.800 C 174.504 33.653,174.978 32.640,180.204 32.598 C 182.803 32.577,182.735 32.677,182.804 28.784 C 182.881 24.513,182.112 23.834,178.309 24.815 M181.585 25.001 C 182.479 25.341,182.500 25.422,182.496 28.530 C 182.492 32.227,182.473 32.263,180.555 32.191 C 177.466 32.075,175.453 33.202,174.648 35.500 C 174.283 36.545,174.266 36.844,174.176 43.858 C 174.089 50.705,174.065 51.153,173.766 51.483 C 173.257 52.044,165.987 52.026,165.593 51.463 C 165.205 50.910,165.208 25.930,165.596 25.417 C 165.834 25.101,166.043 25.083,169.561 25.083 C 173.861 25.083,173.724 25.034,173.988 26.670 C 174.080 27.243,174.190 27.746,174.233 27.789 C 174.332 27.887,175.451 27.041,175.718 26.667 C 176.696 25.295,179.937 24.374,181.585 25.001 M282.667 25.422 C 281.588 25.551,280.648 25.766,280.216 25.983 C 279.831 26.175,279.398 26.333,279.254 26.333 C 278.965 26.333,277.490 27.304,276.899 27.882 C 276.693 28.085,276.446 28.325,276.350 28.417 C 275.698 29.042,275.163 29.915,274.797 30.948 L 274.374 32.147 274.739 32.490 C 275.079 32.809,275.307 32.833,277.950 32.833 L 280.795 32.833 281.093 32.375 C 282.075 30.862,283.003 30.436,285.333 30.426 C 288.381 30.412,289.833 31.606,289.833 34.124 C 289.833 36.042,289.303 36.296,284.877 36.498 C 278.765 36.777,275.431 38.077,273.741 40.841 L 273.083 41.917 273.083 44.000 C 273.083 46.721,274.720 49.701,276.515 50.250 C 276.736 50.318,277.045 50.486,277.202 50.624 C 278.220 51.516,283.946 51.600,285.000 50.738 C 285.137 50.625,285.526 50.419,285.862 50.280 C 286.199 50.141,286.814 49.684,287.228 49.263 C 288.913 47.555,289.719 47.782,289.968 50.036 L 290.083 51.083 293.212 51.129 C 295.241 51.158,296.461 51.110,296.682 50.992 C 297.153 50.740,297.121 31.604,296.649 31.059 C 296.501 30.889,296.297 30.501,296.195 30.196 C 295.961 29.500,295.318 28.658,294.321 27.744 C 293.997 27.447,292.783 26.753,292.000 26.416 C 291.679 26.278,291.192 26.044,290.917 25.895 C 289.778 25.281,285.760 25.050,282.667 25.422 M365.153 25.422 C 364.029 25.559,363.153 25.763,362.738 25.985 C 362.381 26.177,361.986 26.333,361.861 26.333 C 361.555 26.333,359.734 27.468,359.097 28.056 C 358.375 28.722,358.341 28.755,357.949 29.184 C 357.540 29.633,356.502 31.150,356.496 31.308 C 356.494 31.368,356.271 31.867,356.000 32.417 C 355.729 32.967,355.506 33.534,355.504 33.678 C 355.502 33.822,355.352 34.497,355.171 35.178 C 354.462 37.842,354.818 41.740,356.023 44.513 C 356.286 45.116,356.500 45.663,356.500 45.729 C 356.500 46.623,359.466 49.437,361.417 50.392 C 362.987 51.160,365.989 51.832,367.833 51.828 C 369.319 51.825,373.717 50.990,373.912 50.674 C 373.963 50.592,374.278 50.434,374.612 50.324 C 376.099 49.833,378.712 47.253,379.328 45.667 C 379.453 45.346,379.655 44.965,379.777 44.820 C 379.900 44.675,380.000 44.450,380.000 44.320 C 380.000 44.190,380.191 43.483,380.425 42.750 C 380.930 41.167,381.144 37.913,380.857 36.167 C 380.608 34.646,379.955 32.329,379.636 31.833 C 379.489 31.604,379.315 31.229,379.249 31.000 C 379.184 30.771,378.993 30.433,378.826 30.250 C 378.658 30.067,378.273 29.638,377.969 29.297 C 377.665 28.957,377.342 28.603,377.250 28.512 C 376.523 27.789,374.462 26.333,374.166 26.333 C 374.069 26.333,373.561 26.155,373.037 25.938 C 371.396 25.256,368.220 25.049,365.153 25.422 M255.966 25.909 C 255.535 26.142,255.075 26.333,254.944 26.333 C 254.696 26.333,252.333 28.617,252.333 28.856 C 252.333 28.932,252.023 29.151,251.644 29.345 C 250.664 29.845,250.328 29.501,250.224 27.894 C 250.184 27.265,250.113 26.506,250.068 26.208 L 249.985 25.667 246.582 25.667 L 243.180 25.667 243.002 26.324 C 242.712 27.403,242.849 59.034,243.145 59.391 C 243.421 59.723,248.732 59.801,249.634 59.487 L 250.150 59.306 250.200 53.741 C 250.264 46.644,250.471 46.266,252.896 48.836 C 254.732 50.783,256.205 51.365,259.313 51.373 C 261.726 51.380,265.000 50.394,265.000 49.661 C 265.000 49.583,265.225 49.386,265.500 49.223 C 265.775 49.061,266.000 48.843,266.000 48.740 C 266.000 48.636,266.161 48.409,266.358 48.234 C 266.554 48.060,266.863 47.579,267.045 47.167 C 267.226 46.754,267.466 46.304,267.579 46.167 C 267.691 46.029,267.901 45.542,268.046 45.083 C 270.536 37.165,268.212 27.971,263.282 26.232 C 262.914 26.102,262.501 25.903,262.364 25.789 C 261.813 25.332,256.861 25.424,255.966 25.909 M301.000 26.176 C 301.000 26.914,301.316 28.125,301.758 29.083 C 301.969 29.542,302.195 30.253,302.259 30.663 C 302.323 31.074,302.475 31.561,302.597 31.747 C 302.719 31.933,302.928 32.558,303.063 33.135 C 303.198 33.713,303.380 34.275,303.467 34.384 C 303.555 34.494,303.752 35.033,303.906 35.583 C 304.059 36.133,304.298 36.829,304.435 37.128 C 304.573 37.428,304.786 38.141,304.908 38.712 C 305.030 39.283,305.280 40.091,305.462 40.508 C 305.644 40.925,305.846 41.585,305.912 41.974 C 305.978 42.363,306.204 42.997,306.414 43.382 C 306.624 43.768,306.848 44.383,306.912 44.750 C 306.976 45.117,307.168 45.645,307.340 45.924 C 307.511 46.204,307.703 46.766,307.766 47.174 C 307.829 47.583,308.048 48.254,308.253 48.667 C 308.459 49.079,308.681 49.747,308.749 50.150 C 308.816 50.553,308.970 51.120,309.092 51.411 C 309.442 52.250,308.982 53.774,308.147 54.541 C 307.356 55.266,307.033 55.374,305.311 55.494 C 303.109 55.646,303.167 55.573,303.167 58.237 C 303.167 60.961,303.052 60.833,305.510 60.833 C 311.760 60.833,315.780 58.863,317.584 54.917 C 317.752 54.550,317.975 54.137,318.080 54.000 C 318.184 53.862,318.406 53.302,318.572 52.755 C 318.738 52.208,318.969 51.608,319.087 51.422 C 319.204 51.236,319.381 50.692,319.481 50.213 C 319.580 49.734,319.812 49.060,319.997 48.715 C 320.182 48.370,320.333 47.932,320.333 47.741 C 320.333 47.225,320.825 45.667,320.988 45.667 C 321.065 45.667,321.182 45.314,321.246 44.883 C 321.311 44.452,321.539 43.645,321.752 43.091 C 322.280 41.721,322.803 40.104,323.074 39.000 C 323.198 38.496,323.452 37.708,323.638 37.250 C 324.077 36.171,324.595 34.568,325.013 33.000 C 325.196 32.313,325.455 31.525,325.588 31.250 C 325.721 30.975,325.949 30.262,326.094 29.667 C 326.239 29.071,326.474 28.403,326.617 28.182 C 326.759 27.961,326.914 27.304,326.961 26.723 L 327.046 25.667 323.530 25.667 L 320.014 25.667 319.602 26.375 C 319.348 26.814,319.125 27.565,319.017 28.349 C 318.922 29.045,318.701 29.948,318.526 30.357 C 318.350 30.766,318.153 31.584,318.087 32.175 C 318.020 32.766,317.821 33.687,317.644 34.220 C 317.467 34.754,317.207 35.796,317.067 36.536 C 316.926 37.276,316.711 38.152,316.589 38.482 C 316.466 38.813,316.238 39.796,316.081 40.667 C 315.722 42.655,315.214 44.239,314.822 44.594 C 314.079 45.266,313.133 44.306,312.823 42.566 C 312.726 42.025,312.540 41.283,312.408 40.917 C 312.276 40.550,312.062 39.650,311.932 38.917 C 311.669 37.432,311.132 35.147,310.658 33.500 C 310.487 32.904,310.234 31.802,310.096 31.051 C 309.957 30.300,309.697 29.213,309.518 28.635 C 309.339 28.056,309.143 27.283,309.082 26.917 C 308.873 25.655,308.913 25.667,304.724 25.667 L 301.000 25.667 301.000 26.176 M342.759 26.037 C 342.530 26.364,342.500 27.842,342.500 38.683 L 342.500 50.958 343.021 51.063 C 343.855 51.229,349.103 51.183,349.572 51.004 L 350.000 50.842 350.000 38.625 C 350.000 27.837,349.970 26.364,349.741 26.037 C 349.488 25.676,349.400 25.667,346.250 25.667 C 343.100 25.667,343.012 25.676,342.759 26.037 M369.686 30.730 C 370.773 31.118,371.921 32.334,372.393 33.597 C 372.528 33.956,372.765 34.587,372.921 35.000 C 373.327 36.075,373.324 40.910,372.918 42.000 C 372.764 42.412,372.540 43.008,372.421 43.323 C 370.864 47.445,364.885 47.483,363.412 43.381 C 363.255 42.942,363.017 42.334,362.883 42.029 C 362.204 40.485,362.312 36.545,363.093 34.345 C 364.211 31.193,366.883 29.728,369.686 30.730 M196.083 30.979 C 194.388 31.419,192.664 33.426,192.977 34.596 C 193.154 35.257,193.417 35.300,197.250 35.300 C 201.091 35.300,201.346 35.258,201.525 34.589 C 202.054 32.611,198.606 30.323,196.083 30.979 M256.333 31.152 C 256.654 31.235,257.197 31.350,257.540 31.409 C 258.222 31.524,259.583 32.577,260.000 33.310 C 260.138 33.552,260.413 34.012,260.611 34.333 C 261.127 35.171,261.386 37.956,261.155 40.203 C 260.477 46.813,253.286 48.107,250.907 42.047 C 250.066 39.904,249.984 36.944,250.721 35.306 C 250.859 35.000,251.056 34.477,251.159 34.143 C 251.451 33.201,253.265 31.568,254.190 31.416 C 254.590 31.350,255.029 31.232,255.167 31.153 C 255.487 30.970,255.625 30.970,256.333 31.152 M199.131 31.568 C 200.689 32.363,201.577 33.811,200.976 34.576 L 200.642 35.000 197.280 34.997 C 195.430 34.996,193.834 34.940,193.733 34.872 C 193.087 34.441,193.184 33.759,194.052 32.633 C 195.156 31.200,197.462 30.717,199.131 31.568 M289.057 40.018 C 291.129 40.962,289.469 45.154,286.583 46.265 C 281.705 48.142,277.686 43.183,282.058 40.681 C 283.338 39.949,287.947 39.512,289.057 40.018 M226.333 40.701 C 223.099 41.096,222.887 41.154,222.184 41.835 C 219.871 44.080,222.748 46.677,226.445 45.681 C 228.508 45.126,230.013 42.020,228.781 40.862 C 228.368 40.474,228.251 40.467,226.333 40.701 M228.666 41.250 C 229.037 41.696,228.803 43.343,228.269 44.043 C 227.386 45.202,226.483 45.583,224.628 45.583 L 223.006 45.583 222.378 44.956 C 221.246 43.823,221.686 42.043,223.250 41.427 C 224.231 41.041,228.380 40.905,228.666 41.250 M327.884 42.129 C 327.246 42.629,327.167 43.192,327.167 47.186 C 327.167 52.600,326.931 52.353,332.130 52.379 C 337.951 52.409,337.740 52.605,337.722 47.169 C 337.708 42.904,337.630 42.452,336.833 42.049 C 336.119 41.687,328.357 41.757,327.884 42.129 M336.837 42.469 C 337.437 42.956,337.837 49.759,337.341 51.062 C 336.898 52.227,329.090 52.627,327.923 51.545 L 327.484 51.138 327.534 46.971 C 327.597 41.631,327.053 42.167,332.417 42.167 C 336.077 42.167,336.499 42.196,336.837 42.469 " stroke="none" fill="#aecad0" fill-rule="evenodd"></path><path id="path3" d="M143.500 38.250 C 143.500 72.139,143.529 76.500,143.750 76.500 C 143.971 76.500,144.000 72.139,144.000 38.250 C 144.000 4.361,143.971 0.000,143.750 0.000 C 143.529 0.000,143.500 4.361,143.500 38.250 M65.302 13.158 C 62.976 13.611,62.833 14.282,62.833 24.784 C 62.833 34.691,62.966 34.089,61.010 33.077 C 58.958 32.015,56.028 32.075,55.083 33.197 C 53.857 34.655,54.103 38.986,55.482 40.234 C 55.675 40.409,55.833 40.647,55.833 40.764 C 55.833 40.881,55.944 41.086,56.078 41.221 C 56.213 41.356,56.532 41.805,56.787 42.219 C 57.237 42.952,58.557 44.957,59.187 45.868 C 59.359 46.117,59.500 46.368,59.500 46.426 C 59.500 46.484,59.669 46.765,59.875 47.051 C 60.081 47.336,60.406 47.873,60.597 48.243 C 61.886 50.747,62.902 52.592,63.101 52.791 C 63.229 52.919,63.333 53.120,63.333 53.237 C 63.333 53.354,63.511 53.785,63.729 54.195 C 63.947 54.604,64.178 55.121,64.243 55.344 C 64.309 55.568,64.722 56.500,65.162 57.417 C 65.602 58.333,66.050 59.361,66.158 59.701 C 66.583 61.040,66.269 61.000,76.469 61.000 L 85.481 61.000 85.916 60.625 C 86.253 60.334,86.477 59.785,86.919 58.167 C 88.160 53.622,88.620 52.184,89.426 50.333 C 89.645 49.829,89.909 49.079,90.012 48.667 C 90.115 48.254,90.270 47.831,90.355 47.726 C 90.535 47.507,91.432 44.918,91.683 43.893 C 91.784 43.481,91.832 41.301,91.801 38.476 L 91.750 33.750 91.178 32.750 C 90.547 31.646,90.389 31.443,89.417 30.487 C 88.343 29.431,87.602 28.924,86.503 28.490 C 85.935 28.266,85.092 27.761,84.630 27.368 C 83.263 26.204,82.974 26.103,80.801 26.031 L 78.852 25.965 77.813 25.066 C 76.653 24.061,76.056 23.836,74.554 23.834 C 73.692 23.833,73.443 23.764,73.013 23.402 L 72.500 22.970 72.500 19.591 C 72.500 13.476,72.154 12.998,67.750 13.026 C 66.742 13.033,65.640 13.092,65.302 13.158 M71.157 14.469 C 71.883 15.075,71.972 15.687,71.988 20.190 C 72.003 24.520,71.883 24.304,74.378 24.482 C 76.067 24.603,76.204 24.640,76.793 25.144 C 78.351 26.477,78.679 26.612,80.620 26.710 C 82.470 26.804,83.856 27.217,84.054 27.734 C 84.182 28.066,85.489 28.927,86.083 29.070 C 87.299 29.362,88.849 30.590,89.905 32.097 C 91.104 33.806,91.167 34.146,91.167 38.957 C 91.167 43.396,91.123 43.742,90.311 45.750 C 90.125 46.208,89.825 47.107,89.642 47.746 C 89.460 48.386,89.246 48.988,89.167 49.083 C 89.087 49.179,88.838 49.743,88.614 50.337 C 88.389 50.931,88.089 51.717,87.946 52.083 C 87.803 52.450,87.490 53.425,87.251 54.250 C 87.011 55.075,86.672 56.237,86.497 56.833 C 86.322 57.429,86.054 58.346,85.902 58.870 C 85.448 60.428,86.071 60.333,76.323 60.333 C 66.941 60.333,67.064 60.347,66.739 59.287 C 66.677 59.083,66.420 58.467,66.168 57.917 C 65.917 57.367,65.435 56.279,65.097 55.500 C 63.664 52.191,59.617 44.811,58.480 43.431 C 57.511 42.256,55.334 38.535,55.237 37.890 C 54.478 32.827,57.495 31.246,61.782 34.459 C 62.121 34.714,62.482 34.838,62.782 34.804 C 63.621 34.707,63.647 34.414,63.657 24.703 C 63.669 13.193,63.355 14.000,67.820 14.000 L 70.596 14.000 71.157 14.469 M66.007 15.879 C 65.372 16.200,65.368 16.284,65.350 27.350 C 65.339 34.455,65.275 37.951,65.150 38.308 C 64.831 39.224,64.176 39.052,62.767 37.682 C 61.100 36.062,60.657 35.720,59.588 35.231 C 56.975 34.034,55.865 36.462,57.767 39.213 C 59.969 42.395,61.226 44.291,61.589 44.972 C 62.128 45.985,62.537 46.694,62.912 47.267 C 63.459 48.101,67.078 55.396,67.369 56.250 C 68.236 58.793,67.755 58.662,76.197 58.664 C 83.663 58.667,83.792 58.653,84.197 57.809 C 84.712 56.736,84.825 56.407,85.165 55.004 C 85.490 53.663,85.734 52.965,86.827 50.250 C 87.085 49.608,87.527 48.408,87.808 47.583 C 88.090 46.758,88.585 45.339,88.910 44.429 L 89.500 42.775 89.500 39.051 C 89.500 34.395,88.948 32.760,86.982 31.599 C 85.264 30.584,84.936 30.934,84.862 33.861 L 84.806 36.021 84.280 36.341 C 83.253 36.966,83.109 36.563,83.005 32.754 L 82.917 29.507 82.456 29.046 C 81.766 28.357,79.630 28.261,78.903 28.886 C 78.417 29.303,78.417 29.308,78.333 31.644 C 78.247 34.081,78.198 34.240,77.481 34.417 C 76.850 34.573,76.798 34.340,76.669 30.750 C 76.520 26.604,76.353 26.333,73.948 26.333 C 72.033 26.333,72.046 26.306,71.961 30.500 C 71.882 34.380,71.855 34.500,71.071 34.500 C 70.162 34.500,70.167 34.551,70.165 25.719 C 70.163 16.427,70.165 16.463,69.417 16.000 C 68.783 15.609,66.689 15.534,66.007 15.879 M69.079 16.825 C 69.297 17.247,69.333 18.512,69.334 25.700 C 69.335 35.469,69.369 35.651,71.200 35.468 C 72.285 35.360,72.410 34.919,72.470 30.986 L 72.524 27.496 73.035 27.232 C 73.412 27.037,73.777 26.996,74.421 27.077 C 75.926 27.265,75.890 27.179,76.017 30.858 C 76.145 34.581,76.481 35.692,77.394 35.418 C 77.498 35.387,77.788 35.316,78.039 35.262 C 78.813 35.092,79.050 34.371,79.159 31.860 C 79.273 29.227,79.354 29.096,80.798 29.209 C 82.093 29.311,82.072 29.254,82.167 32.966 C 82.268 36.978,82.460 37.483,83.886 37.495 C 85.202 37.506,85.499 36.959,85.502 34.517 C 85.507 31.487,86.225 31.308,88.167 33.856 L 88.583 34.403 88.635 38.883 L 88.687 43.364 88.196 44.390 C 87.926 44.955,87.653 45.657,87.591 45.951 C 87.528 46.245,87.341 46.770,87.175 47.118 C 87.008 47.466,86.818 48.012,86.752 48.333 C 86.686 48.654,86.530 49.142,86.407 49.417 C 86.283 49.692,86.035 50.292,85.856 50.750 C 85.677 51.208,85.412 51.808,85.266 52.083 C 85.121 52.358,85.002 52.678,85.001 52.795 C 85.000 52.911,84.825 53.511,84.612 54.128 C 84.398 54.745,84.123 55.727,84.002 56.310 C 83.634 58.067,83.946 57.999,76.295 57.999 C 69.065 58.000,68.631 57.944,68.440 56.992 C 68.219 55.886,63.298 46.119,61.894 43.999 C 61.631 43.603,61.042 42.701,60.583 41.996 C 60.125 41.290,59.450 40.281,59.083 39.753 C 55.881 35.141,58.064 34.124,62.286 38.261 C 63.708 39.655,63.749 39.681,64.476 39.633 C 65.994 39.531,65.904 40.222,66.000 27.839 C 66.097 15.317,65.940 16.333,67.772 16.333 C 68.769 16.333,68.838 16.359,69.079 16.825 M195.667 24.503 C 193.426 24.775,189.968 25.886,189.500 26.484 C 189.454 26.543,189.204 26.726,188.945 26.892 C 187.551 27.780,185.553 30.290,185.047 31.788 C 184.900 32.225,184.682 32.735,184.562 32.920 C 183.567 34.464,183.626 42.133,184.650 44.381 C 184.843 44.803,185.000 45.218,185.000 45.303 C 185.000 45.972,188.634 50.333,189.191 50.333 C 189.261 50.333,189.681 50.547,190.123 50.808 C 195.663 54.074,205.026 52.407,208.422 47.550 C 210.883 44.029,210.437 43.167,206.155 43.167 C 202.915 43.167,202.783 43.203,201.441 44.445 C 198.904 46.793,194.875 46.451,193.266 43.750 C 192.602 42.637,192.445 41.793,192.772 41.107 L 193.051 40.522 201.353 40.469 C 211.315 40.406,210.254 40.757,210.241 37.535 C 210.207 29.233,203.814 23.516,195.667 24.503 M224.750 24.441 C 222.199 24.708,218.728 25.767,217.644 26.611 C 215.648 28.162,214.000 30.769,214.000 32.374 C 214.000 33.628,214.113 33.667,217.763 33.666 C 221.292 33.665,221.617 33.579,222.362 32.444 C 224.150 29.716,229.074 30.684,229.193 33.787 C 229.249 35.268,228.954 35.435,226.000 35.588 C 223.898 35.697,219.223 36.360,218.427 36.663 C 214.705 38.078,213.227 39.669,212.644 42.885 C 211.247 50.601,222.113 55.359,228.205 49.700 C 228.734 49.208,229.333 49.510,229.333 50.268 C 229.333 51.675,229.806 51.833,233.989 51.833 C 237.162 51.833,237.497 51.806,237.857 51.514 L 238.250 51.196 238.245 41.723 L 238.240 32.250 237.783 31.095 C 236.016 26.631,230.540 23.835,224.750 24.441 M178.362 25.012 C 177.654 25.151,176.109 26.118,175.718 26.667 C 175.451 27.041,174.332 27.887,174.233 27.789 C 174.190 27.746,174.080 27.243,173.988 26.670 C 173.724 25.034,173.861 25.083,169.561 25.083 C 166.043 25.083,165.834 25.101,165.596 25.417 C 165.208 25.930,165.205 50.910,165.593 51.463 C 165.987 52.026,173.257 52.044,173.766 51.483 C 174.065 51.153,174.089 50.705,174.176 43.858 C 174.266 36.844,174.283 36.545,174.648 35.500 C 175.453 33.202,177.466 32.075,180.555 32.191 C 182.473 32.263,182.492 32.227,182.496 28.530 C 182.500 25.422,182.479 25.341,181.585 25.001 C 181.068 24.804,179.388 24.810,178.362 25.012 M200.167 25.404 C 203.754 25.986,207.448 28.771,208.254 31.500 C 208.322 31.729,208.513 32.110,208.679 32.346 C 209.005 32.809,209.653 36.043,209.780 37.833 C 209.849 38.826,209.819 38.955,209.421 39.375 L 208.987 39.833 201.001 39.833 C 191.825 39.833,191.833 39.832,191.833 41.465 C 191.833 46.130,198.612 48.496,201.868 44.967 C 202.788 43.969,203.218 43.853,206.000 43.853 C 209.083 43.852,209.640 44.156,208.946 45.460 C 208.813 45.711,208.546 46.217,208.352 46.583 C 207.949 47.348,206.182 49.333,205.904 49.333 C 205.802 49.333,205.584 49.481,205.421 49.662 C 205.257 49.843,204.964 50.038,204.770 50.095 C 204.576 50.152,203.961 50.416,203.403 50.683 C 200.311 52.160,194.278 52.105,191.039 50.569 C 189.813 49.988,188.167 48.905,188.167 48.679 C 188.167 48.612,187.979 48.456,187.750 48.333 C 187.521 48.211,187.333 48.021,187.333 47.911 C 187.333 47.801,187.109 47.458,186.836 47.148 C 186.562 46.837,186.256 46.340,186.156 46.042 C 186.056 45.744,185.912 45.500,185.836 45.500 C 185.488 45.500,184.534 41.740,184.440 40.000 C 183.880 29.575,190.129 23.775,200.167 25.404 M229.586 25.402 C 230.321 25.532,231.146 25.750,231.419 25.888 C 231.693 26.026,232.479 26.415,233.167 26.753 C 237.248 28.758,237.667 30.217,237.667 42.429 L 237.667 50.814 237.296 51.074 C 236.993 51.286,236.398 51.330,234.005 51.317 C 230.171 51.295,230.292 51.337,230.084 49.972 C 229.783 48.003,229.006 47.766,227.604 49.216 C 223.467 53.493,214.341 51.360,213.308 45.874 C 212.201 39.997,216.075 36.820,224.833 36.423 C 229.408 36.215,230.000 35.956,230.000 34.158 C 230.000 30.250,224.442 28.896,221.678 32.130 L 221.006 32.917 218.154 32.973 C 215.448 33.026,215.283 33.011,214.931 32.680 L 214.559 32.331 214.930 31.193 C 215.276 30.133,216.219 28.500,216.572 28.351 C 216.657 28.315,216.888 28.112,217.084 27.900 C 217.550 27.398,219.098 26.334,219.371 26.330 C 219.488 26.328,219.921 26.170,220.333 25.980 C 221.956 25.230,226.868 24.924,229.586 25.402 M181.728 25.661 C 182.002 25.937,181.956 31.155,181.677 31.327 C 181.564 31.397,180.670 31.492,179.692 31.539 C 176.939 31.669,175.017 32.788,174.139 34.773 C 173.621 35.946,173.511 37.620,173.505 44.425 L 173.500 50.933 172.947 51.133 C 172.236 51.390,167.085 51.404,166.358 51.150 L 165.833 50.967 165.833 38.410 C 165.833 28.547,165.878 25.824,166.042 25.718 C 166.156 25.644,167.650 25.559,169.362 25.529 C 173.059 25.464,173.047 25.459,173.233 27.184 C 173.459 29.281,174.011 30.102,174.616 29.242 C 174.782 29.008,175.142 28.524,175.417 28.167 C 175.692 27.810,176.047 27.332,176.206 27.106 C 177.177 25.722,180.834 24.765,181.728 25.661 M195.042 30.699 C 193.081 31.359,191.496 34.479,192.597 35.513 L 193.027 35.917 197.250 35.917 L 201.473 35.917 201.903 35.513 C 202.546 34.909,202.417 33.364,201.651 32.482 C 201.460 32.263,201.254 32.004,201.194 31.908 C 200.471 30.759,196.932 30.063,195.042 30.699 M199.490 31.451 C 200.886 32.269,201.778 33.644,201.525 34.589 C 201.346 35.258,201.091 35.300,197.250 35.300 C 192.899 35.300,192.433 35.111,193.066 33.601 C 194.068 31.210,197.257 30.143,199.490 31.451 M225.442 40.015 C 221.625 40.330,219.693 42.530,221.110 44.948 C 223.107 48.355,229.615 46.369,229.950 42.250 C 230.136 39.968,229.548 39.677,225.442 40.015 M228.781 40.862 C 230.013 42.020,228.508 45.126,226.445 45.681 C 222.748 46.677,219.871 44.080,222.184 41.835 C 222.887 41.154,223.099 41.096,226.333 40.701 C 228.251 40.467,228.368 40.474,228.781 40.862 M327.977 42.485 C 327.585 42.802,327.583 42.820,327.534 46.971 L 327.484 51.138 327.923 51.545 C 328.649 52.219,335.606 52.329,336.800 51.686 C 337.800 51.147,337.831 43.275,336.837 42.469 C 336.252 41.996,328.564 42.010,327.977 42.485 M335.994 43.046 C 336.770 43.439,337.070 50.337,336.343 51.064 C 335.931 51.476,328.898 51.566,328.416 51.166 C 328.082 50.889,328.044 43.692,328.373 43.164 C 328.629 42.756,335.218 42.653,335.994 43.046 " stroke="none" fill="#8c9aa0" fill-rule="evenodd"></path><path id="path4" d="M144.333 38.250 C 144.333 72.139,144.362 76.500,144.583 76.500 C 144.805 76.500,144.833 72.139,144.833 38.250 C 144.833 4.361,144.805 0.000,144.583 0.000 C 144.362 0.000,144.333 4.361,144.333 38.250 M344.937 13.746 C 341.741 14.652,340.756 18.595,343.134 20.965 C 345.845 23.668,350.654 21.721,350.661 17.917 C 350.667 14.955,347.868 12.916,344.937 13.746 M66.003 14.280 C 65.213 14.344,65.015 14.434,64.544 14.948 L 64.000 15.542 63.999 24.229 C 63.998 36.136,63.865 36.618,61.179 34.494 C 60.719 34.131,60.275 33.833,60.193 33.833 C 60.110 33.833,59.684 33.675,59.247 33.481 C 58.309 33.067,56.875 33.102,56.426 33.550 C 56.274 33.702,56.024 33.897,55.870 33.983 C 55.450 34.218,55.351 37.520,55.739 38.339 C 56.337 39.599,56.677 40.167,56.835 40.167 C 56.926 40.167,57.001 40.260,57.002 40.375 C 57.003 40.490,57.265 40.913,57.585 41.315 C 57.905 41.718,58.167 42.143,58.167 42.262 C 58.167 42.380,58.263 42.575,58.381 42.696 C 58.499 42.818,58.775 43.217,58.994 43.583 C 59.213 43.950,59.494 44.362,59.617 44.500 C 59.986 44.911,60.697 46.039,61.035 46.750 C 61.210 47.117,61.607 47.867,61.919 48.417 C 62.231 48.967,62.581 49.604,62.696 49.833 C 62.812 50.063,63.069 50.512,63.269 50.833 C 63.469 51.154,63.725 51.717,63.839 52.083 C 63.954 52.450,64.143 52.807,64.261 52.876 C 64.379 52.946,64.566 53.283,64.677 53.626 C 64.788 53.969,65.056 54.587,65.273 54.999 C 65.489 55.410,65.667 55.824,65.667 55.917 C 65.667 56.010,65.846 56.424,66.066 56.836 C 66.286 57.249,66.548 57.893,66.649 58.267 C 66.849 59.009,67.215 59.507,67.781 59.807 C 68.042 59.946,70.470 60.000,76.396 60.000 L 84.648 60.000 85.083 59.625 C 85.414 59.340,85.592 58.921,85.825 57.871 C 85.994 57.113,86.217 56.390,86.321 56.265 C 86.424 56.141,86.618 55.419,86.751 54.661 C 86.884 53.904,87.095 53.164,87.219 53.017 C 87.344 52.870,87.537 52.325,87.649 51.805 C 87.760 51.285,87.956 50.772,88.085 50.666 C 88.213 50.559,88.441 50.047,88.591 49.528 C 88.740 49.008,88.961 48.471,89.081 48.333 C 89.201 48.196,89.388 47.647,89.497 47.113 C 89.606 46.579,89.895 45.758,90.138 45.289 C 90.925 43.772,90.989 34.298,90.219 33.216 C 90.053 32.982,89.801 32.573,89.660 32.308 C 89.073 31.201,87.010 29.633,85.583 29.209 C 85.216 29.100,84.579 28.702,84.166 28.323 C 82.892 27.153,82.827 27.129,80.704 27.041 C 78.632 26.956,77.958 26.729,77.291 25.895 C 76.727 25.189,75.535 24.758,73.878 24.661 C 71.652 24.532,71.676 24.594,71.671 19.162 L 71.667 15.407 71.109 14.881 C 70.513 14.319,68.494 14.081,66.003 14.280 M347.445 14.829 C 351.529 16.265,349.675 22.015,345.395 21.185 C 342.800 20.683,341.913 16.278,344.194 15.225 C 346.036 14.375,346.122 14.364,347.445 14.829 M69.190 15.504 C 70.297 15.811,70.242 15.347,70.333 25.032 C 70.423 34.497,70.396 34.235,71.250 34.126 C 71.568 34.085,71.587 33.923,71.674 30.500 C 71.724 28.529,71.823 26.792,71.894 26.640 C 72.334 25.703,75.325 25.747,76.283 26.705 L 76.902 27.324 76.961 30.454 C 77.032 34.167,77.051 34.259,77.595 33.583 C 77.950 33.144,77.999 32.912,78.003 31.667 C 78.013 28.754,78.427 28.166,80.468 28.167 C 83.048 28.169,83.396 28.699,83.466 32.741 C 83.523 35.992,83.565 36.335,83.868 36.032 C 83.972 35.928,84.116 34.980,84.186 33.927 C 84.358 31.375,84.657 30.833,85.895 30.833 C 86.991 30.833,88.373 32.068,89.300 33.877 L 89.833 34.917 89.828 39.167 C 89.823 43.339,89.815 43.432,89.413 44.250 C 89.188 44.708,89.002 45.181,89.002 45.300 C 89.001 45.419,88.847 45.831,88.660 46.216 C 88.473 46.602,88.244 47.254,88.152 47.667 C 88.060 48.079,87.850 48.717,87.686 49.083 C 87.190 50.189,86.180 52.883,86.060 53.417 C 85.998 53.692,85.854 54.067,85.739 54.250 C 85.625 54.433,85.411 55.176,85.264 55.901 C 84.958 57.409,84.264 58.684,83.656 58.853 C 82.967 59.046,69.272 59.020,68.733 58.825 C 68.142 58.611,67.418 57.603,67.161 56.636 C 67.056 56.240,66.835 55.692,66.672 55.417 C 66.508 55.142,66.280 54.625,66.166 54.269 C 66.052 53.913,65.784 53.363,65.570 53.048 C 65.356 52.733,65.130 52.312,65.068 52.112 C 65.006 51.913,64.907 51.712,64.848 51.667 C 64.705 51.555,63.394 48.847,63.255 48.375 C 63.194 48.169,63.076 48.000,62.992 48.000 C 62.909 48.000,62.670 47.695,62.462 47.322 C 62.254 46.950,61.858 46.245,61.583 45.756 C 61.308 45.268,60.905 44.541,60.686 44.142 C 60.467 43.743,60.241 43.379,60.183 43.333 C 60.090 43.260,58.545 41.018,57.815 39.899 C 57.668 39.673,57.432 39.397,57.292 39.286 C 56.611 38.746,56.344 35.946,56.895 35.127 C 57.408 34.365,59.342 34.173,59.755 34.842 C 59.811 34.932,60.110 35.111,60.419 35.240 C 60.729 35.370,61.550 36.018,62.243 36.682 C 63.931 38.297,64.047 38.371,64.571 38.171 L 65.000 38.008 65.020 27.546 C 65.039 17.277,65.064 16.563,65.432 15.943 C 65.752 15.402,67.915 15.150,69.190 15.504 M195.072 23.843 C 193.690 23.977,191.905 24.416,191.755 24.659 C 191.708 24.734,191.420 24.842,191.115 24.900 C 190.809 24.957,190.306 25.191,189.997 25.419 C 189.688 25.647,189.340 25.833,189.224 25.833 C 188.860 25.833,185.667 28.905,185.667 29.256 C 185.667 29.362,185.519 29.582,185.340 29.744 C 185.160 29.907,184.925 30.312,184.819 30.645 C 184.713 30.978,184.481 31.409,184.303 31.604 C 184.107 31.820,183.922 32.376,183.830 33.025 C 183.747 33.612,183.545 34.352,183.381 34.671 C 182.933 35.543,182.937 41.648,183.386 42.471 C 183.552 42.776,183.755 43.433,183.836 43.930 C 183.917 44.428,184.096 45.041,184.233 45.293 C 184.371 45.544,184.570 45.938,184.676 46.167 C 185.447 47.834,187.559 50.208,188.687 50.675 C 188.975 50.794,189.384 51.066,189.597 51.279 C 189.810 51.492,190.106 51.667,190.254 51.667 C 190.403 51.667,190.837 51.848,191.220 52.070 C 191.603 52.292,192.292 52.524,192.750 52.584 C 193.208 52.645,193.842 52.812,194.159 52.955 C 194.977 53.324,198.584 53.333,199.833 52.969 C 200.338 52.823,201.192 52.655,201.733 52.597 C 202.641 52.499,203.069 52.334,204.917 51.365 C 205.283 51.172,205.902 50.864,206.292 50.680 C 206.681 50.496,207.000 50.265,207.000 50.167 C 207.000 50.069,207.135 49.935,207.301 49.870 C 207.657 49.728,208.833 48.451,208.833 48.206 C 208.833 48.112,208.927 47.999,209.042 47.954 C 209.579 47.743,210.531 45.507,210.558 44.395 C 210.599 42.656,210.627 42.667,205.960 42.667 L 202.123 42.667 201.256 43.555 C 200.780 44.043,200.283 44.494,200.153 44.557 C 200.023 44.619,199.692 44.814,199.417 44.990 C 198.604 45.509,196.411 45.466,195.667 44.917 C 195.356 44.688,195.037 44.500,194.957 44.500 C 194.492 44.500,193.500 42.796,193.500 41.999 C 193.500 41.321,193.348 41.333,201.912 41.333 C 211.033 41.333,210.444 41.440,210.692 39.737 C 210.982 37.746,210.599 32.972,210.070 32.000 C 209.946 31.771,209.729 31.321,209.588 31.000 C 209.217 30.151,208.335 28.771,208.066 28.617 C 207.938 28.543,207.833 28.392,207.833 28.280 C 207.833 28.168,207.519 27.815,207.134 27.496 C 206.749 27.177,206.232 26.710,205.984 26.458 C 205.736 26.206,205.462 26.000,205.375 26.000 C 205.288 26.000,204.887 25.776,204.483 25.503 C 204.080 25.230,203.487 24.957,203.167 24.898 C 202.846 24.838,202.506 24.730,202.413 24.656 C 201.988 24.322,200.523 23.973,198.957 23.832 C 197.048 23.660,196.954 23.660,195.072 23.843 M223.667 23.840 C 222.887 23.910,221.800 24.126,221.250 24.321 C 220.700 24.516,219.904 24.773,219.482 24.891 C 219.059 25.009,218.505 25.269,218.251 25.470 C 217.997 25.670,217.687 25.833,217.564 25.833 C 217.440 25.833,217.103 26.040,216.815 26.292 C 213.312 29.358,212.116 33.299,214.399 34.253 C 215.108 34.550,221.075 34.617,221.252 34.331 C 221.309 34.238,221.607 34.057,221.915 33.928 C 222.222 33.800,222.567 33.520,222.681 33.307 C 223.989 30.862,228.500 31.256,228.500 33.815 C 228.500 34.491,226.814 34.849,222.178 35.161 C 220.245 35.290,219.437 35.414,218.928 35.657 C 218.555 35.835,218.025 36.033,217.750 36.098 C 216.126 36.478,213.391 38.570,212.884 39.820 C 212.750 40.148,212.478 40.754,212.279 41.167 C 211.690 42.386,211.744 45.727,212.375 47.031 C 212.627 47.553,212.833 48.046,212.833 48.127 C 212.833 48.209,213.021 48.451,213.250 48.667 C 213.479 48.882,213.667 49.148,213.667 49.258 C 213.667 49.368,214.023 49.767,214.458 50.145 C 214.894 50.523,215.400 50.972,215.583 51.144 C 215.767 51.315,216.104 51.512,216.333 51.582 C 216.563 51.653,216.964 51.861,217.226 52.046 C 219.208 53.442,226.486 52.760,227.459 51.087 C 227.792 50.515,228.621 50.620,228.739 51.249 C 228.957 52.411,229.324 52.499,233.946 52.499 L 237.976 52.500 238.327 52.053 C 238.677 51.608,238.678 51.567,238.631 41.247 L 238.583 30.888 238.125 30.227 C 237.873 29.863,237.667 29.441,237.667 29.289 C 237.667 28.746,235.276 26.277,234.333 25.846 C 233.921 25.658,233.322 25.353,233.003 25.169 C 232.683 24.984,232.306 24.833,232.165 24.833 C 232.023 24.833,231.760 24.735,231.579 24.614 C 230.453 23.863,227.085 23.534,223.667 23.840 M178.254 24.266 C 177.890 24.399,177.518 24.582,177.429 24.671 C 177.340 24.760,177.139 24.833,176.982 24.833 C 176.826 24.833,176.384 25.096,176.000 25.417 C 175.161 26.117,175.384 26.138,174.469 25.274 C 173.502 24.361,173.350 24.333,169.236 24.333 L 165.847 24.333 165.171 24.977 L 164.494 25.621 164.539 38.550 L 164.583 51.478 165.073 51.989 L 165.562 52.500 169.637 52.500 C 173.802 52.500,174.092 52.460,174.865 51.778 C 174.883 51.763,174.939 48.135,174.990 43.718 C 175.081 35.859,175.091 35.678,175.430 35.363 C 175.620 35.185,175.873 34.806,175.992 34.520 C 176.110 34.234,176.305 34.000,176.424 34.000 C 176.543 34.000,176.886 33.794,177.185 33.542 C 177.709 33.100,177.816 33.080,180.073 33.000 C 183.528 32.877,183.333 33.135,183.333 28.686 L 183.333 25.399 182.792 24.886 C 181.802 23.949,179.849 23.682,178.254 24.266 M199.750 24.404 C 203.173 25.193,204.462 25.778,206.246 27.352 C 207.892 28.804,209.023 30.566,209.869 33.000 C 210.311 34.271,210.371 34.692,210.452 37.092 L 210.541 39.767 210.119 40.258 L 209.696 40.750 201.640 40.833 C 197.209 40.879,193.451 40.981,193.290 41.060 C 192.677 41.360,192.875 43.079,193.592 43.674 C 193.725 43.784,193.833 43.968,193.833 44.083 C 193.833 44.199,194.255 44.583,194.771 44.938 L 195.709 45.583 197.653 45.583 L 199.597 45.583 200.340 45.000 C 200.749 44.679,201.346 44.143,201.666 43.809 C 202.517 42.924,203.248 42.780,206.417 42.876 C 210.046 42.985,210.488 43.233,210.036 44.907 C 209.068 48.502,205.608 51.380,201.083 52.356 C 199.534 52.690,194.323 52.650,193.167 52.296 C 191.528 51.793,190.245 51.258,189.762 50.875 C 189.501 50.669,189.207 50.500,189.108 50.500 C 189.009 50.500,188.776 50.352,188.589 50.171 C 188.403 49.990,187.971 49.610,187.630 49.325 C 186.793 48.627,185.210 46.497,184.923 45.683 C 184.794 45.320,184.578 44.849,184.441 44.637 C 184.303 44.424,184.142 43.950,184.081 43.583 C 184.021 43.217,183.828 42.144,183.652 41.200 C 183.238 38.972,183.249 38.375,183.757 35.427 C 184.162 33.069,184.332 32.561,185.369 30.583 C 186.295 28.818,188.374 26.687,189.801 26.040 C 190.140 25.886,190.608 25.633,190.841 25.476 C 191.215 25.226,192.904 24.721,194.667 24.333 C 195.647 24.118,198.691 24.160,199.750 24.404 M229.172 24.415 C 229.673 24.552,230.446 24.747,230.890 24.849 C 231.719 25.039,233.975 26.100,234.935 26.751 C 235.386 27.058,236.014 27.725,237.001 28.948 C 237.088 29.057,237.443 29.732,237.788 30.448 L 238.417 31.750 238.471 41.167 C 238.509 47.711,238.469 50.772,238.341 51.203 C 238.072 52.108,237.587 52.201,233.471 52.137 C 229.700 52.078,229.366 51.985,229.096 50.908 C 229.042 50.692,228.920 50.312,228.826 50.065 L 228.655 49.615 228.203 50.025 C 226.597 51.478,223.983 52.492,221.833 52.497 C 220.786 52.500,218.222 52.082,217.939 51.862 C 217.835 51.781,217.525 51.638,217.250 51.545 C 214.220 50.512,211.556 45.862,212.307 42.917 C 212.980 40.275,213.426 39.445,214.772 38.330 C 215.912 37.385,218.068 36.399,219.702 36.074 C 220.462 35.923,221.391 35.737,221.767 35.659 C 222.143 35.582,223.793 35.440,225.434 35.343 C 228.931 35.136,228.941 35.130,228.834 33.584 C 228.652 30.948,223.901 30.160,222.611 32.553 C 221.970 33.742,221.627 33.834,217.823 33.831 C 214.240 33.828,214.173 33.817,213.840 33.185 C 212.610 30.851,217.163 25.531,220.917 24.915 C 221.283 24.855,221.921 24.703,222.333 24.579 C 223.903 24.103,227.697 24.013,229.172 24.415 M283.633 24.330 C 283.018 24.408,282.427 24.526,282.319 24.592 C 282.211 24.659,281.607 24.812,280.977 24.932 C 276.985 25.693,273.500 29.188,273.500 32.431 C 273.500 33.736,273.789 33.833,277.688 33.833 L 280.997 33.833 281.456 33.292 C 283.009 31.459,283.802 31.003,285.438 31.001 C 287.590 30.999,289.215 32.736,288.692 34.482 C 288.461 35.253,288.420 35.264,285.250 35.420 C 283.032 35.528,282.480 35.599,279.581 36.145 C 273.583 37.275,270.374 42.189,272.515 46.964 C 274.961 52.422,281.716 54.060,287.110 50.504 C 288.503 49.585,288.833 49.551,288.833 50.322 C 288.833 50.643,289.018 51.032,289.351 51.411 L 289.868 52.000 293.447 52.000 L 297.026 52.000 297.513 51.513 L 298.000 51.026 298.000 42.111 C 298.000 30.666,297.927 30.222,295.657 27.803 C 294.616 26.695,292.140 25.333,290.333 24.877 C 289.829 24.749,289.154 24.578,288.833 24.496 C 287.944 24.270,284.887 24.172,283.633 24.330 M71.950 25.173 C 72.113 25.562,71.778 26.333,71.445 26.333 C 71.272 26.333,71.144 25.316,71.254 24.815 C 71.380 24.241,71.607 24.358,71.950 25.173 M365.000 24.524 C 364.679 24.611,363.908 24.787,363.286 24.917 C 362.664 25.046,361.951 25.294,361.703 25.467 C 361.454 25.641,361.010 25.864,360.717 25.963 C 358.514 26.709,355.832 30.030,354.697 33.417 C 354.017 35.445,354.015 41.542,354.693 43.583 C 356.161 48.000,359.017 50.790,363.417 52.106 C 366.272 52.960,370.790 52.759,373.767 51.646 C 376.062 50.788,378.959 48.389,379.686 46.744 C 379.864 46.343,380.077 45.972,380.159 45.922 C 380.241 45.871,380.435 45.437,380.589 44.956 C 380.744 44.476,380.970 43.925,381.091 43.731 C 381.307 43.386,381.543 41.906,381.754 39.578 C 381.914 37.810,381.549 34.463,381.054 33.167 C 380.827 32.571,380.560 31.858,380.460 31.583 C 380.360 31.308,380.187 30.971,380.076 30.833 C 379.965 30.696,379.757 30.358,379.614 30.083 C 378.543 28.015,375.035 25.470,372.500 24.921 C 371.904 24.792,371.117 24.608,370.750 24.514 C 369.930 24.302,365.799 24.309,365.000 24.524 M181.534 24.696 C 182.789 25.073,182.866 25.321,182.804 28.784 C 182.735 32.677,182.803 32.577,180.204 32.598 C 174.978 32.640,174.504 33.653,174.501 44.800 C 174.500 52.809,174.943 52.167,169.421 52.167 L 165.891 52.167 165.487 51.737 L 165.083 51.306 165.083 38.388 L 165.083 25.471 165.490 25.141 C 165.874 24.830,166.117 24.814,169.714 24.864 C 173.906 24.922,174.167 24.994,174.167 26.088 C 174.167 26.774,174.314 26.945,174.840 26.868 C 175.111 26.828,175.333 26.731,175.333 26.653 C 175.333 25.529,179.706 24.149,181.534 24.696 M258.476 24.579 C 258.432 24.623,257.839 24.737,257.157 24.833 C 255.603 25.050,253.899 25.869,252.710 26.970 C 251.685 27.919,251.399 27.813,251.197 26.409 C 250.991 24.978,250.796 24.917,246.422 24.917 C 242.998 24.917,242.674 24.942,242.351 25.234 L 242.000 25.552 242.002 42.567 C 242.004 55.740,242.051 59.674,242.211 59.984 C 242.585 60.714,243.432 60.863,246.833 60.798 C 251.499 60.709,251.230 61.084,251.308 54.556 C 251.378 48.693,251.286 48.909,253.125 50.311 C 259.156 54.911,267.808 51.615,269.349 44.131 C 269.449 43.646,269.649 42.837,269.794 42.333 C 270.131 41.163,270.181 35.930,269.865 34.917 C 269.751 34.550,269.552 33.711,269.422 33.052 C 268.830 30.040,266.786 27.161,264.250 25.768 C 262.837 24.991,258.879 24.177,258.476 24.579 M300.774 24.996 C 299.737 25.196,299.562 26.275,300.305 27.894 C 300.479 28.273,301.088 30.046,301.658 31.833 C 302.696 35.082,303.409 37.179,304.012 38.752 C 304.188 39.212,304.479 40.075,304.657 40.669 C 305.158 42.335,305.935 44.563,306.141 44.925 C 306.244 45.104,306.438 45.663,306.573 46.167 C 306.708 46.671,307.121 47.946,307.492 49.000 C 308.999 53.287,308.349 54.569,304.545 54.818 C 302.248 54.969,302.250 54.966,302.250 58.353 L 302.250 61.029 302.705 61.421 C 304.010 62.543,310.987 61.799,313.778 60.240 C 316.949 58.469,319.309 54.896,320.663 49.815 C 321.064 48.311,321.962 45.516,322.162 45.147 C 322.243 44.999,322.393 44.549,322.496 44.147 C 322.842 42.796,324.570 37.370,325.011 36.250 C 325.083 36.067,325.451 34.867,325.829 33.583 C 326.206 32.300,326.584 31.124,326.668 30.971 C 326.752 30.817,327.017 30.029,327.256 29.221 C 327.496 28.412,327.809 27.364,327.952 26.893 C 328.499 25.087,328.304 24.970,324.583 24.877 C 319.733 24.755,318.672 25.034,318.405 26.500 C 318.346 26.821,318.124 27.796,317.910 28.667 C 317.696 29.537,317.100 32.050,316.585 34.250 C 316.071 36.450,315.510 38.775,315.339 39.417 C 315.168 40.058,314.937 41.052,314.826 41.625 C 314.371 43.966,313.680 42.452,312.334 36.167 C 312.147 35.296,311.885 34.246,311.750 33.833 C 311.616 33.421,311.384 32.483,311.234 31.750 C 311.085 31.017,310.900 30.338,310.822 30.241 C 310.744 30.144,310.564 29.402,310.423 28.593 C 309.930 25.768,309.631 25.211,308.486 24.990 C 307.594 24.818,301.673 24.822,300.774 24.996 M342.006 25.365 C 341.671 25.725,341.667 25.879,341.667 38.456 L 341.667 51.182 342.076 51.591 L 342.485 52.000 346.220 52.000 C 349.746 52.000,349.980 51.981,350.394 51.655 L 350.833 51.309 350.833 38.414 L 350.833 25.519 350.463 25.259 C 349.793 24.790,342.457 24.882,342.006 25.365 M288.583 25.403 C 289.592 25.525,290.642 25.747,290.917 25.895 C 291.192 26.044,291.679 26.278,292.000 26.416 C 292.783 26.753,293.997 27.447,294.321 27.744 C 295.318 28.658,295.961 29.500,296.195 30.196 C 296.297 30.501,296.501 30.889,296.649 31.059 C 297.121 31.604,297.153 50.740,296.682 50.992 C 296.461 51.110,295.241 51.158,293.212 51.129 L 290.083 51.083 289.968 50.036 C 289.719 47.782,288.913 47.555,287.228 49.263 C 286.814 49.684,286.199 50.141,285.862 50.280 C 285.526 50.419,285.137 50.625,285.000 50.738 C 283.946 51.600,278.220 51.516,277.202 50.624 C 277.045 50.486,276.736 50.318,276.515 50.250 C 274.720 49.701,273.083 46.721,273.083 44.000 L 273.083 41.917 273.741 40.841 C 275.431 38.077,278.765 36.777,284.877 36.498 C 289.303 36.296,289.833 36.042,289.833 34.124 C 289.833 31.606,288.381 30.412,285.333 30.426 C 283.003 30.436,282.075 30.862,281.093 32.375 L 280.795 32.833 277.950 32.833 C 275.307 32.833,275.079 32.809,274.739 32.490 L 274.374 32.147 274.797 30.948 C 275.163 29.915,275.698 29.042,276.350 28.417 C 276.446 28.325,276.693 28.085,276.899 27.882 C 277.490 27.304,278.965 26.333,279.254 26.333 C 279.398 26.333,279.831 26.175,280.216 25.983 C 281.583 25.298,285.484 25.028,288.583 25.403 M370.057 25.354 C 371.471 25.485,372.371 25.661,373.037 25.938 C 373.561 26.155,374.069 26.333,374.166 26.333 C 374.462 26.333,376.523 27.789,377.250 28.512 C 377.342 28.603,377.665 28.957,377.969 29.297 C 378.273 29.638,378.658 30.067,378.826 30.250 C 378.993 30.433,379.184 30.771,379.249 31.000 C 379.315 31.229,379.489 31.604,379.636 31.833 C 379.955 32.329,380.608 34.646,380.857 36.167 C 381.144 37.913,380.930 41.167,380.425 42.750 C 380.191 43.483,380.000 44.190,380.000 44.320 C 380.000 44.450,379.900 44.675,379.777 44.820 C 379.655 44.965,379.453 45.346,379.328 45.667 C 378.712 47.253,376.099 49.833,374.612 50.324 C 374.278 50.434,373.963 50.592,373.912 50.674 C 373.717 50.990,369.319 51.825,367.833 51.828 C 365.989 51.832,362.987 51.160,361.417 50.392 C 359.466 49.437,356.500 46.623,356.500 45.729 C 356.500 45.663,356.286 45.116,356.023 44.513 C 354.818 41.740,354.462 37.842,355.171 35.178 C 355.352 34.497,355.502 33.822,355.504 33.678 C 355.506 33.534,355.729 32.967,356.000 32.417 C 356.271 31.867,356.494 31.368,356.496 31.308 C 356.502 31.150,357.540 29.633,357.949 29.184 C 358.341 28.755,358.375 28.722,359.097 28.056 C 359.734 27.468,361.555 26.333,361.861 26.333 C 361.986 26.333,362.381 26.177,362.738 25.985 C 363.153 25.763,364.029 25.559,365.153 25.422 C 367.484 25.138,367.693 25.135,370.057 25.354 M262.364 25.789 C 262.501 25.903,262.914 26.102,263.282 26.232 C 268.212 27.971,270.536 37.165,268.046 45.083 C 267.901 45.542,267.691 46.029,267.579 46.167 C 267.466 46.304,267.226 46.754,267.045 47.167 C 266.863 47.579,266.554 48.060,266.358 48.234 C 266.161 48.409,266.000 48.636,266.000 48.740 C 266.000 48.843,265.775 49.061,265.500 49.223 C 265.225 49.386,265.000 49.583,265.000 49.661 C 265.000 50.394,261.726 51.380,259.313 51.373 C 256.205 51.365,254.732 50.783,252.896 48.836 C 250.471 46.266,250.264 46.644,250.200 53.741 L 250.150 59.306 249.634 59.487 C 248.732 59.801,243.421 59.723,243.145 59.391 C 242.849 59.034,242.712 27.403,243.002 26.324 L 243.180 25.667 246.582 25.667 L 249.985 25.667 250.068 26.208 C 250.113 26.506,250.184 27.265,250.224 27.894 C 250.328 29.501,250.664 29.845,251.644 29.345 C 252.023 29.151,252.333 28.932,252.333 28.856 C 252.333 28.617,254.696 26.333,254.944 26.333 C 255.075 26.333,255.535 26.142,255.966 25.909 C 256.861 25.424,261.813 25.332,262.364 25.789 M308.710 25.958 C 308.854 26.119,309.022 26.550,309.082 26.917 C 309.143 27.283,309.339 28.056,309.518 28.635 C 309.697 29.213,309.957 30.300,310.096 31.051 C 310.234 31.802,310.487 32.904,310.658 33.500 C 311.132 35.147,311.669 37.432,311.932 38.917 C 312.062 39.650,312.276 40.550,312.408 40.917 C 312.540 41.283,312.726 42.025,312.823 42.566 C 313.133 44.306,314.079 45.266,314.822 44.594 C 315.214 44.239,315.722 42.655,316.081 40.667 C 316.238 39.796,316.466 38.813,316.589 38.482 C 316.711 38.152,316.926 37.276,317.067 36.536 C 317.207 35.796,317.467 34.754,317.644 34.220 C 317.821 33.687,318.020 32.766,318.087 32.175 C 318.153 31.584,318.350 30.766,318.526 30.357 C 318.701 29.948,318.922 29.045,319.017 28.349 C 319.125 27.565,319.348 26.814,319.602 26.375 L 320.014 25.667 323.530 25.667 L 327.046 25.667 326.961 26.723 C 326.914 27.304,326.759 27.961,326.617 28.182 C 326.474 28.403,326.239 29.071,326.094 29.667 C 325.949 30.262,325.721 30.975,325.588 31.250 C 325.455 31.525,325.196 32.313,325.013 33.000 C 324.595 34.568,324.077 36.171,323.638 37.250 C 323.452 37.708,323.198 38.496,323.074 39.000 C 322.803 40.104,322.280 41.721,321.752 43.091 C 321.539 43.645,321.311 44.452,321.246 44.883 C 321.182 45.314,321.065 45.667,320.988 45.667 C 320.825 45.667,320.333 47.225,320.333 47.741 C 320.333 47.932,320.182 48.370,319.997 48.715 C 319.812 49.060,319.580 49.734,319.481 50.213 C 319.381 50.692,319.204 51.236,319.087 51.422 C 318.969 51.608,318.738 52.208,318.572 52.755 C 318.406 53.302,318.184 53.862,318.080 54.000 C 317.975 54.137,317.752 54.550,317.584 54.917 C 315.780 58.863,311.760 60.833,305.510 60.833 C 303.052 60.833,303.167 60.961,303.167 58.237 C 303.167 55.573,303.109 55.646,305.311 55.494 C 308.116 55.299,309.908 53.364,309.092 51.411 C 308.970 51.120,308.816 50.553,308.749 50.150 C 308.681 49.747,308.459 49.079,308.253 48.667 C 308.048 48.254,307.829 47.583,307.766 47.174 C 307.703 46.766,307.511 46.204,307.340 45.924 C 307.168 45.645,306.976 45.117,306.912 44.750 C 306.848 44.383,306.624 43.768,306.414 43.382 C 306.204 42.997,305.978 42.363,305.912 41.974 C 305.846 41.585,305.644 40.925,305.462 40.508 C 305.280 40.091,305.030 39.283,304.908 38.712 C 304.786 38.141,304.573 37.428,304.435 37.128 C 304.298 36.829,304.059 36.133,303.906 35.583 C 303.752 35.033,303.555 34.494,303.467 34.384 C 303.380 34.275,303.198 33.713,303.063 33.135 C 302.928 32.558,302.719 31.933,302.597 31.747 C 302.475 31.561,302.323 31.074,302.259 30.663 C 302.195 30.253,301.969 29.542,301.758 29.083 C 301.316 28.125,301.000 26.914,301.000 26.176 L 301.000 25.667 304.724 25.667 C 308.060 25.667,308.476 25.697,308.710 25.958 M349.741 26.037 C 349.970 26.364,350.000 27.837,350.000 38.625 L 350.000 50.842 349.572 51.004 C 349.103 51.183,343.855 51.229,343.021 51.063 L 342.500 50.958 342.500 38.683 C 342.500 27.842,342.530 26.364,342.759 26.037 C 343.012 25.676,343.100 25.667,346.250 25.667 C 349.400 25.667,349.488 25.676,349.741 26.037 M81.986 27.606 C 82.024 27.639,81.396 27.667,80.589 27.667 C 79.782 27.667,78.834 27.753,78.483 27.858 C 77.844 28.049,77.333 27.879,77.333 27.475 C 77.333 27.337,81.822 27.463,81.986 27.606 M85.056 30.169 C 85.262 30.172,84.841 30.493,84.625 30.497 C 84.556 30.499,84.506 30.219,84.513 29.875 C 84.526 29.260,84.529 29.257,84.694 29.708 C 84.786 29.960,84.949 30.168,85.056 30.169 M366.149 30.721 C 363.276 31.655,361.312 38.454,362.883 42.029 C 363.017 42.334,363.255 42.942,363.412 43.381 C 364.379 46.074,367.313 47.149,370.290 45.900 C 370.893 45.647,372.090 44.201,372.421 43.323 C 372.540 43.008,372.764 42.412,372.918 42.000 C 373.324 40.910,373.327 36.075,372.921 35.000 C 372.765 34.587,372.528 33.956,372.393 33.597 C 371.921 32.334,370.773 31.118,369.686 30.730 C 368.941 30.464,366.956 30.459,366.149 30.721 M255.167 31.153 C 255.029 31.232,254.590 31.350,254.190 31.416 C 253.265 31.568,251.451 33.201,251.159 34.143 C 251.056 34.477,250.859 35.000,250.721 35.306 C 250.338 36.156,250.136 37.941,250.258 39.380 C 250.830 46.078,257.317 48.333,260.406 42.906 C 261.440 41.089,261.565 35.879,260.611 34.333 C 260.413 34.012,260.138 33.552,260.000 33.310 C 259.583 32.577,258.222 31.524,257.540 31.409 C 257.197 31.350,256.654 31.235,256.333 31.152 C 255.625 30.970,255.487 30.970,255.167 31.153 M195.302 31.604 C 194.075 32.264,193.051 33.763,193.381 34.417 C 193.663 34.974,193.803 34.995,197.280 34.997 L 200.642 35.000 200.976 34.576 C 201.289 34.179,201.294 34.112,201.056 33.534 C 200.203 31.458,197.351 30.502,195.302 31.604 M369.500 31.672 C 371.561 32.728,373.049 37.154,372.328 40.083 C 372.238 40.450,372.051 41.263,371.914 41.891 C 370.655 47.647,364.397 46.532,363.667 40.422 C 363.075 35.461,364.324 32.344,367.333 31.274 C 367.725 31.135,368.858 31.343,369.500 31.672 M198.697 31.939 C 199.230 32.088,199.667 32.279,199.667 32.363 C 199.667 32.447,199.858 32.693,200.092 32.910 C 200.325 33.126,200.532 33.516,200.550 33.777 L 200.583 34.250 197.187 34.295 L 193.790 34.340 193.896 33.814 C 193.953 33.524,194.188 33.114,194.417 32.902 C 194.646 32.690,194.833 32.449,194.833 32.368 C 194.833 32.242,195.091 32.140,196.417 31.743 C 196.859 31.610,197.821 31.693,198.697 31.939 M256.551 31.994 C 257.157 32.093,257.717 32.311,258.051 32.578 C 258.766 33.151,259.665 34.055,259.666 34.203 C 259.666 34.269,259.857 34.740,260.090 35.249 C 260.549 36.252,260.731 40.059,260.365 41.000 C 259.086 44.291,256.973 45.562,254.319 44.637 C 251.019 43.486,250.191 36.316,253.007 33.262 C 253.393 32.843,253.806 32.500,253.924 32.500 C 254.042 32.500,254.167 32.416,254.201 32.313 C 254.236 32.210,254.561 32.068,254.924 31.999 C 255.286 31.929,255.583 31.863,255.583 31.853 C 255.583 31.843,256.019 31.907,256.551 31.994 M64.262 36.237 C 64.404 36.803,64.289 37.250,64.002 37.250 C 63.709 37.250,63.408 36.481,63.553 36.103 C 63.709 35.697,64.147 35.779,64.262 36.237 M284.100 40.023 C 280.088 40.538,278.885 44.566,282.228 46.288 C 285.893 48.177,291.234 44.089,289.648 40.610 C 289.294 39.833,287.260 39.618,284.100 40.023 M288.625 41.270 C 289.291 42.156,288.492 44.032,287.027 45.021 C 283.890 47.138,279.504 44.518,281.936 41.980 C 282.903 40.970,287.993 40.430,288.625 41.270 M224.917 41.172 C 221.962 41.447,220.720 43.298,222.378 44.956 L 223.006 45.583 224.628 45.583 C 227.179 45.583,228.658 44.480,228.803 42.467 C 228.916 40.911,228.656 40.824,224.917 41.172 M327.885 41.485 C 326.870 41.955,326.803 42.348,326.865 47.509 C 326.930 52.909,326.702 52.516,329.874 52.703 C 337.222 53.136,338.165 52.788,338.341 49.576 C 338.617 44.508,338.256 42.166,337.100 41.533 C 336.258 41.072,328.863 41.033,327.885 41.485 M228.466 42.004 C 228.510 42.383,228.346 42.850,227.781 43.954 C 227.677 44.158,227.238 44.477,226.805 44.663 C 226.373 44.849,225.973 45.076,225.916 45.167 C 225.476 45.879,222.957 45.102,222.346 44.067 L 222.004 43.487 222.421 42.827 C 222.653 42.459,222.970 42.167,223.135 42.167 C 223.299 42.167,223.516 42.084,223.618 41.982 C 224.263 41.337,228.390 41.355,228.466 42.004 M336.833 42.049 C 337.630 42.452,337.708 42.904,337.722 47.169 C 337.740 52.605,337.951 52.409,332.130 52.379 C 326.931 52.353,327.167 52.600,327.167 47.186 C 327.167 43.192,327.246 42.629,327.884 42.129 C 328.357 41.757,336.119 41.687,336.833 42.049 " stroke="none" fill="#cedad4" fill-rule="evenodd"></path></g></svg>