<svg id="svg" version="1.1" xmlns="http://www.w3.org/2000/svg" xmlns:xlink="http://www.w3.org/1999/xlink" width="400" height="364.4444444444444" viewBox="0, 0, 400,364.4444444444444"><g id="svgg"><path id="path0" d="M205.469 43.672 C 204.012 43.807,202.370 44.928,202.370 45.789 C 202.370 46.034,201.755 46.399,201.003 46.599 L 199.635 46.962 201.104 47.000 C 202.836 47.044,203.853 47.678,204.893 49.359 C 205.642 50.572,205.652 50.895,205.652 75.614 C 205.652 103.681,205.840 101.686,202.932 104.429 L 201.539 105.743 179.712 105.743 C 160.553 105.743,157.885 105.676,157.885 105.196 C 157.885 104.895,157.730 104.649,157.539 104.649 C 156.962 104.649,155.468 103.089,154.648 101.629 C 153.575 99.719,153.415 51.903,154.475 49.845 C 155.045 48.739,156.284 47.409,156.756 47.396 C 158.251 47.358,157.753 45.163,156.106 44.534 C 153.831 43.665,153.686 43.692,152.297 45.240 C 150.802 46.905,150.718 47.363,151.504 49.590 C 151.969 50.909,152.051 54.797,152.051 75.662 C 152.051 96.635,151.972 100.374,151.504 101.493 C 150.483 103.938,152.164 107.931,154.214 107.931 C 154.575 107.931,155.287 108.259,155.797 108.660 C 156.702 109.372,157.276 109.389,180.271 109.389 C 207.336 109.389,206.152 109.510,208.569 106.507 L 210.210 104.468 210.320 93.444 L 210.431 82.421 212.224 80.609 C 214.593 78.216,212.792 78.349,241.077 78.471 L 265.746 78.578 266.601 79.529 C 268.690 81.852,268.541 78.450,268.661 126.527 C 268.783 175.848,268.969 171.977,266.363 174.398 C 264.801 175.849,266.019 175.791,239.745 175.675 C 213.162 175.559,214.416 175.670,212.299 173.238 C 211.844 172.716,211.229 172.028,210.932 171.711 C 210.480 171.227,210.392 169.341,210.392 160.099 C 210.392 148.453,210.357 148.193,208.586 146.582 C 208.476 146.481,208.158 145.957,207.879 145.416 C 207.144 143.988,206.690 143.968,178.781 144.097 C 150.453 144.227,153.473 143.843,151.528 147.563 C 150.654 149.236,150.619 149.484,151.025 151.161 C 151.579 153.445,151.888 202.235,151.353 202.880 C 150.370 204.064,150.477 207.005,151.553 208.354 C 153.718 211.070,152.149 210.927,180.976 211.044 L 206.801 211.149 207.588 210.149 C 208.020 209.599,208.828 208.685,209.383 208.117 L 210.392 207.085 210.392 195.783 C 210.392 186.072,210.469 184.451,210.939 184.270 C 211.240 184.155,211.486 183.804,211.486 183.490 C 211.486 183.176,212.241 182.196,213.164 181.311 C 214.109 180.406,214.993 179.158,215.187 178.457 L 215.531 177.211 239.995 177.211 C 266.728 177.211,265.394 177.105,265.446 179.216 C 265.456 179.617,265.871 180.332,266.369 180.804 C 268.885 183.190,268.733 180.165,268.733 227.890 C 268.733 274.189,268.748 273.673,267.318 275.193 C 265.430 277.199,266.551 277.119,240.170 277.119 C 212.865 277.119,214.508 277.264,211.851 274.629 L 210.574 273.364 210.446 262.410 L 210.318 251.455 209.094 249.793 C 208.420 248.879,207.644 247.815,207.370 247.428 C 206.573 246.306,204.115 246.190,180.562 246.157 C 154.363 246.120,153.942 246.157,152.507 248.643 C 151.975 249.565,151.386 250.424,151.200 250.553 C 150.998 250.691,150.979 251.656,151.153 252.923 C 151.520 255.600,151.528 303.800,151.162 307.019 C 150.900 309.319,150.924 309.419,151.957 310.402 L 153.023 311.414 178.699 311.531 C 192.821 311.596,204.952 311.769,205.656 311.916 C 206.808 312.156,207.077 312.047,208.325 310.836 C 210.355 308.865,210.392 308.624,210.392 297.531 C 210.392 280.945,207.688 282.225,242.738 282.222 L 269.280 282.220 271.056 280.379 C 273.044 278.319,272.944 279.131,272.046 272.379 C 271.468 268.039,271.525 184.774,272.106 184.193 C 272.432 183.867,272.562 182.092,272.562 177.940 C 272.562 173.789,272.432 172.014,272.106 171.687 C 271.332 170.912,271.456 86.889,272.238 81.867 L 272.826 78.092 271.876 76.085 C 270.226 72.597,273.269 72.926,242.634 72.926 C 217.264 72.926,215.417 72.884,214.310 72.275 C 212.178 71.102,211.486 70.570,211.486 70.104 C 211.486 69.851,211.240 69.644,210.939 69.644 C 210.467 69.644,210.392 68.374,210.392 60.400 C 210.392 47.740,210.299 47.015,208.423 45.080 C 207.077 43.691,206.783 43.551,205.469 43.672 M179.143 61.167 C 178.324 62.456,177.243 63.440,176.208 63.840 C 175.192 64.233,175.152 64.780,176.117 65.087 C 176.518 65.214,176.846 65.471,176.846 65.658 C 176.846 65.845,177.051 65.999,177.302 66.001 C 179.136 66.011,179.575 68.203,179.689 77.912 C 179.781 85.692,179.881 87.147,180.327 87.147 C 180.776 87.147,180.858 85.765,180.864 78.122 C 180.869 72.397,181.037 68.298,181.324 66.910 C 182.186 62.734,180.675 58.756,179.143 61.167 M202.770 149.882 C 203.164 150.093,203.974 150.938,204.569 151.760 L 205.652 153.254 205.649 177.903 C 205.647 205.290,205.793 203.635,203.230 205.324 C 201.526 206.448,158.392 206.389,156.567 205.261 C 153.682 203.478,153.874 205.410,153.874 178.174 C 153.874 159.950,153.984 153.655,154.317 152.889 C 154.816 151.739,155.889 150.545,156.974 149.933 C 157.963 149.374,201.730 149.326,202.770 149.882 M174.587 188.089 L 173.667 189.122 174.375 190.094 C 175.252 191.297,176.049 191.318,177.141 190.166 C 178.077 189.179,177.833 188.143,176.497 187.429 C 175.571 186.933,175.638 186.910,174.587 188.089 M202.896 249.853 C 203.209 250.299,203.464 250.896,203.464 251.180 C 203.464 251.465,203.687 251.879,203.959 252.102 C 205.606 253.450,205.652 254.213,205.652 280.103 L 205.652 304.585 204.714 306.186 C 203.332 308.544,204.056 308.478,179.552 308.478 L 157.145 308.478 155.827 307.270 C 153.935 305.535,153.920 305.328,153.896 279.078 C 153.873 254.209,153.849 254.584,155.614 252.325 C 156.006 251.823,156.453 251.003,156.608 250.501 C 157.061 249.034,156.736 249.054,180.016 249.048 L 202.329 249.043 202.896 249.853 M178.304 264.462 L 176.664 264.854 178.304 265.126 C 181.219 265.608,184.868 265.513,184.868 264.955 C 184.868 264.086,181.076 263.801,178.304 264.462 M181.486 277.450 C 179.128 277.743,179.167 278.249,181.586 278.767 C 182.689 279.003,183.838 279.305,184.139 279.438 C 184.932 279.789,185.792 278.340,185.209 277.638 C 184.764 277.102,184.426 277.085,181.486 277.450 M189.012 288.241 C 189.013 290.246,189.074 291.020,189.148 289.960 C 189.222 288.901,189.221 287.260,189.146 286.314 C 189.071 285.368,189.011 286.235,189.012 288.241 " stroke="none" fill="#bdc6c3" fill-rule="evenodd"></path><path id="path1" d="M0.000 182.315 L 0.000 364.631 200.000 364.631 L 400.000 364.631 400.000 182.315 L 400.000 0.000 200.000 0.000 L 0.000 0.000 0.000 182.315 M207.592 38.881 C 209.006 39.075,209.634 39.461,211.598 41.342 C 215.156 44.751,215.132 44.636,215.132 58.166 L 215.132 69.644 243.276 69.644 C 274.775 69.644,274.712 69.640,276.311 71.974 L 277.123 73.159 277.030 177.965 C 276.938 282.131,276.933 282.777,276.208 283.743 C 274.375 286.186,276.299 286.034,244.667 286.235 C 228.924 286.335,215.839 286.550,215.588 286.712 C 215.240 286.938,215.132 289.583,215.132 297.883 C 215.132 310.659,214.930 311.853,212.535 313.199 C 211.753 313.639,210.876 314.459,210.584 315.021 C 209.427 317.260,209.840 317.230,180.211 317.221 C 150.296 317.212,151.022 317.270,149.729 314.769 C 149.428 314.187,148.546 313.290,147.769 312.776 C 145.426 311.225,145.487 312.113,145.493 279.812 C 145.500 246.765,145.322 248.802,148.483 245.540 L 150.566 243.391 180.205 243.391 C 213.386 243.391,209.941 243.124,212.673 245.913 C 214.851 248.136,214.909 248.509,215.121 261.502 C 215.227 268.053,215.451 273.550,215.618 273.717 C 215.785 273.884,226.943 274.020,240.413 274.020 L 264.904 274.020 265.178 271.285 C 265.329 269.781,265.411 249.599,265.360 226.436 L 265.269 184.321 240.201 184.227 L 215.132 184.134 215.132 195.797 C 215.132 209.284,215.108 209.409,211.962 212.462 C 208.854 215.479,210.678 215.314,180.310 215.314 C 149.757 215.314,151.641 215.492,148.497 212.322 C 145.296 209.096,145.488 211.292,145.488 177.845 C 145.488 144.992,145.372 146.533,148.056 143.719 C 151.127 140.499,148.425 140.747,180.383 140.749 C 212.184 140.750,209.312 140.507,212.306 143.449 C 214.987 146.084,214.929 145.759,215.132 159.344 L 215.314 171.559 240.093 171.559 L 264.871 171.559 265.125 170.647 C 265.446 169.493,265.462 86.935,265.142 84.230 L 264.904 82.224 240.109 82.224 L 215.314 82.224 215.132 93.892 C 214.922 107.320,215.090 106.585,211.408 110.210 L 208.907 112.671 180.625 112.671 C 149.735 112.671,150.706 112.735,149.301 110.590 C 148.968 110.082,148.166 109.202,147.519 108.634 C 145.463 106.829,145.488 107.220,145.490 75.801 C 145.492 42.556,145.260 44.946,148.821 41.495 C 151.259 39.132,151.410 39.047,153.428 38.920 C 157.220 38.681,205.880 38.646,207.592 38.881 M157.313 51.165 C 157.003 51.972,157.315 99.691,157.633 100.182 C 157.864 100.539,162.768 100.638,180.127 100.638 L 202.325 100.638 202.545 99.088 C 202.666 98.236,202.717 87.037,202.659 74.202 L 202.552 50.866 180.026 50.772 C 161.508 50.695,157.467 50.765,157.313 51.165 M182.311 56.518 C 183.164 56.518,185.607 58.497,186.509 59.918 C 187.566 61.585,187.647 88.193,186.600 89.793 C 186.249 90.329,185.962 91.019,185.962 91.327 C 185.962 91.635,185.839 91.890,185.688 91.893 C 185.538 91.896,184.880 92.370,184.227 92.946 C 183.497 93.589,182.433 94.084,181.465 94.229 C 177.095 94.884,176.174 92.402,176.131 79.854 C 176.100 70.685,176.180 70.966,173.687 71.277 C 171.630 71.534,169.553 70.959,169.553 70.133 C 169.553 69.898,169.387 69.650,169.183 69.582 C 167.620 69.061,168.830 62.352,170.488 62.352 C 170.725 62.352,171.765 61.420,172.799 60.282 C 175.627 57.165,177.997 55.980,180.629 56.365 C 181.206 56.449,181.962 56.518,182.311 56.518 M157.633 153.601 C 157.471 153.851,157.293 165.009,157.237 178.396 L 157.136 202.735 179.935 202.735 L 202.735 202.735 202.731 179.307 C 202.729 166.422,202.625 155.264,202.501 154.512 L 202.275 153.145 180.101 153.145 C 162.763 153.145,157.864 153.244,157.633 153.601 M185.213 159.026 C 190.579 159.912,193.116 163.893,192.793 170.922 C 192.527 176.721,191.827 178.485,189.435 179.395 C 188.862 179.613,188.514 180.028,188.514 180.496 C 188.514 181.778,187.462 182.937,185.553 183.758 C 183.146 184.794,183.597 185.351,187.332 185.953 C 191.176 186.573,191.841 187.252,192.136 190.854 C 192.608 196.624,192.077 196.895,180.304 196.898 C 168.479 196.901,167.833 196.599,167.758 191.020 C 167.718 188.058,168.414 186.671,170.433 185.690 C 171.353 185.243,172.106 184.642,172.106 184.355 C 172.106 183.310,173.337 181.727,174.646 181.090 C 175.639 180.607,176.128 180.048,176.536 178.930 C 176.961 177.763,177.450 177.229,178.698 176.571 C 179.983 175.892,180.421 175.399,180.857 174.141 C 181.158 173.272,181.635 172.288,181.917 171.954 C 182.369 171.418,182.289 171.202,181.242 170.121 L 180.054 168.896 178.724 169.799 C 177.992 170.296,176.937 170.793,176.379 170.905 C 175.822 171.016,175.001 171.559,174.556 172.112 C 171.845 175.475,168.988 174.450,167.872 169.714 C 166.982 165.941,167.785 163.560,170.195 162.825 C 170.649 162.687,171.247 162.134,171.525 161.596 C 172.899 158.939,178.416 157.903,185.213 159.026 M157.612 255.292 C 157.121 255.787,156.993 298.375,157.469 302.826 L 157.703 305.014 179.824 305.014 C 191.991 305.014,202.082 304.877,202.249 304.710 C 202.736 304.223,202.858 255.948,202.374 255.464 C 201.749 254.839,158.226 254.672,157.612 255.292 M186.025 260.777 C 187.093 261.013,188.403 261.506,188.935 261.871 C 189.467 262.236,190.042 262.539,190.211 262.546 C 192.366 262.626,193.855 272.505,192.298 276.395 C 191.745 277.778,191.749 277.985,192.368 279.593 C 194.227 284.419,193.062 294.302,190.492 295.522 C 189.806 295.847,189.001 296.584,188.704 297.159 C 186.810 300.823,172.106 300.033,172.106 296.267 C 172.106 295.793,170.865 295.084,169.736 294.914 C 167.777 294.619,166.664 288.952,167.973 285.933 C 169.343 282.770,175.369 282.680,175.396 285.821 C 175.403 286.684,175.659 286.866,177.908 287.607 C 180.444 288.442,180.763 288.430,183.045 287.410 L 184.321 286.839 182.964 286.238 C 182.217 285.908,181.315 285.396,180.958 285.101 C 180.602 284.807,179.695 284.288,178.943 283.948 C 178.191 283.608,177.575 283.081,177.575 282.777 C 177.575 282.473,177.267 282.224,176.891 282.224 C 176.514 282.224,176.002 281.978,175.752 281.677 C 175.502 281.376,175.098 281.130,174.853 281.130 C 174.322 281.130,173.420 279.361,172.846 277.194 C 172.567 276.141,172.166 275.527,171.622 275.320 C 167.381 273.708,166.503 264.838,170.575 264.734 C 170.836 264.727,171.273 264.185,171.547 263.530 C 172.725 260.710,179.722 259.380,186.025 260.777 M179.400 270.074 C 178.628 272.247,178.398 272.434,175.641 273.134 C 173.172 273.761,173.998 274.320,177.281 274.244 C 181.297 274.151,181.273 274.167,181.147 271.533 C 181.023 268.947,180.079 268.159,179.400 270.074 " stroke="none" fill="#3c546c" fill-rule="evenodd"></path><path id="path2" d="M155.259 42.414 C 153.609 42.828,150.957 44.749,150.957 45.530 C 150.957 45.737,150.713 46.044,150.414 46.211 C 149.939 46.477,149.868 50.211,149.859 75.584 L 149.848 104.652 151.588 106.971 C 153.271 109.216,153.400 109.305,155.557 109.705 C 157.988 110.156,200.800 110.309,204.891 109.882 L 207.154 109.645 209.229 106.951 L 211.304 104.257 211.486 93.413 C 211.691 81.222,211.626 81.500,214.692 79.615 L 216.044 78.783 240.369 78.772 L 264.695 78.760 266.167 80.292 L 267.639 81.824 267.637 126.874 L 267.636 171.923 266.380 173.291 L 265.124 174.658 240.219 174.656 C 208.347 174.653,211.729 176.371,211.537 160.084 L 211.406 148.956 210.352 147.625 C 209.772 146.893,209.298 146.191,209.298 146.064 C 209.298 145.937,208.776 145.259,208.137 144.557 L 206.977 143.282 180.517 143.382 C 153.312 143.485,152.066 143.551,152.054 144.888 C 152.052 145.059,151.537 145.962,150.908 146.893 C 149.176 149.459,149.078 151.388,149.203 180.382 C 149.329 209.438,149.113 206.957,151.760 209.766 C 154.014 212.156,152.454 212.022,179.398 212.144 C 206.908 212.268,206.663 212.281,208.102 210.682 C 208.659 210.062,209.649 209.000,210.301 208.321 L 211.486 207.086 211.486 195.953 L 211.486 184.819 212.474 183.476 C 213.017 182.737,213.879 181.770,214.388 181.326 L 215.314 180.518 240.109 180.517 C 266.576 180.516,266.545 180.514,266.545 182.238 C 266.545 182.432,266.791 182.795,267.092 183.045 C 267.573 183.444,267.639 188.976,267.639 228.792 L 267.639 274.085 266.373 275.238 L 265.106 276.390 240.210 276.388 C 212.920 276.385,214.939 276.539,212.570 274.287 L 211.700 273.461 211.560 262.255 C 211.458 254.037,211.302 250.951,210.977 250.684 C 210.733 250.483,209.851 249.391,209.017 248.256 L 207.502 246.194 204.480 245.949 C 202.818 245.814,190.687 245.758,177.522 245.824 C 151.740 245.953,152.051 245.929,152.051 247.793 C 152.051 248.046,151.928 248.308,151.778 248.374 C 150.766 248.824,149.807 251.115,149.473 253.878 C 149.072 257.195,149.248 304.019,149.673 307.384 C 149.989 309.882,152.042 312.278,154.192 312.659 C 154.920 312.787,156.171 313.135,156.974 313.431 C 158.679 314.061,201.379 313.984,204.787 313.346 C 207.440 312.849,210.361 310.661,211.153 308.576 C 211.336 308.095,211.486 303.042,211.486 297.347 L 211.486 286.993 213.295 285.156 L 215.104 283.318 242.113 283.318 C 272.224 283.318,269.723 283.530,272.287 280.766 C 273.974 278.946,273.873 286.111,273.759 176.846 L 273.655 76.390 272.744 74.847 C 271.228 72.280,272.592 72.399,242.263 72.197 L 214.882 72.015 213.184 70.623 L 211.486 69.231 211.486 58.371 L 211.486 47.511 210.437 46.089 C 209.861 45.307,208.785 44.093,208.047 43.391 L 206.706 42.115 181.840 42.049 C 163.752 42.002,156.506 42.101,155.259 42.414 M210.155 48.889 C 210.285 50.135,210.392 55.315,210.392 60.400 C 210.392 68.374,210.467 69.644,210.939 69.644 C 211.240 69.644,211.486 69.851,211.486 70.104 C 211.486 70.570,212.178 71.102,214.310 72.275 C 215.417 72.884,217.264 72.926,242.634 72.926 C 273.269 72.926,270.226 72.597,271.876 76.085 L 272.826 78.092 272.238 81.867 C 271.456 86.889,271.332 170.912,272.106 171.687 C 272.432 172.014,272.562 173.789,272.562 177.940 C 272.562 182.092,272.432 183.867,272.106 184.193 C 271.525 184.774,271.468 268.039,272.046 272.379 C 272.944 279.131,273.044 278.319,271.056 280.379 L 269.280 282.220 242.738 282.222 C 207.688 282.225,210.392 280.945,210.392 297.531 C 210.392 308.624,210.355 308.865,208.325 310.836 C 207.077 312.047,206.808 312.156,205.656 311.916 C 204.952 311.769,192.821 311.596,178.699 311.531 L 153.023 311.414 151.957 310.402 C 150.924 309.419,150.900 309.319,151.162 307.019 C 151.528 303.800,151.520 255.600,151.153 252.923 C 150.979 251.656,150.998 250.691,151.200 250.553 C 151.386 250.424,151.975 249.565,152.507 248.643 C 153.942 246.157,154.363 246.120,180.562 246.157 C 204.115 246.190,206.573 246.306,207.370 247.428 C 207.644 247.815,208.420 248.879,209.094 249.793 L 210.318 251.455 210.446 262.410 L 210.574 273.364 211.851 274.629 C 214.508 277.264,212.865 277.119,240.170 277.119 C 266.551 277.119,265.430 277.199,267.318 275.193 C 268.748 273.673,268.733 274.189,268.733 227.890 C 268.733 180.165,268.885 183.190,266.369 180.804 C 265.871 180.332,265.456 179.617,265.446 179.216 C 265.394 177.105,266.728 177.211,239.995 177.211 L 215.531 177.211 215.187 178.457 C 214.993 179.158,214.109 180.406,213.164 181.311 C 212.241 182.196,211.486 183.176,211.486 183.490 C 211.486 183.804,211.240 184.155,210.939 184.270 C 210.469 184.451,210.392 186.072,210.392 195.783 L 210.392 207.085 209.383 208.117 C 208.828 208.685,208.020 209.599,207.588 210.149 L 206.801 211.149 180.976 211.044 C 152.149 210.927,153.718 211.070,151.553 208.354 C 150.477 207.005,150.370 204.064,151.353 202.880 C 151.888 202.235,151.579 153.445,151.025 151.161 C 150.619 149.484,150.654 149.236,151.528 147.563 C 153.473 143.843,150.453 144.227,178.781 144.097 C 206.690 143.968,207.144 143.988,207.879 145.416 C 208.158 145.957,208.476 146.481,208.586 146.582 C 210.357 148.193,210.392 148.453,210.392 160.099 C 210.392 169.341,210.480 171.227,210.932 171.711 C 211.229 172.028,211.844 172.716,212.299 173.238 C 214.416 175.670,213.162 175.559,239.745 175.675 C 266.019 175.791,264.801 175.849,266.363 174.398 C 268.969 171.977,268.783 175.848,268.661 126.527 C 268.541 78.450,268.690 81.852,266.601 79.529 L 265.746 78.578 241.077 78.471 C 212.792 78.349,214.593 78.216,212.224 80.609 L 210.431 82.421 210.320 93.444 L 210.210 104.468 208.569 106.507 C 206.152 109.510,207.336 109.389,180.271 109.389 C 157.276 109.389,156.702 109.372,155.797 108.660 C 155.287 108.259,154.575 107.931,154.214 107.931 C 152.164 107.931,150.483 103.938,151.504 101.493 C 151.972 100.374,152.051 96.635,152.051 75.662 C 152.051 54.797,151.969 50.909,151.504 49.590 C 150.718 47.363,150.802 46.905,152.297 45.240 C 153.686 43.692,153.831 43.665,156.106 44.534 C 157.753 45.163,158.251 47.358,156.756 47.396 C 156.284 47.409,155.045 48.739,154.475 49.845 C 153.415 51.903,153.575 99.719,154.648 101.629 C 155.468 103.089,156.962 104.649,157.539 104.649 C 157.730 104.649,157.885 104.895,157.885 105.196 C 157.885 105.676,160.553 105.743,179.712 105.743 L 201.539 105.743 202.932 104.429 C 205.840 101.686,205.652 103.681,205.652 75.614 C 205.652 50.895,205.642 50.572,204.893 49.359 C 203.853 47.678,202.836 47.044,201.104 47.000 L 199.635 46.962 201.003 46.599 C 201.755 46.399,202.370 46.034,202.370 45.789 C 202.370 44.928,204.012 43.807,205.469 43.672 C 207.762 43.461,209.828 45.761,210.155 48.889 M203.484 48.698 L 204.740 49.995 204.847 74.678 C 204.964 101.842,205.001 101.085,203.483 102.746 L 202.411 103.920 180.178 103.920 C 155.524 103.920,157.171 104.056,155.685 101.896 L 154.603 100.324 154.606 75.595 C 154.608 51.984,154.639 50.819,155.295 49.824 C 156.975 47.277,155.634 47.407,180.147 47.404 L 202.227 47.402 203.484 48.698 M177.069 61.816 C 174.197 64.550,173.801 65.971,175.900 66.004 C 176.434 66.013,177.815 67.498,178.487 68.787 C 178.923 69.623,179.030 71.544,179.031 78.588 C 179.033 86.006,179.123 87.476,179.614 88.178 L 180.194 89.006 181.051 88.009 C 181.893 87.029,181.911 86.842,182.088 77.325 C 182.186 71.998,182.377 66.763,182.511 65.693 C 182.767 63.646,182.077 61.027,180.933 59.708 C 180.166 58.824,180.273 58.766,177.069 61.816 M180.827 60.985 C 181.614 63.013,181.763 64.783,181.324 66.910 C 181.037 68.298,180.869 72.397,180.864 78.122 C 180.858 85.765,180.776 87.147,180.327 87.147 C 179.881 87.147,179.781 85.692,179.689 77.912 C 179.575 68.203,179.136 66.011,177.302 66.001 C 177.051 65.999,176.846 65.845,176.846 65.658 C 176.846 65.471,176.518 65.214,176.117 65.087 C 175.152 64.780,175.192 64.233,176.208 63.840 C 177.243 63.440,178.324 62.456,179.143 61.167 C 179.916 59.950,180.404 59.897,180.827 60.985 M156.974 149.933 C 155.889 150.545,154.816 151.739,154.317 152.889 C 153.984 153.655,153.874 159.950,153.874 178.174 C 153.874 205.410,153.682 203.478,156.567 205.261 C 158.392 206.389,201.526 206.448,203.230 205.324 C 205.793 203.635,205.647 205.290,205.649 177.903 L 205.652 153.254 204.569 151.760 C 203.974 150.938,203.164 150.093,202.770 149.882 C 201.730 149.326,157.963 149.374,156.974 149.933 M203.488 151.348 C 204.988 152.953,204.964 152.465,204.847 179.034 L 204.740 203.282 203.829 204.193 L 202.917 205.105 180.497 205.204 C 156.470 205.311,156.657 205.324,155.323 203.451 C 154.624 202.468,154.603 201.747,154.603 177.792 L 154.603 153.145 156.062 151.686 L 157.521 150.228 179.981 150.228 L 202.442 150.228 203.488 151.348 M178.513 162.223 C 177.475 162.629,178.607 162.997,180.796 162.964 C 183.478 162.924,184.291 162.431,182.158 162.138 C 180.035 161.847,179.436 161.861,178.513 162.223 M171.012 167.183 C 171.012 167.851,171.579 167.855,173.017 167.196 L 174.111 166.696 172.562 166.666 C 171.414 166.644,171.012 166.778,171.012 167.183 M188.514 169.532 C 188.514 172.282,188.907 173.508,189.387 172.256 C 189.674 171.511,189.670 169.224,189.380 167.776 C 188.963 165.690,188.514 166.600,188.514 169.532 M180.006 180.006 C 179.872 180.140,179.763 180.772,179.763 181.410 C 179.763 184.283,178.827 185.583,176.755 185.591 C 176.003 185.595,175.386 185.720,175.383 185.871 C 175.381 186.021,174.723 186.831,173.919 187.671 L 172.459 189.197 173.132 190.405 C 175.010 193.776,178.993 192.737,179.022 188.869 C 179.028 187.961,179.259 186.894,179.535 186.499 C 179.811 186.103,180.158 185.041,180.307 184.139 C 180.690 181.821,181.447 180.499,182.416 180.456 C 183.184 180.421,183.179 180.404,182.315 180.128 C 181.127 179.747,180.308 179.704,180.006 180.006 M176.497 187.429 C 177.833 188.143,178.077 189.179,177.141 190.166 C 176.049 191.318,175.252 191.297,174.375 190.094 L 173.667 189.122 174.587 188.089 C 175.638 186.910,175.571 186.933,176.497 187.429 M157.296 249.322 C 157.073 249.469,156.763 250.000,156.608 250.501 C 156.453 251.003,156.006 251.823,155.614 252.325 C 153.849 254.584,153.873 254.209,153.896 279.078 C 153.920 305.328,153.935 305.535,155.827 307.270 L 157.145 308.478 179.552 308.478 C 204.056 308.478,203.332 308.544,204.714 306.186 L 205.652 304.585 205.652 280.103 C 205.652 254.213,205.606 253.450,203.959 252.102 C 203.687 251.879,203.464 251.465,203.464 251.180 C 203.464 250.896,203.209 250.299,202.896 249.853 L 202.329 249.043 180.016 249.048 C 167.744 249.051,157.520 249.175,157.296 249.322 M202.688 251.735 C 204.984 253.814,204.923 253.038,204.923 279.987 C 204.923 306.252,204.972 305.506,203.099 307.202 C 202.316 307.911,201.699 307.933,180.219 308.033 L 158.145 308.135 156.923 307.304 C 156.252 306.846,155.701 306.337,155.700 306.173 C 155.698 306.008,155.451 305.627,155.150 305.326 C 154.675 304.851,154.603 301.561,154.603 280.191 C 154.603 252.843,154.461 254.477,157.066 251.877 L 158.067 250.878 179.998 250.963 C 200.894 251.044,201.965 251.081,202.688 251.735 M175.596 264.111 C 174.585 264.850,175.135 267.075,176.244 266.736 C 179.033 265.882,180.036 265.796,182.464 266.206 C 185.478 266.714,187.073 265.787,185.732 264.305 C 184.952 263.444,176.725 263.285,175.596 264.111 M182.954 264.229 C 184.212 264.380,184.868 264.629,184.868 264.955 C 184.868 265.513,181.219 265.608,178.304 265.126 L 176.664 264.854 178.304 264.462 C 180.392 263.964,180.644 263.952,182.954 264.229 M188.169 268.527 C 187.806 268.964,187.807 269.593,188.175 271.649 C 188.787 275.078,189.426 274.800,189.426 271.103 C 189.426 268.203,189.060 267.453,188.169 268.527 M182.484 276.388 C 181.473 276.535,180.086 276.946,179.401 277.300 L 178.156 277.944 179.233 278.807 C 179.825 279.281,180.884 279.773,181.586 279.901 C 182.288 280.029,183.273 280.329,183.774 280.568 C 185.021 281.161,185.918 280.885,186.184 279.825 C 186.452 278.757,186.057 276.390,185.610 276.390 C 185.435 276.390,185.074 276.329,184.806 276.255 C 184.539 276.180,183.494 276.240,182.484 276.388 M185.209 277.638 C 185.792 278.340,184.932 279.789,184.139 279.438 C 183.838 279.305,182.689 279.003,181.586 278.767 C 179.167 278.249,179.128 277.743,181.486 277.450 C 184.426 277.085,184.764 277.102,185.209 277.638 M188.332 281.939 C 187.931 282.155,187.566 282.358,187.520 282.391 C 187.475 282.423,187.598 283.444,187.794 284.660 C 188.192 287.132,187.644 289.390,186.299 290.822 L 185.567 291.601 187.220 292.064 C 189.915 292.819,190.111 292.453,189.880 287.101 C 189.664 282.101,189.437 281.344,188.332 281.939 M189.148 289.960 C 189.074 291.020,189.013 290.246,189.012 288.241 C 189.011 286.235,189.071 285.368,189.146 286.314 C 189.221 287.260,189.222 288.901,189.148 289.960 M171.021 290.884 C 171.032 291.705,175.362 293.228,176.259 292.726 C 177.030 292.295,177.006 291.360,176.208 290.754 C 175.180 289.974,171.010 290.079,171.021 290.884 " stroke="none" fill="#9facad" fill-rule="evenodd"></path><path id="path3" d="M154.906 41.461 C 153.165 41.609,152.855 41.865,149.049 46.299 C 148.685 46.723,148.587 52.929,148.587 75.652 L 148.587 104.467 150.344 106.837 C 152.693 110.007,153.342 110.474,155.333 110.433 C 156.235 110.414,156.645 110.323,156.244 110.231 C 153.071 109.501,152.781 109.339,151.629 107.646 C 150.985 106.699,150.331 105.837,150.175 105.730 C 148.960 104.894,148.780 100.998,148.788 75.661 C 148.796 47.479,148.794 47.506,151.171 44.605 C 153.650 41.579,151.873 41.750,180.866 41.750 L 206.581 41.750 207.662 42.753 C 208.257 43.304,208.868 43.756,209.021 43.756 C 209.173 43.756,209.298 43.925,209.298 44.133 C 209.298 44.340,209.831 45.031,210.483 45.668 L 211.668 46.826 211.790 57.962 L 211.912 69.098 213.239 70.296 C 215.074 71.953,213.216 71.862,242.662 71.748 L 269.280 71.645 242.289 71.556 L 215.298 71.468 213.939 70.347 L 212.580 69.227 212.580 59.641 C 212.580 46.712,212.659 47.133,209.638 43.966 L 207.178 41.386 181.894 41.351 C 167.987 41.332,155.843 41.382,154.906 41.461 M156.164 49.474 L 154.575 51.180 154.680 75.636 C 154.794 101.939,154.690 100.508,156.651 102.695 L 157.422 103.555 180.065 103.555 L 202.708 103.555 203.633 102.194 C 204.934 100.280,204.790 99.844,203.462 101.677 L 202.366 103.191 180.216 103.179 C 156.116 103.166,157.440 103.280,156.002 101.100 C 155.206 99.892,154.944 52.091,155.726 50.631 C 156.962 48.321,154.977 48.496,180.002 48.496 L 202.685 48.496 203.479 49.611 C 203.916 50.224,204.353 50.645,204.451 50.547 C 204.864 50.135,203.183 48.480,202.005 48.140 C 201.210 47.910,192.642 47.770,179.242 47.769 L 157.754 47.767 156.164 49.474 M204.730 74.020 C 204.730 86.755,204.775 91.964,204.831 85.597 C 204.887 79.230,204.887 68.810,204.831 62.443 C 204.775 56.076,204.730 61.285,204.730 74.020 M179.195 58.810 C 178.442 59.254,176.349 61.120,174.065 63.383 C 172.614 64.821,172.781 65.447,174.900 66.531 C 178.037 68.136,178.243 68.983,178.282 80.462 C 178.313 89.693,179.305 92.140,181.768 89.061 L 182.862 87.694 183.078 76.937 C 183.196 71.021,183.414 65.907,183.561 65.573 C 184.053 64.456,182.703 60.441,181.467 59.344 C 180.185 58.205,180.209 58.211,179.195 58.810 M181.695 60.233 C 184.028 63.369,182.843 89.335,180.368 89.335 C 179.119 89.335,178.880 87.810,178.682 78.561 C 178.507 70.359,178.415 69.319,177.785 68.358 C 177.016 67.186,175.761 66.029,175.236 66.010 C 173.236 65.938,173.647 64.696,176.600 61.893 C 179.827 58.831,180.491 58.614,181.695 60.233 M270.667 72.539 C 272.201 73.254,273.061 74.281,273.741 76.208 C 274.094 77.209,274.193 99.144,274.197 177.804 C 274.203 289.182,274.438 279.479,271.670 281.981 L 270.189 283.318 243.160 283.318 C 208.954 283.318,212.215 282.084,212.215 295.024 C 212.215 307.969,211.922 309.148,207.833 312.671 L 206.563 313.765 181.586 313.877 C 154.847 313.997,154.940 314.003,152.416 312.162 C 148.633 309.403,148.769 310.627,148.769 279.331 C 148.769 251.576,148.782 251.318,150.269 249.758 C 150.548 249.465,151.100 248.610,151.496 247.859 C 152.726 245.523,152.030 245.579,180.128 245.579 C 209.445 245.579,207.454 245.378,209.776 248.562 C 211.969 251.570,212.208 253.213,212.212 265.297 C 212.215 274.640,212.068 274.052,214.846 275.776 C 216.273 276.661,264.334 276.726,265.217 275.843 C 265.518 275.542,265.872 275.296,266.005 275.296 C 267.667 275.296,267.614 276.796,267.627 229.072 L 267.639 184.489 266.775 183.129 C 264.910 180.194,267.402 180.432,239.903 180.560 C 220.687 180.650,215.342 180.773,215.223 181.130 C 215.140 181.381,214.880 181.590,214.646 181.594 C 214.412 181.598,213.790 182.214,213.264 182.961 L 212.307 184.321 212.147 195.481 C 211.965 208.082,212.280 206.718,208.690 210.483 L 207.040 212.215 180.326 212.215 L 153.612 212.215 152.376 210.899 C 150.012 208.382,149.863 208.202,149.863 207.870 C 149.863 207.686,149.658 207.467,149.407 207.384 C 148.514 207.086,148.577 150.457,149.472 148.738 C 152.757 142.436,150.473 142.815,184.076 142.994 L 207.167 143.118 208.436 144.576 C 210.124 146.515,210.392 146.870,210.392 147.164 C 210.392 147.301,210.660 147.609,210.988 147.848 C 211.829 148.464,212.165 152.672,212.192 162.964 L 212.215 171.508 213.907 173.083 L 215.598 174.658 240.175 174.658 L 264.751 174.658 266.195 173.140 L 267.639 171.622 267.637 127.106 C 267.634 77.808,267.826 81.800,265.367 79.866 C 264.389 79.097,264.350 79.096,240.005 79.201 L 215.622 79.307 214.288 80.325 C 212.096 81.997,212.094 82.010,211.851 93.719 C 211.621 104.876,211.283 106.837,209.594 106.837 C 209.431 106.837,209.298 107.065,209.298 107.345 C 209.298 107.624,209.052 107.947,208.751 108.063 C 208.450 108.178,208.204 108.524,208.204 108.831 C 208.204 109.138,207.958 109.389,207.657 109.389 C 207.356 109.389,207.110 109.553,207.110 109.754 C 207.110 109.954,206.413 110.143,205.561 110.173 C 204.393 110.214,204.269 110.266,205.058 110.384 C 207.129 110.693,209.615 108.653,212.046 104.649 C 212.228 104.348,212.484 99.262,212.615 93.345 C 212.876 81.492,212.824 81.834,214.522 80.675 L 215.724 79.854 240.203 79.854 L 264.681 79.854 265.661 80.696 C 267.211 82.030,267.230 82.586,267.253 128.233 L 267.274 171.325 266.046 172.627 L 264.818 173.929 240.268 173.929 L 215.718 173.929 214.378 173.000 L 213.038 172.072 212.878 160.797 L 212.717 149.522 211.281 147.423 C 210.491 146.268,209.230 144.704,208.478 143.947 L 207.110 142.571 181.818 142.571 C 154.012 142.571,151.046 142.793,150.969 144.888 C 150.962 145.059,150.443 145.962,149.814 146.893 C 148.086 149.453,147.988 151.376,148.111 180.381 L 148.222 206.626 149.275 208.145 C 149.854 208.980,150.469 209.663,150.642 209.663 C 150.815 209.663,150.960 209.868,150.963 210.119 C 150.976 211.037,152.739 212.226,154.616 212.582 C 157.224 213.077,207.110 213.075,207.110 212.580 C 207.110 212.379,207.288 212.215,207.506 212.215 C 207.724 212.215,208.421 211.617,209.056 210.885 C 209.690 210.154,210.720 208.987,211.343 208.293 C 212.736 206.741,212.944 204.644,212.944 192.176 L 212.944 183.917 214.147 182.752 L 215.349 181.586 240.400 181.586 C 255.573 181.586,265.451 181.720,265.451 181.925 C 265.451 182.111,265.656 182.486,265.907 182.759 C 267.297 184.272,267.275 183.531,267.248 227.616 C 267.220 272.896,267.189 273.886,265.784 274.973 C 264.465 275.994,214.993 275.867,214.242 274.840 C 213.985 274.490,213.610 274.202,213.407 274.202 C 213.170 274.202,212.981 270.168,212.878 262.912 C 212.736 252.973,212.643 251.541,212.101 250.942 C 211.763 250.568,211.486 250.165,211.486 250.048 C 211.486 249.744,210.073 248.043,208.523 246.481 C 206.779 244.722,205.908 244.668,179.398 244.680 C 152.270 244.693,152.878 244.598,149.822 249.288 L 148.222 251.743 148.112 278.083 C 147.976 310.299,147.897 309.658,152.416 312.918 C 154.509 314.428,155.620 314.490,180.675 314.492 C 208.182 314.494,206.649 314.655,209.904 311.430 C 212.677 308.682,212.950 307.207,212.947 294.984 L 212.944 286.412 214.233 285.230 L 215.521 284.047 242.332 284.047 L 269.143 284.047 271.034 283.149 C 272.484 282.461,273.118 281.886,273.748 280.688 L 274.569 279.125 274.568 177.713 C 274.567 77.864,274.556 76.276,273.854 74.689 C 273.138 73.069,271.356 71.793,269.906 71.862 C 269.561 71.878,269.904 72.183,270.667 72.539 M168.759 110.756 C 175.241 110.812,185.743 110.812,192.096 110.756 C 198.449 110.701,193.145 110.655,180.310 110.655 C 167.475 110.655,162.277 110.701,168.759 110.756 M156.777 151.307 C 156.083 151.900,155.712 152.393,155.953 152.401 C 156.193 152.409,156.551 152.129,156.748 151.778 C 157.082 151.181,158.564 151.139,179.778 151.139 L 202.450 151.139 203.504 152.402 C 204.084 153.096,204.558 153.497,204.558 153.292 C 204.558 153.087,204.070 152.420,203.474 151.810 C 202.006 150.308,200.750 150.233,177.197 150.230 L 158.040 150.228 156.777 151.307 M155.211 153.023 C 155.077 153.157,154.968 164.360,154.968 177.919 L 154.968 202.572 156.041 203.747 C 156.632 204.394,157.294 204.923,157.513 204.923 C 157.731 204.923,157.327 204.410,156.614 203.784 L 155.318 202.646 155.417 177.713 C 155.471 164.000,155.501 152.780,155.485 152.780 C 155.468 152.780,155.345 152.890,155.211 153.023 M177.296 161.642 C 175.743 161.995,175.238 162.307,174.649 163.278 C 174.212 164.000,173.305 164.742,172.371 165.142 C 170.030 166.145,169.665 166.744,170.475 168.249 L 171.137 169.478 173.171 168.638 C 174.290 168.176,175.496 167.704,175.851 167.590 C 176.207 167.476,176.602 167.091,176.730 166.736 C 178.195 162.663,184.026 164.214,186.418 169.312 C 187.439 171.489,186.885 173.929,185.368 173.929 C 184.612 173.929,184.098 174.539,183.141 176.572 C 182.692 177.525,182.142 178.304,181.919 178.304 C 181.215 178.304,179.034 179.466,179.034 179.841 C 179.034 181.255,177.039 184.139,176.060 184.139 C 175.690 184.139,175.387 184.271,175.387 184.432 C 175.387 184.593,174.383 185.768,173.156 187.042 L 170.924 189.358 171.611 191.033 C 172.731 193.767,173.835 194.110,180.474 193.790 L 185.907 193.528 183.699 190.633 C 180.506 186.446,180.588 182.415,183.890 181.367 C 185.024 181.007,185.495 180.402,185.947 178.724 C 186.171 177.892,186.512 177.211,186.705 177.211 C 186.898 177.211,187.056 176.981,187.056 176.699 C 187.056 176.418,187.568 175.864,188.194 175.468 C 190.080 174.273,191.580 166.636,189.929 166.636 C 189.752 166.636,189.608 166.390,189.608 166.089 C 189.608 165.757,189.269 165.542,188.746 165.542 C 187.523 165.542,185.962 164.206,185.962 163.159 C 185.962 161.564,181.262 160.742,177.296 161.642 M184.291 162.117 C 187.230 163.245,181.760 164.048,177.302 163.143 C 176.325 162.944,176.222 162.382,177.119 162.147 C 178.100 161.891,183.641 161.868,184.291 162.117 M174.908 166.318 C 175.920 166.724,175.902 166.740,173.564 167.509 C 171.325 168.246,171.180 168.254,170.932 167.645 C 170.273 166.021,172.398 165.312,174.908 166.318 M189.629 168.853 C 190.083 174.096,188.387 175.148,187.618 170.100 C 187.495 169.298,187.309 168.203,187.203 167.667 C 187.044 166.864,187.158 166.665,187.853 166.535 C 189.286 166.266,189.420 166.440,189.629 168.853 M185.560 175.357 C 185.992 175.631,185.979 175.908,185.469 177.182 C 185.138 178.008,184.868 179.091,184.868 179.588 C 184.868 180.279,184.674 180.495,184.047 180.505 C 182.313 180.533,181.335 181.909,180.691 185.232 C 179.307 192.360,176.990 195.170,174.528 192.707 C 174.227 192.407,173.805 192.160,173.590 192.160 C 173.375 192.160,173.200 191.985,173.200 191.770 C 173.200 191.555,172.954 191.133,172.653 190.832 C 171.593 189.772,174.471 185.232,176.204 185.232 C 177.220 185.232,179.034 183.205,179.034 182.068 C 179.034 180.444,179.960 179.398,181.398 179.398 C 182.946 179.398,183.774 178.589,183.774 177.075 C 183.774 175.422,184.524 174.701,185.560 175.357 M203.483 203.627 C 203.022 204.117,202.132 204.583,201.505 204.662 C 200.369 204.805,200.369 204.806,201.651 204.864 C 202.867 204.919,203.496 204.522,204.329 203.175 C 204.770 202.462,204.383 202.668,203.483 203.627 M157.045 252.416 C 154.885 254.434,154.968 253.318,154.968 280.244 L 154.968 304.917 156.397 306.346 L 157.826 307.775 180.103 307.671 L 202.380 307.566 203.493 306.375 C 204.316 305.495,204.566 304.925,204.454 304.188 L 204.303 303.191 204.248 304.140 C 204.218 304.662,203.787 305.527,203.292 306.062 L 202.390 307.035 179.864 306.936 L 157.338 306.837 156.426 305.925 L 155.515 305.014 155.515 280.022 L 155.515 255.031 156.754 253.466 L 157.993 251.901 179.943 252.022 C 204.089 252.154,202.519 251.992,203.837 254.486 C 204.216 255.203,204.533 255.580,204.542 255.325 C 204.551 255.071,204.161 254.234,203.677 253.466 C 202.492 251.589,202.571 251.595,178.087 251.595 L 157.923 251.595 157.045 252.416 M177.028 262.890 C 174.901 263.395,174.447 263.684,173.981 264.835 C 173.722 265.475,173.364 266.363,173.185 266.809 C 173.006 267.254,172.478 267.715,172.011 267.832 C 170.795 268.137,170.243 269.145,170.842 269.964 C 171.433 270.772,174.941 269.878,176.481 268.528 C 178.621 266.651,180.981 266.399,183.996 267.725 L 185.859 268.545 186.257 271.100 C 186.753 274.283,186.699 274.346,182.472 275.536 C 180.703 276.035,178.767 276.790,178.172 277.214 L 177.088 277.985 178.627 279.351 C 179.473 280.102,180.690 280.828,181.332 280.965 C 186.679 282.108,189.053 288.984,184.589 290.401 C 184.230 290.515,183.695 290.968,183.400 291.409 C 181.403 294.384,179.708 294.668,178.534 292.226 C 177.768 290.630,175.683 289.152,174.198 289.152 C 173.714 289.152,172.871 288.667,172.276 288.046 L 171.216 286.940 170.589 289.162 C 169.932 291.495,170.385 292.799,171.856 292.799 C 172.119 292.799,173.391 293.501,174.681 294.360 C 179.030 297.254,183.708 297.526,185.416 294.985 C 185.927 294.224,186.552 293.863,187.732 293.644 C 190.363 293.158,190.733 292.344,190.729 287.045 C 190.726 282.244,190.570 281.741,188.403 279.527 C 187.132 278.229,187.280 277.288,189.039 275.476 C 191.567 272.874,191.245 268.879,188.265 265.871 C 187.600 265.199,187.056 264.518,187.056 264.357 C 187.056 262.913,180.793 261.997,177.028 262.890 M184.718 263.469 C 185.942 263.654,186.855 264.884,186.629 266.041 C 186.489 266.757,185.623 266.819,180.300 266.499 C 179.002 266.421,178.018 266.610,176.932 267.148 C 175.212 267.999,174.820 267.808,174.447 265.943 C 173.991 263.664,178.626 262.548,184.718 263.469 M189.606 268.364 C 190.025 269.374,189.908 272.473,189.383 274.283 C 188.996 275.619,187.862 274.174,187.408 271.766 C 186.796 268.526,187.094 267.655,188.926 267.317 C 189.052 267.293,189.358 267.765,189.606 268.364 M172.653 269.098 C 173.264 269.360,173.190 269.415,172.197 269.437 C 171.545 269.451,171.012 269.298,171.012 269.098 C 171.012 268.665,171.645 268.665,172.653 269.098 M186.300 276.317 C 186.586 276.600,186.894 277.725,186.984 278.817 C 187.138 280.667,187.222 280.817,188.209 281.015 C 189.862 281.345,190.463 283.483,190.369 288.701 C 190.307 292.143,189.800 292.799,187.202 292.799 C 184.422 292.799,183.980 292.052,185.819 290.462 C 188.532 288.117,187.665 282.259,184.464 281.313 C 183.784 281.112,183.063 280.842,182.862 280.712 C 182.662 280.581,181.792 280.286,180.929 280.054 C 180.067 279.823,179.270 279.396,179.158 279.106 C 179.047 278.815,178.727 278.578,178.448 278.578 C 178.168 278.578,177.940 278.427,177.940 278.243 C 177.940 277.671,180.341 276.391,181.447 276.374 C 182.025 276.365,182.990 276.143,183.592 275.882 C 184.758 275.375,185.462 275.489,186.300 276.317 M174.511 290.010 C 177.092 290.591,177.624 291.092,177.138 292.485 C 176.651 293.882,176.053 294.106,174.768 293.373 C 174.206 293.052,173.090 292.570,172.288 292.302 C 171.486 292.033,170.871 291.707,170.921 291.577 C 170.971 291.447,171.012 290.829,171.012 290.204 C 171.012 289.190,171.101 289.096,171.832 289.330 C 172.284 289.474,173.489 289.780,174.511 290.010 M182.448 295.702 C 182.709 295.963,182.168 296.080,180.703 296.080 C 178.799 296.080,178.630 296.020,179.063 295.498 C 179.588 294.866,181.741 294.996,182.448 295.702 " stroke="none" fill="#8c9ca4" fill-rule="evenodd"></path><path id="path4" d="M154.860 42.087 C 153.278 42.513,150.717 44.366,151.134 44.784 C 151.228 44.877,151.820 44.449,152.450 43.833 C 154.392 41.935,155.700 41.855,182.862 41.992 C 196.299 42.060,206.554 42.004,205.652 41.868 C 202.403 41.381,156.757 41.577,154.860 42.087 M208.177 43.512 C 209.106 44.534,209.305 44.661,209.287 44.211 C 209.280 44.061,208.829 43.623,208.284 43.238 L 207.293 42.538 208.177 43.512 M149.207 48.791 C 148.566 51.893,148.653 100.455,149.304 103.008 C 149.693 104.534,149.777 100.095,149.819 75.752 C 149.847 59.758,149.819 46.673,149.757 46.673 C 149.695 46.673,149.448 47.626,149.207 48.791 M157.012 48.103 C 156.431 48.485,155.621 49.346,155.210 50.015 C 154.578 51.045,154.715 50.967,156.109 49.499 L 157.754 47.767 179.244 47.767 C 191.797 47.767,201.239 47.911,201.948 48.115 C 202.991 48.414,203.099 48.388,202.721 47.932 C 201.944 46.997,158.444 47.159,157.012 48.103 M211.571 59.280 L 211.486 69.153 212.397 70.009 C 212.899 70.480,213.309 70.761,213.309 70.634 C 213.309 70.506,212.984 70.099,212.586 69.728 C 211.905 69.094,211.857 68.485,211.759 59.231 L 211.656 49.407 211.571 59.280 M180.857 59.576 C 181.158 59.954,181.682 60.938,182.022 61.763 C 182.361 62.588,182.648 62.968,182.660 62.607 C 182.687 61.740,181.800 60.059,180.972 59.408 C 180.356 58.924,180.348 58.935,180.857 59.576 M175.868 62.534 C 173.716 64.623,173.643 64.751,174.258 65.360 C 175.155 66.249,175.649 66.163,174.832 65.259 C 174.175 64.533,174.200 64.487,176.325 62.556 C 177.514 61.475,178.405 60.536,178.304 60.468 C 178.204 60.401,177.108 61.331,175.868 62.534 M177.211 67.266 C 177.211 67.385,177.498 67.920,177.849 68.455 C 178.393 69.284,178.516 70.665,178.688 77.831 L 178.889 86.235 178.961 78.086 C 179.022 71.222,178.941 69.741,178.442 68.691 C 177.899 67.545,177.211 66.749,177.211 67.266 M182.179 68.232 C 182.053 68.858,181.951 73.330,181.950 78.168 C 181.950 86.935,181.947 86.968,181.072 87.985 L 180.194 89.006 179.614 88.178 C 179.295 87.722,179.039 87.509,179.045 87.704 C 179.063 88.244,179.976 89.335,180.412 89.335 C 182.006 89.335,182.403 87.077,182.598 76.909 C 182.777 67.548,182.687 65.689,182.179 68.232 M242.479 72.192 C 257.420 72.295,269.973 72.514,270.374 72.678 C 270.775 72.842,270.693 72.725,270.191 72.417 C 269.391 71.926,265.992 71.867,242.297 71.932 L 215.314 72.005 242.479 72.192 M271.508 73.205 C 271.731 73.353,272.208 74.047,272.569 74.749 C 272.931 75.451,273.293 75.829,273.374 75.588 C 273.552 75.060,272.037 72.924,271.490 72.932 C 271.233 72.935,271.238 73.027,271.508 73.205 M273.655 177.758 C 273.655 233.572,273.776 279.048,273.923 278.817 C 274.071 278.585,274.191 233.108,274.191 177.758 C 274.191 122.407,274.071 76.930,273.923 76.698 C 273.776 76.467,273.655 121.943,273.655 177.758 M214.692 79.615 C 211.632 81.496,211.672 81.330,211.636 92.424 L 211.604 102.279 211.827 92.616 C 212.070 82.092,212.088 82.003,214.288 80.325 L 215.622 79.307 240.036 79.201 C 262.565 79.104,264.503 79.143,265.133 79.714 C 265.959 80.461,266.051 80.141,265.243 79.333 C 264.733 78.824,261.983 78.762,240.357 78.772 L 216.044 78.783 214.692 79.615 M204.667 98.815 C 204.667 99.918,204.736 100.369,204.819 99.818 C 204.903 99.266,204.903 98.364,204.819 97.812 C 204.736 97.261,204.667 97.712,204.667 98.815 M154.670 99.362 C 154.646 99.964,154.868 100.774,155.162 101.164 C 155.456 101.553,155.697 101.709,155.697 101.510 C 155.697 101.311,155.546 100.993,155.361 100.802 C 155.176 100.612,154.954 99.964,154.868 99.362 L 154.713 98.268 154.670 99.362 M168.759 103.828 C 175.041 103.884,185.214 103.884,191.366 103.828 C 197.519 103.772,192.379 103.727,179.945 103.727 C 167.511 103.727,162.478 103.772,168.759 103.828 M210.272 105.578 C 209.719 106.270,209.407 106.837,209.579 106.837 C 209.940 106.837,211.617 104.659,211.413 104.455 C 211.338 104.380,210.824 104.885,210.272 105.578 M149.863 105.348 C 149.863 105.532,149.996 105.737,150.158 105.804 C 150.320 105.871,150.992 106.716,151.652 107.683 C 152.311 108.650,152.932 109.359,153.031 109.260 C 153.201 109.090,150.294 105.014,150.002 105.014 C 149.926 105.014,149.863 105.164,149.863 105.348 M155.150 109.921 C 157.107 110.449,201.704 110.677,205.469 110.178 C 206.472 110.045,195.889 109.936,181.951 109.936 C 168.013 109.936,155.871 109.822,154.968 109.683 L 153.327 109.429 155.150 109.921 M168.759 143.209 C 175.241 143.264,185.743 143.264,192.096 143.209 C 198.449 143.153,193.145 143.107,180.310 143.107 C 167.475 143.107,162.277 143.153,168.759 143.209 M152.941 143.835 C 152.552 144.130,152.406 144.376,152.616 144.382 C 152.827 144.389,153.155 144.246,153.345 144.065 C 153.536 143.883,154.020 143.656,154.421 143.560 C 155.133 143.389,155.132 143.383,154.400 143.342 C 153.987 143.319,153.330 143.541,152.941 143.835 M207.841 144.211 C 208.342 144.813,208.792 145.374,208.842 145.457 C 208.892 145.541,209.014 145.529,209.112 145.431 C 209.210 145.333,208.760 144.772,208.111 144.185 L 206.931 143.118 207.841 144.211 M151.504 145.262 C 150.918 145.953,149.803 148.040,150.020 148.040 C 150.273 148.040,152.144 145.092,151.986 144.943 C 151.922 144.882,151.705 145.025,151.504 145.262 M149.144 149.289 C 148.740 150.353,148.601 205.169,148.999 206.655 C 149.451 208.340,149.709 207.390,149.445 205.014 C 149.084 201.770,149.114 153.596,149.478 150.775 C 149.797 148.305,149.694 147.845,149.144 149.289 M211.618 160.073 C 211.682 172.511,211.672 172.462,214.513 174.103 C 215.483 174.663,215.388 174.501,213.947 173.142 L 212.215 171.508 212.170 162.782 C 212.145 157.983,211.998 152.908,211.843 151.504 C 211.668 149.925,211.582 153.195,211.618 160.073 M200.247 150.497 C 201.999 150.607,202.497 150.807,203.486 151.795 C 204.604 152.912,204.627 152.919,204.008 151.945 C 203.112 150.536,202.359 150.217,200.115 150.297 L 198.177 150.366 200.247 150.497 M154.825 152.992 C 154.108 154.862,154.609 202.448,155.358 203.499 C 155.772 204.081,156.287 204.558,156.501 204.558 C 156.715 204.558,156.458 204.125,155.929 203.597 L 154.968 202.635 154.968 177.963 C 154.968 159.260,155.074 153.185,155.406 152.853 C 155.698 152.561,155.711 152.416,155.445 152.416 C 155.225 152.416,154.947 152.675,154.825 152.992 M204.730 178.122 C 204.730 191.759,204.776 197.285,204.831 190.402 C 204.887 183.518,204.887 172.361,204.831 165.607 C 204.776 158.853,204.730 164.485,204.730 178.122 M177.119 162.147 C 176.222 162.382,176.325 162.944,177.302 163.143 C 180.343 163.760,184.868 163.659,184.868 162.973 C 184.868 162.195,183.642 161.736,182.261 161.999 C 181.621 162.120,181.726 162.180,182.680 162.237 C 184.544 162.347,183.031 162.931,180.796 162.964 C 178.607 162.997,177.475 162.629,178.513 162.223 C 179.354 161.893,178.308 161.837,177.119 162.147 M170.884 166.443 C 170.555 167.302,170.598 167.643,170.963 167.067 C 171.156 166.763,171.793 166.631,172.690 166.709 L 174.111 166.833 172.562 167.339 C 171.709 167.618,171.012 167.956,171.012 168.091 C 171.012 168.226,172.079 168.004,173.383 167.597 C 176.129 166.741,176.035 166.233,173.085 165.989 C 171.480 165.856,171.078 165.939,170.884 166.443 M187.853 166.535 C 187.158 166.665,187.044 166.864,187.203 167.667 C 187.309 168.203,187.495 169.298,187.618 170.100 C 187.889 171.883,188.504 173.564,188.884 173.564 C 189.240 173.564,189.689 172.430,189.434 172.175 C 189.329 172.070,189.243 172.185,189.243 172.431 C 189.243 172.677,189.079 172.777,188.879 172.653 C 188.419 172.368,188.394 166.636,188.853 166.636 C 189.040 166.636,189.261 166.923,189.345 167.274 C 189.469 167.794,189.491 167.782,189.462 167.212 C 189.422 166.435,189.102 166.300,187.853 166.535 M184.211 175.460 C 183.971 175.701,183.774 176.428,183.774 177.075 C 183.774 178.589,182.946 179.398,181.398 179.398 C 179.960 179.398,179.034 180.444,179.034 182.068 C 179.034 183.205,177.220 185.232,176.204 185.232 C 174.471 185.232,171.593 189.772,172.653 190.832 C 172.954 191.133,173.200 191.555,173.200 191.770 C 173.200 191.985,173.375 192.160,173.590 192.160 C 173.805 192.160,174.227 192.407,174.528 192.707 C 176.990 195.170,179.307 192.360,180.691 185.232 C 181.174 182.742,181.482 181.975,182.260 181.326 C 183.205 180.537,183.209 180.518,182.416 180.505 C 181.445 180.490,180.697 181.778,180.307 184.139 C 180.158 185.041,179.811 186.103,179.535 186.499 C 179.259 186.894,179.028 187.961,179.022 188.869 C 178.993 192.737,175.010 193.776,173.132 190.405 L 172.459 189.197 173.919 187.671 C 174.723 186.831,175.381 186.021,175.383 185.871 C 175.386 185.720,176.003 185.595,176.755 185.591 C 178.837 185.583,179.553 184.532,179.852 181.039 C 179.955 179.833,180.303 179.759,183.318 180.305 C 184.817 180.576,184.868 180.554,184.868 179.635 C 184.868 179.112,185.138 178.008,185.469 177.182 C 185.979 175.908,185.992 175.631,185.560 175.357 C 184.886 174.930,184.730 174.942,184.211 175.460 M214.768 181.039 C 214.454 181.417,214.440 181.586,214.723 181.586 C 214.948 181.586,215.132 181.431,215.132 181.241 C 215.132 181.051,215.994 180.835,217.046 180.761 L 218.961 180.627 217.091 180.560 C 215.808 180.513,215.079 180.664,214.768 181.039 M265.424 181.342 C 266.353 182.365,266.552 182.491,266.534 182.042 C 266.527 181.892,266.076 181.453,265.531 181.068 L 264.540 180.368 265.424 181.342 M212.646 183.243 L 211.486 184.889 211.543 196.091 C 211.579 203.100,211.699 206.337,211.863 204.740 C 212.007 203.336,212.145 198.183,212.170 193.289 L 212.215 184.390 213.164 183.146 C 213.685 182.462,214.043 181.834,213.959 181.750 C 213.875 181.666,213.284 182.338,212.646 183.243 M168.759 205.196 C 175.041 205.252,185.214 205.252,191.366 205.196 C 197.519 205.140,192.379 205.094,179.945 205.094 C 167.511 205.094,162.478 205.140,168.759 205.196 M210.200 208.294 C 208.441 210.297,208.030 210.978,209.264 209.845 C 210.305 208.888,211.360 207.475,211.033 207.475 C 210.970 207.475,210.595 207.844,210.200 208.294 M151.525 210.089 C 152.938 211.729,153.704 212.191,154.968 212.166 L 156.244 212.140 155.068 211.861 C 153.740 211.546,152.051 210.536,152.051 210.058 C 152.051 209.883,151.773 209.634,151.433 209.504 C 150.909 209.302,150.922 209.390,151.525 210.089 M207.293 211.486 C 207.169 211.686,206.708 211.870,206.268 211.893 C 205.662 211.925,205.622 211.975,206.101 212.101 C 206.448 212.192,207.100 212.008,207.549 211.694 C 207.999 211.379,208.176 211.121,207.942 211.121 C 207.709 211.121,207.417 211.285,207.293 211.486 M155.150 245.722 C 154.348 245.844,165.752 245.943,180.492 245.943 C 195.232 245.943,206.554 245.833,205.652 245.697 C 203.624 245.393,157.166 245.415,155.150 245.722 M152.590 246.405 C 152.166 246.709,150.957 248.538,150.957 248.874 C 150.957 248.995,151.203 248.849,151.504 248.548 C 151.805 248.247,152.051 247.879,152.051 247.730 C 152.051 247.581,152.323 247.159,152.655 246.793 C 153.276 246.106,153.247 245.933,152.590 246.405 M209.026 248.300 C 209.877 249.496,210.764 250.551,210.996 250.646 C 211.228 250.740,210.654 249.769,209.720 248.487 C 208.786 247.206,207.899 246.150,207.749 246.142 C 207.599 246.133,208.174 247.104,209.026 248.300 M149.531 250.981 C 148.523 253.064,148.330 304.733,149.319 307.748 L 149.857 309.389 149.638 307.384 C 149.518 306.281,149.350 294.467,149.265 281.130 C 149.105 256.118,149.288 251.377,150.460 250.081 C 150.796 249.711,150.895 249.407,150.682 249.407 C 150.468 249.407,149.950 250.116,149.531 250.981 M156.882 252.055 C 156.230 252.705,155.697 253.365,155.697 253.522 C 155.697 253.679,156.193 253.301,156.799 252.681 L 157.901 251.554 180.080 251.666 C 198.707 251.760,202.370 251.862,202.952 252.303 C 203.411 252.651,203.365 252.527,202.816 251.939 L 201.986 251.048 180.027 250.962 L 158.067 250.875 156.882 252.055 M211.554 262.626 C 211.640 268.755,211.856 273.625,212.052 273.821 C 212.270 274.040,212.324 270.137,212.198 263.259 C 212.088 257.259,211.864 252.221,211.700 252.064 C 211.537 251.906,211.471 256.659,211.554 262.626 M154.981 254.853 C 154.543 255.670,154.448 304.387,154.883 305.070 C 155.030 305.302,155.106 294.263,155.052 280.539 C 154.985 263.544,155.076 255.357,155.338 254.867 C 155.550 254.471,155.641 254.148,155.541 254.148 C 155.440 254.148,155.189 254.465,154.981 254.853 M204.730 280.036 C 204.730 293.774,204.776 299.394,204.831 292.525 C 204.887 285.656,204.887 274.417,204.831 267.548 C 204.776 260.679,204.730 266.299,204.730 280.036 M179.034 263.298 C 178.260 263.440,179.192 263.540,181.404 263.551 C 183.409 263.562,184.886 263.514,184.686 263.445 C 183.895 263.172,180.240 263.077,179.034 263.298 M174.854 264.343 C 174.389 264.856,174.279 265.343,174.462 266.073 C 174.904 267.834,175.245 267.983,176.932 267.148 C 178.018 266.610,179.002 266.421,180.300 266.499 C 185.623 266.819,186.489 266.757,186.629 266.041 C 186.783 265.250,186.011 263.628,185.479 263.628 C 185.281 263.628,185.395 263.933,185.732 264.305 C 187.073 265.787,185.478 266.714,182.464 266.206 C 180.036 265.796,179.033 265.882,176.244 266.736 C 175.135 267.075,174.585 264.850,175.596 264.111 C 175.959 263.845,176.086 263.628,175.878 263.628 C 175.670 263.628,175.209 263.950,174.854 264.343 M188.059 267.526 C 187.129 267.769,186.916 269.159,187.408 271.766 C 187.847 274.095,188.932 275.540,189.375 274.386 C 189.495 274.072,189.390 273.944,189.104 274.054 C 188.394 274.326,187.545 269.279,188.173 268.523 C 188.425 268.219,188.842 268.052,189.101 268.151 C 189.396 268.264,189.495 268.134,189.368 267.803 C 189.158 267.256,189.121 267.248,188.059 267.526 M171.012 269.098 C 171.012 269.298,171.545 269.451,172.197 269.437 C 173.190 269.415,173.264 269.360,172.653 269.098 C 171.645 268.665,171.012 268.665,171.012 269.098 M189.707 270.191 C 189.707 271.094,189.778 271.463,189.865 271.012 C 189.952 270.561,189.952 269.822,189.865 269.371 C 189.778 268.920,189.707 269.289,189.707 270.191 M183.592 275.901 L 182.498 276.395 183.592 276.338 C 185.692 276.227,185.920 276.345,186.168 277.664 C 186.659 280.282,185.577 281.567,183.738 280.548 C 183.257 280.281,182.534 280.067,182.133 280.072 C 181.285 280.084,182.268 280.597,184.464 281.289 C 187.672 282.299,188.531 288.118,185.819 290.462 C 184.626 291.493,184.474 291.777,184.861 292.243 C 185.416 292.912,189.064 293.019,189.461 292.378 C 189.628 292.107,189.560 292.056,189.271 292.235 C 189.024 292.387,188.089 292.308,187.194 292.057 L 185.567 291.601 186.299 290.822 C 187.267 289.792,188.216 287.041,188.003 285.883 C 187.367 282.413,187.371 282.364,188.296 281.942 C 189.504 281.392,189.624 281.792,189.915 287.329 C 190.126 291.340,190.177 291.602,190.337 289.517 C 190.705 284.734,189.855 281.344,188.204 281.014 C 187.223 280.817,187.137 280.664,186.984 278.817 C 186.751 276.005,185.583 275.001,183.592 275.901 M179.559 276.957 C 178.863 277.515,178.863 277.519,179.581 277.189 C 179.982 277.004,180.556 276.762,180.857 276.651 C 181.329 276.475,181.326 276.444,180.835 276.419 C 180.523 276.403,179.948 276.645,179.559 276.957 M179.559 279.501 C 179.948 279.796,180.523 280.035,180.835 280.034 C 181.148 280.033,180.934 279.787,180.359 279.487 C 179.037 278.798,178.638 278.805,179.559 279.501 M271.964 281.056 C 271.249 281.799,270.353 282.602,269.972 282.841 C 269.558 283.101,269.471 283.284,269.757 283.297 C 270.319 283.322,273.739 280.180,273.456 279.898 C 273.350 279.792,272.678 280.313,271.964 281.056 M214.025 284.438 L 212.762 285.559 214.221 284.544 C 215.023 283.986,215.747 283.482,215.831 283.424 C 215.915 283.366,215.826 283.318,215.635 283.318 C 215.444 283.318,214.719 283.822,214.025 284.438 M211.938 286.595 C 211.605 287.129,211.497 289.880,211.528 297.078 C 211.554 303.267,211.680 306.303,211.871 305.378 C 212.037 304.576,212.183 300.056,212.194 295.333 C 212.209 289.165,212.338 286.622,212.653 286.308 C 212.893 286.067,212.933 285.871,212.740 285.871 C 212.548 285.871,212.187 286.196,211.938 286.595 M171.012 289.699 C 171.012 290.111,171.440 290.242,172.744 290.230 L 174.476 290.214 173.017 289.689 C 171.181 289.027,171.012 289.028,171.012 289.699 M176.208 290.754 C 177.640 291.841,176.415 293.414,174.677 292.717 C 172.854 291.987,170.494 291.332,170.841 291.654 C 171.035 291.834,171.851 292.188,172.653 292.442 C 173.455 292.695,174.435 293.125,174.830 293.397 C 175.943 294.163,176.473 293.995,177.017 292.707 C 177.536 291.478,177.001 290.228,175.969 290.258 C 175.749 290.264,175.857 290.487,176.208 290.754 M179.095 295.460 C 178.703 295.932,178.920 296.008,180.721 296.029 C 182.988 296.056,183.043 295.482,180.808 295.120 C 179.934 294.978,179.408 295.082,179.095 295.460 M203.226 306.615 L 202.442 307.566 180.207 307.671 L 157.973 307.775 156.835 306.818 C 156.209 306.291,155.698 305.998,155.700 306.166 C 155.701 306.335,156.252 306.846,156.923 307.304 L 158.145 308.135 180.249 308.033 L 202.354 307.931 203.345 306.939 C 203.891 306.394,204.264 305.884,204.174 305.806 C 204.084 305.728,203.658 306.092,203.226 306.615 M150.464 310.413 C 150.813 310.875,151.518 311.557,152.030 311.927 C 152.580 312.324,152.371 311.979,151.521 311.086 C 149.919 309.402,149.501 309.136,150.464 310.413 M207.512 312.338 C 206.786 312.853,205.729 313.228,204.960 313.243 C 204.237 313.258,203.318 313.424,202.917 313.613 C 202.420 313.847,202.927 313.889,204.511 313.746 C 206.416 313.574,207.040 313.343,207.975 312.467 C 209.341 311.187,209.191 311.145,207.512 312.338 M153.243 312.706 C 153.699 313.165,156.171 313.937,157.156 313.927 C 158.038 313.919,158.032 313.903,156.974 313.443 C 155.643 312.864,152.853 312.313,153.243 312.706 " stroke="none" fill="#94a4ac" fill-rule="evenodd"></path><path id="path5" d="M151.011 42.994 C 149.678 44.380,148.341 45.811,148.040 46.175 C 147.564 46.751,147.493 50.576,147.493 75.652 L 147.493 104.467 149.651 107.315 C 153.035 111.782,150.160 111.378,179.482 111.502 C 207.824 111.622,207.255 111.664,209.298 109.296 C 210.000 108.483,211.139 107.228,211.830 106.507 L 213.085 105.196 213.321 94.075 C 213.450 87.958,213.678 82.676,213.828 82.337 C 214.616 80.551,214.117 80.583,240.436 80.583 L 265.037 80.583 265.791 81.642 C 266.543 82.699,266.545 82.798,266.545 127.153 L 266.545 171.605 265.502 172.604 L 264.460 173.603 240.061 173.492 L 215.661 173.382 214.785 172.565 C 213.570 171.433,213.374 169.588,213.299 158.614 C 213.229 148.241,213.230 148.247,211.577 146.439 C 210.925 145.726,210.392 145.044,210.392 144.924 C 210.392 144.620,209.380 143.632,208.073 142.662 L 206.969 141.841 180.747 141.841 L 154.525 141.841 152.741 142.660 C 151.760 143.110,150.957 143.609,150.957 143.769 C 150.957 143.929,150.791 144.258,150.587 144.500 C 150.384 144.743,149.604 145.761,148.855 146.764 L 147.493 148.587 147.493 177.818 L 147.493 207.049 148.388 208.265 C 149.550 209.842,149.809 210.158,151.253 211.756 C 152.929 213.612,152.849 213.607,180.533 213.643 C 208.227 213.679,207.264 213.743,209.286 211.713 C 210.110 210.886,211.311 209.679,211.955 209.030 L 213.127 207.851 213.232 196.191 L 213.338 184.530 214.390 183.479 C 215.853 182.016,217.061 181.951,242.856 181.951 L 264.635 181.951 265.590 183.203 L 266.545 184.455 266.545 229.043 L 266.545 273.632 265.577 274.464 L 264.609 275.296 240.144 275.283 L 215.679 275.270 214.607 274.394 L 213.536 273.518 213.409 263.012 C 213.245 249.330,213.556 250.582,209.175 245.961 L 207.775 244.485 184.380 244.360 C 154.956 244.202,153.200 244.290,151.280 246.024 C 150.501 246.729,149.863 247.518,149.863 247.779 C 149.863 248.039,149.734 248.308,149.577 248.374 C 149.419 248.441,148.886 249.070,148.392 249.772 L 147.493 251.048 147.493 279.490 C 147.493 295.132,147.611 308.341,147.754 308.842 C 148.044 309.853,150.544 312.588,152.642 314.188 L 153.999 315.223 179.917 315.223 C 209.382 315.223,206.813 315.488,210.382 312.083 L 213.107 309.482 213.300 298.314 C 213.406 292.172,213.647 286.901,213.835 286.600 C 214.885 284.916,214.022 284.970,243.209 284.777 C 275.287 284.564,273.045 284.885,275.002 280.230 C 275.969 277.930,275.996 78.265,275.030 75.146 C 273.636 70.645,274.335 70.738,242.145 70.738 C 215.983 70.738,215.406 70.723,214.400 70.007 L 213.372 69.275 213.249 58.048 C 213.113 45.589,213.303 46.564,210.406 43.411 C 207.457 40.202,210.315 40.479,180.181 40.476 L 153.434 40.474 151.011 42.994 M209.638 43.966 C 212.659 47.133,212.580 46.712,212.580 59.641 L 212.580 69.227 213.926 70.336 L 215.272 71.446 242.823 71.548 C 274.238 71.664,272.435 71.482,273.854 74.689 C 274.556 76.276,274.567 77.864,274.568 177.713 L 274.569 279.125 273.748 280.688 C 273.118 281.886,272.484 282.461,271.034 283.149 L 269.143 284.047 242.332 284.047 L 215.521 284.047 214.233 285.230 L 212.944 286.412 212.947 294.984 C 212.950 307.207,212.677 308.682,209.904 311.430 C 206.649 314.655,208.182 314.494,180.675 314.492 C 155.620 314.490,154.509 314.428,152.416 312.918 C 147.897 309.658,147.976 310.299,148.112 278.083 L 148.222 251.743 149.822 249.288 C 152.878 244.598,152.270 244.693,179.398 244.680 C 205.908 244.668,206.779 244.722,208.523 246.481 C 210.073 248.043,211.486 249.744,211.486 250.048 C 211.486 250.165,211.763 250.568,212.101 250.942 C 212.643 251.541,212.736 252.973,212.878 262.912 C 212.981 270.168,213.170 274.202,213.407 274.202 C 213.610 274.202,213.985 274.490,214.242 274.840 C 214.993 275.867,264.465 275.994,265.784 274.973 C 267.189 273.886,267.220 272.896,267.248 227.616 C 267.275 183.531,267.297 184.272,265.907 182.759 C 265.656 182.486,265.451 182.111,265.451 181.925 C 265.451 181.720,255.573 181.586,240.400 181.586 L 215.349 181.586 214.147 182.752 L 212.944 183.917 212.944 192.176 C 212.944 204.644,212.736 206.741,211.343 208.293 C 210.720 208.987,209.690 210.154,209.056 210.885 C 208.421 211.617,207.724 212.215,207.506 212.215 C 207.288 212.215,207.110 212.379,207.110 212.580 C 207.110 213.075,157.224 213.077,154.616 212.582 C 152.739 212.226,150.976 211.037,150.963 210.119 C 150.960 209.868,150.815 209.663,150.642 209.663 C 150.469 209.663,149.854 208.980,149.275 208.145 L 148.222 206.626 148.111 180.381 C 147.988 151.376,148.086 149.453,149.814 146.893 C 150.443 145.962,150.962 145.059,150.969 144.888 C 151.046 142.793,154.012 142.571,181.818 142.571 L 207.110 142.571 208.478 143.947 C 209.230 144.704,210.491 146.268,211.281 147.423 L 212.717 149.522 212.878 160.797 L 213.038 172.072 214.378 173.000 L 215.718 173.929 240.268 173.929 L 264.818 173.929 266.046 172.627 L 267.274 171.325 267.253 128.233 C 267.230 82.586,267.211 82.030,265.661 80.696 L 264.681 79.854 240.203 79.854 L 215.724 79.854 214.522 80.675 C 212.824 81.834,212.876 81.492,212.615 93.345 C 212.484 99.262,212.228 104.348,212.046 104.649 C 210.782 106.731,207.670 110.151,206.824 110.388 C 204.829 110.947,154.452 110.720,153.382 110.148 C 152.850 109.863,151.554 108.469,150.501 107.049 L 148.587 104.467 148.587 75.652 C 148.587 52.929,148.685 46.723,149.049 46.299 C 153.897 40.650,149.538 41.307,181.894 41.351 L 207.178 41.386 209.638 43.966 M156.718 49.196 C 155.339 50.807,155.333 50.928,155.335 75.728 C 155.337 98.692,155.376 100.149,156.002 101.100 C 157.440 103.280,156.116 103.166,180.216 103.179 L 202.366 103.191 203.462 101.677 L 204.558 100.164 204.558 75.582 L 204.558 51.000 203.603 49.748 L 202.648 48.496 179.983 48.496 C 158.080 48.496,157.298 48.519,156.718 49.196 M203.099 49.954 C 204.155 51.010,204.253 99.261,203.203 101.038 L 202.577 102.097 179.958 102.085 L 157.338 102.074 156.609 101.082 C 155.899 100.118,155.877 99.432,155.775 75.661 L 155.671 51.231 156.610 50.228 L 157.550 49.225 179.960 49.225 C 201.884 49.225,202.386 49.241,203.099 49.954 M178.293 58.617 C 177.346 59.268,175.780 60.581,174.596 61.714 C 174.229 62.065,173.765 62.352,173.564 62.352 C 173.364 62.352,173.200 62.603,173.200 62.910 C 173.200 63.217,172.954 63.563,172.653 63.679 C 171.221 64.228,172.340 66.688,174.294 67.284 C 177.182 68.165,177.205 68.252,177.550 79.490 C 177.898 90.829,178.870 93.577,181.609 90.954 C 184.178 88.492,184.209 88.279,184.076 73.636 L 183.956 60.472 182.594 59.224 C 181.055 57.814,179.730 57.627,178.293 58.617 M181.467 59.344 C 182.703 60.441,184.053 64.456,183.561 65.573 C 183.414 65.907,183.196 71.021,183.078 76.937 L 182.862 87.694 181.768 89.061 C 179.305 92.140,178.313 89.693,178.282 80.462 C 178.243 68.983,178.037 68.136,174.900 66.531 C 172.781 65.447,172.614 64.821,174.065 63.383 C 177.296 60.182,179.449 58.399,180.141 58.354 C 180.249 58.347,180.846 58.792,181.467 59.344 M157.566 151.206 C 155.397 152.102,155.525 150.528,155.417 177.804 L 155.318 202.646 156.632 203.800 L 157.946 204.954 180.135 204.847 L 202.323 204.740 203.440 203.669 L 204.558 202.598 204.558 178.131 L 204.558 153.664 203.504 152.402 L 202.450 151.139 180.259 151.069 C 168.054 151.030,157.842 151.092,157.566 151.206 M202.917 152.261 C 203.890 152.996,204.276 201.984,203.319 203.293 C 202.488 204.429,157.495 204.418,156.636 203.282 C 156.157 202.648,156.084 199.328,156.074 177.963 L 156.062 153.374 156.855 152.530 L 157.648 151.686 179.918 151.698 C 199.208 151.708,202.285 151.783,202.917 152.261 M177.361 160.688 C 175.736 160.818,175.308 161.037,173.912 162.460 C 173.036 163.353,172.114 164.084,171.864 164.084 C 169.812 164.084,168.829 167.540,170.279 169.656 L 171.151 170.928 173.095 169.876 C 174.164 169.297,175.242 168.824,175.489 168.824 C 175.737 168.824,176.759 168.088,177.760 167.189 C 178.761 166.290,179.924 165.551,180.344 165.548 C 181.233 165.541,184.373 168.475,185.364 170.237 L 186.043 171.445 184.635 172.954 C 183.861 173.784,183.104 174.521,182.954 174.591 C 182.803 174.661,182.680 174.973,182.680 175.284 C 182.680 175.923,180.303 178.298,179.646 178.316 C 179.131 178.330,178.146 179.626,177.786 180.766 C 177.643 181.217,177.373 181.586,177.186 181.586 C 176.999 181.586,176.846 181.837,176.846 182.145 C 176.846 182.452,176.559 182.812,176.208 182.946 C 175.857 183.079,175.077 183.750,174.476 184.435 C 173.874 185.121,172.610 186.477,171.666 187.448 L 169.949 189.215 170.325 191.348 C 170.952 194.907,171.730 195.134,181.951 194.730 C 189.191 194.444,189.765 194.238,189.432 192.042 C 189.042 189.461,188.648 188.996,186.654 188.760 C 184.008 188.447,182.336 186.778,182.317 184.431 C 182.314 184.040,183.840 182.508,184.941 181.797 C 185.483 181.447,186.262 180.467,186.672 179.620 C 187.083 178.772,187.926 177.596,188.546 177.006 C 192.282 173.454,192.072 166.130,188.158 163.537 C 187.553 163.136,187.057 162.603,187.057 162.352 C 187.056 162.101,186.809 161.896,186.509 161.896 C 186.208 161.896,185.962 161.743,185.962 161.556 C 185.962 160.878,181.105 160.388,177.361 160.688 M185.296 161.930 C 185.662 162.126,185.962 162.679,185.962 163.159 C 185.962 164.206,187.523 165.542,188.746 165.542 C 189.269 165.542,189.608 165.757,189.608 166.089 C 189.608 166.390,189.752 166.636,189.929 166.636 C 191.580 166.636,190.080 174.273,188.194 175.468 C 187.568 175.864,187.056 176.418,187.056 176.699 C 187.056 176.981,186.898 177.211,186.705 177.211 C 186.512 177.211,186.171 177.892,185.947 178.724 C 185.495 180.402,185.024 181.007,183.890 181.367 C 180.588 182.415,180.506 186.446,183.699 190.633 L 185.907 193.528 180.474 193.790 C 173.835 194.110,172.731 193.767,171.611 191.033 L 170.924 189.358 173.156 187.042 C 174.383 185.768,175.387 184.593,175.387 184.432 C 175.387 184.271,175.690 184.139,176.060 184.139 C 177.039 184.139,179.034 181.255,179.034 179.841 C 179.034 179.466,181.215 178.304,181.919 178.304 C 182.142 178.304,182.692 177.525,183.141 176.572 C 184.098 174.539,184.612 173.929,185.368 173.929 C 186.885 173.929,187.439 171.489,186.418 169.312 C 184.026 164.214,178.195 162.663,176.730 166.736 C 176.602 167.091,176.207 167.476,175.851 167.590 C 175.496 167.704,174.290 168.176,173.171 168.638 L 171.137 169.478 170.475 168.249 C 169.665 166.744,170.030 166.145,172.371 165.142 C 173.305 164.742,174.212 164.000,174.649 163.278 C 175.782 161.410,182.690 160.535,185.296 161.930 M156.754 253.466 L 155.515 255.031 155.515 280.022 L 155.515 305.014 156.426 305.925 L 157.338 306.837 179.864 306.936 L 202.390 307.035 203.244 306.114 C 204.526 304.730,204.550 304.256,204.554 279.202 C 204.558 256.951,204.527 255.882,203.855 254.565 C 202.537 251.981,204.168 252.155,179.943 252.022 L 157.993 251.901 156.754 253.466 M202.917 254.068 C 204.047 255.604,204.064 304.860,202.934 305.685 C 201.747 306.553,199.329 306.648,178.282 306.651 L 158.022 306.655 157.042 305.632 L 156.062 304.609 156.062 280.051 L 156.062 255.493 156.992 254.273 L 157.922 253.054 180.055 253.065 L 202.188 253.077 202.917 254.068 M177.028 262.240 C 174.951 262.569,172.835 264.002,172.835 265.080 C 172.835 265.253,172.097 266.132,171.194 267.034 C 169.306 268.922,169.224 269.330,170.441 270.747 L 171.329 271.780 173.632 271.096 C 175.131 270.651,176.507 269.916,177.575 268.990 C 179.378 267.426,180.710 267.323,183.584 268.524 L 184.868 269.060 184.868 271.542 L 184.868 274.024 183.500 274.499 C 182.748 274.760,181.559 275.101,180.857 275.256 C 179.223 275.617,177.572 276.480,176.724 277.417 C 176.033 278.181,178.206 281.108,179.490 281.143 C 179.740 281.150,180.520 281.444,181.222 281.797 C 187.182 284.793,187.610 287.279,182.717 290.475 C 181.834 291.051,180.890 291.686,180.618 291.886 C 180.252 292.156,179.819 291.909,178.941 290.928 C 178.290 290.201,176.855 289.227,175.752 288.763 C 174.649 288.299,173.262 287.456,172.669 286.889 C 171.000 285.295,169.738 286.457,169.451 289.852 C 169.266 292.037,169.956 293.062,172.284 294.063 C 172.888 294.323,173.916 295.021,174.569 295.615 C 177.351 298.147,184.323 298.312,186.330 295.894 C 186.604 295.564,187.613 294.896,188.574 294.409 C 192.573 292.383,193.062 283.308,189.386 279.343 C 188.281 278.152,188.287 278.089,189.642 276.402 C 190.912 274.822,191.919 269.439,191.098 268.618 C 190.880 268.401,190.702 267.934,190.702 267.582 C 190.702 267.230,189.758 265.972,188.605 264.787 C 185.769 261.872,183.079 261.281,177.028 262.240 M185.759 263.299 C 186.472 263.720,187.056 264.196,187.056 264.357 C 187.056 264.518,187.600 265.199,188.265 265.871 C 191.245 268.879,191.567 272.874,189.039 275.476 C 187.280 277.288,187.132 278.229,188.403 279.527 C 190.570 281.741,190.726 282.244,190.729 287.045 C 190.733 292.344,190.363 293.158,187.732 293.644 C 186.552 293.863,185.927 294.224,185.416 294.985 C 183.708 297.526,179.030 297.254,174.681 294.360 C 173.391 293.501,172.119 292.799,171.856 292.799 C 170.385 292.799,169.932 291.495,170.589 289.162 L 171.216 286.940 172.276 288.046 C 172.871 288.667,173.714 289.152,174.198 289.152 C 175.683 289.152,177.768 290.630,178.534 292.226 C 179.708 294.668,181.403 294.384,183.400 291.409 C 183.695 290.968,184.230 290.515,184.589 290.401 C 189.053 288.984,186.679 282.108,181.332 280.965 C 180.690 280.828,179.473 280.102,178.627 279.351 L 177.088 277.985 178.172 277.214 C 178.767 276.790,180.703 276.035,182.472 275.536 C 186.699 274.346,186.753 274.283,186.257 271.100 L 185.859 268.545 183.996 267.725 C 180.981 266.399,178.621 266.651,176.481 268.528 C 174.941 269.878,171.433 270.772,170.842 269.964 C 170.243 269.145,170.795 268.137,172.011 267.832 C 172.478 267.715,173.006 267.254,173.185 266.809 C 174.557 263.389,174.445 263.503,177.028 262.890 C 179.613 262.276,184.406 262.501,185.759 263.299 " stroke="none" fill="#7c8c9c" fill-rule="evenodd"></path><path id="path6" d="M155.333 39.731 C 153.159 40.020,150.957 40.749,150.957 41.178 C 150.957 41.326,150.290 42.169,149.475 43.052 C 148.660 43.935,147.635 45.234,147.196 45.938 L 146.399 47.220 146.286 73.167 C 146.177 98.313,146.392 105.376,147.277 105.671 C 147.496 105.744,147.675 105.990,147.675 106.218 C 147.675 106.445,148.053 106.965,148.515 107.372 C 148.976 107.780,149.709 108.698,150.143 109.412 C 151.646 111.885,150.019 111.759,180.456 111.759 C 210.673 111.759,209.487 111.843,210.222 109.672 C 210.339 109.326,211.012 108.506,211.717 107.849 C 213.879 105.833,213.842 106.054,214.038 94.075 C 214.186 85.056,214.323 82.798,214.764 82.133 L 215.308 81.313 240.184 81.313 C 264.406 81.313,265.071 81.331,265.438 82.018 C 265.964 83.000,265.964 170.783,265.438 171.765 C 265.071 172.452,264.406 172.470,240.184 172.470 L 215.308 172.470 214.764 171.650 C 214.322 170.982,214.187 168.682,214.038 159.308 C 213.842 146.913,213.970 147.706,211.777 145.305 C 211.227 144.704,210.321 143.676,209.764 143.020 C 208.265 141.258,206.394 141.136,180.665 141.123 C 153.696 141.110,150.009 141.439,149.883 143.872 C 149.872 144.086,149.288 144.906,148.585 145.695 C 146.075 148.509,146.183 146.959,146.297 178.487 C 146.411 210.271,146.195 207.679,148.971 210.526 C 149.583 211.154,150.322 212.004,150.612 212.414 C 152.044 214.439,151.502 214.403,180.547 214.401 C 210.756 214.398,207.696 214.709,210.982 211.302 C 214.275 207.887,214.033 209.080,214.036 196.223 C 214.038 184.866,214.044 184.782,214.859 183.923 L 215.679 183.057 240.321 183.051 L 264.963 183.045 265.398 183.865 C 266.125 185.235,265.820 273.747,265.087 274.210 C 264.068 274.854,215.813 274.645,214.950 273.993 C 214.253 273.466,214.216 272.950,214.116 262.245 C 214.000 249.862,213.911 249.350,211.499 247.098 C 210.890 246.529,210.392 245.917,210.392 245.738 C 210.392 245.558,209.695 245.039,208.842 244.584 L 207.293 243.756 180.310 243.756 C 150.523 243.756,151.461 243.685,149.974 246.037 C 149.625 246.587,149.007 247.372,148.599 247.782 C 146.258 250.134,146.399 248.104,146.399 279.490 C 146.399 311.704,146.159 309.075,149.407 312.393 C 153.470 316.544,150.086 316.135,180.388 316.133 C 209.966 316.130,207.298 316.360,210.039 313.574 C 210.735 312.867,211.640 312.046,212.051 311.750 C 214.030 310.326,214.038 310.270,214.038 298.243 C 214.038 287.356,214.057 287.060,214.806 286.383 C 215.542 285.716,216.693 285.680,243.156 285.491 C 273.201 285.276,272.480 285.330,274.489 283.171 C 276.473 281.041,276.390 285.615,276.390 177.843 C 276.390 70.220,276.456 74.022,274.570 72.248 C 272.746 70.531,273.267 70.561,243.811 70.450 C 219.050 70.356,215.688 70.277,214.914 69.770 L 214.038 69.196 214.038 57.893 C 214.038 46.216,213.705 43.756,212.121 43.756 C 211.943 43.756,211.194 43.077,210.456 42.248 C 207.939 39.417,209.515 39.568,181.951 39.514 C 168.414 39.487,156.436 39.585,155.333 39.731 M207.923 41.135 C 208.990 41.839,211.505 44.465,212.511 45.927 C 213.049 46.709,213.142 48.238,213.249 58.048 L 213.372 69.275 214.400 70.007 C 215.406 70.723,215.983 70.738,242.145 70.738 C 274.335 70.738,273.636 70.645,275.030 75.146 C 275.996 78.265,275.969 277.930,275.002 280.230 C 273.045 284.885,275.287 284.564,243.209 284.777 C 214.022 284.970,214.885 284.916,213.835 286.600 C 213.647 286.901,213.406 292.172,213.300 298.314 L 213.107 309.482 210.382 312.083 C 206.813 315.488,209.382 315.223,179.917 315.223 L 153.999 315.223 152.642 314.188 C 150.544 312.588,148.044 309.853,147.754 308.842 C 147.611 308.341,147.493 295.132,147.493 279.490 L 147.493 251.048 148.392 249.772 C 148.886 249.070,149.419 248.441,149.577 248.374 C 149.734 248.308,149.863 248.039,149.863 247.779 C 149.863 247.518,150.501 246.729,151.280 246.024 C 153.200 244.290,154.956 244.202,184.380 244.360 L 207.775 244.485 209.175 245.961 C 213.556 250.582,213.245 249.330,213.409 263.012 L 213.536 273.518 214.607 274.394 L 215.679 275.270 240.144 275.283 L 264.609 275.296 265.577 274.464 L 266.545 273.632 266.545 229.043 L 266.545 184.455 265.590 183.203 L 264.635 181.951 242.856 181.951 C 217.061 181.951,215.853 182.016,214.390 183.479 L 213.338 184.530 213.232 196.191 L 213.127 207.851 211.955 209.030 C 206.801 214.219,210.462 213.681,180.533 213.643 C 152.849 213.607,152.929 213.612,151.253 211.756 C 149.809 210.158,149.550 209.842,148.388 208.265 L 147.493 207.049 147.493 177.818 L 147.493 148.587 148.855 146.764 C 149.604 145.761,150.384 144.743,150.587 144.500 C 150.791 144.258,150.957 143.929,150.957 143.769 C 150.957 143.609,151.760 143.110,152.741 142.660 L 154.525 141.841 180.747 141.841 L 206.969 141.841 208.073 142.662 C 209.380 143.632,210.392 144.620,210.392 144.924 C 210.392 145.044,210.925 145.726,211.577 146.439 C 213.230 148.247,213.229 148.241,213.299 158.614 C 213.374 169.588,213.570 171.433,214.785 172.565 L 215.661 173.382 240.061 173.492 L 264.460 173.603 265.502 172.604 L 266.545 171.605 266.545 127.153 C 266.545 82.798,266.543 82.699,265.791 81.642 L 265.037 80.583 240.436 80.583 C 214.117 80.583,214.616 80.551,213.828 82.337 C 213.678 82.676,213.450 87.958,213.321 94.075 L 213.085 105.196 211.830 106.507 C 211.139 107.228,210.000 108.483,209.298 109.296 C 207.255 111.664,207.824 111.622,179.482 111.502 C 150.160 111.378,153.035 111.782,149.651 107.315 L 147.493 104.467 147.493 75.652 C 147.493 50.576,147.564 46.751,148.040 46.175 C 148.341 45.811,149.678 44.380,151.011 42.994 L 153.434 40.474 180.181 40.476 C 205.316 40.479,206.988 40.518,207.923 41.135 M156.610 50.228 L 155.671 51.231 155.775 75.661 C 155.877 99.432,155.899 100.118,156.609 101.082 L 157.338 102.074 179.958 102.085 L 202.577 102.097 203.203 101.038 C 204.253 99.261,204.155 51.010,203.099 49.954 C 202.386 49.241,201.884 49.225,179.960 49.225 L 157.550 49.225 156.610 50.228 M202.644 50.316 L 203.464 50.859 203.464 75.510 C 203.464 100.104,203.462 100.162,202.697 100.855 C 201.556 101.888,158.611 102.172,157.486 101.154 C 156.471 100.235,156.392 51.365,157.404 50.246 C 158.250 49.312,201.228 49.378,202.644 50.316 M178.709 57.448 C 178.029 57.743,176.868 58.516,176.129 59.165 C 175.390 59.815,174.216 60.839,173.520 61.440 C 171.074 63.554,170.652 64.450,170.897 67.020 C 171.082 68.955,171.209 69.276,171.702 69.052 C 176.124 67.044,176.846 68.440,176.846 78.998 C 176.846 87.548,177.290 90.500,178.825 92.154 C 180.420 93.872,182.697 92.672,184.423 89.203 L 185.597 86.845 185.597 75.904 C 185.597 61.667,185.035 59.012,181.718 57.590 C 180.810 57.201,180.040 56.889,180.006 56.897 C 179.973 56.905,179.389 57.152,178.709 57.448 M182.594 59.224 L 183.956 60.472 184.076 73.636 C 184.209 88.279,184.178 88.492,181.609 90.954 C 178.870 93.577,177.898 90.829,177.550 79.490 C 177.205 68.252,177.182 68.165,174.294 67.284 C 172.340 66.688,171.221 64.228,172.653 63.679 C 172.954 63.563,173.200 63.217,173.200 62.910 C 173.200 62.603,173.364 62.352,173.564 62.352 C 173.765 62.352,174.229 62.065,174.596 61.714 C 178.898 57.596,180.331 57.150,182.594 59.224 M156.855 152.530 L 156.062 153.374 156.074 177.963 C 156.084 199.328,156.157 202.648,156.636 203.282 C 157.495 204.418,202.488 204.429,203.319 203.293 C 204.276 201.984,203.890 152.996,202.917 152.261 C 202.285 151.783,199.208 151.708,179.918 151.698 L 157.648 151.686 156.855 152.530 M202.797 153.019 C 203.431 153.592,203.464 154.849,203.464 178.091 L 203.464 202.559 202.644 203.103 C 201.299 203.993,158.455 204.127,157.479 203.244 C 156.622 202.469,156.381 153.701,157.229 152.853 C 158.004 152.078,201.934 152.238,202.797 153.019 M177.743 159.708 C 175.433 160.043,174.159 160.704,172.182 162.591 C 171.321 163.412,170.418 164.085,170.176 164.086 C 168.670 164.094,168.065 167.681,169.203 169.863 C 170.603 172.550,171.040 172.708,173.073 171.268 C 174.045 170.580,175.287 169.911,175.832 169.781 C 176.378 169.651,177.518 168.885,178.366 168.078 C 180.236 166.299,180.171 166.285,182.770 169.038 L 184.866 171.258 183.781 172.224 C 183.185 172.755,182.277 174.019,181.764 175.032 C 181.250 176.045,180.467 177.013,180.023 177.182 C 178.976 177.581,177.211 179.353,177.211 180.005 C 177.211 180.284,176.308 181.353,175.205 182.379 C 174.102 183.406,173.200 184.400,173.200 184.588 C 173.200 184.776,172.595 185.449,171.855 186.084 C 169.055 188.488,168.900 188.741,169.088 190.615 C 169.607 195.803,169.769 195.875,180.492 195.733 C 190.614 195.599,190.702 195.566,190.702 191.908 C 190.702 188.788,189.532 187.420,186.865 187.420 C 185.428 187.420,184.994 187.242,184.103 186.288 C 182.632 184.713,182.824 184.128,185.325 182.561 C 185.877 182.215,186.753 181.260,187.271 180.439 C 187.790 179.618,188.733 178.441,189.367 177.824 C 192.560 174.716,192.853 166.634,189.881 163.634 C 189.531 163.280,189.144 162.990,189.022 162.990 C 188.901 162.990,188.493 162.597,188.115 162.117 C 186.522 160.092,182.127 159.071,177.743 159.708 M185.324 161.032 C 185.675 161.133,185.962 161.369,185.962 161.556 C 185.962 161.743,186.208 161.896,186.509 161.896 C 186.809 161.896,187.056 162.101,187.057 162.352 C 187.057 162.603,187.553 163.136,188.158 163.537 C 192.072 166.130,192.282 173.454,188.546 177.006 C 187.926 177.596,187.083 178.772,186.672 179.620 C 186.262 180.467,185.483 181.447,184.941 181.797 C 183.840 182.508,182.314 184.040,182.317 184.431 C 182.336 186.778,184.008 188.447,186.654 188.760 C 188.648 188.996,189.042 189.461,189.432 192.042 C 189.765 194.238,189.191 194.444,181.951 194.730 C 171.730 195.134,170.952 194.907,170.325 191.348 L 169.949 189.215 171.666 187.448 C 172.610 186.477,173.874 185.121,174.476 184.435 C 175.077 183.750,175.857 183.079,176.208 182.946 C 176.559 182.812,176.846 182.452,176.846 182.145 C 176.846 181.837,176.999 181.586,177.186 181.586 C 177.373 181.586,177.643 181.217,177.786 180.766 C 178.146 179.626,179.131 178.330,179.646 178.316 C 180.303 178.298,182.680 175.923,182.680 175.284 C 182.680 174.973,182.803 174.661,182.954 174.591 C 183.104 174.521,183.861 173.784,184.635 172.954 L 186.043 171.445 185.364 170.237 C 184.373 168.475,181.233 165.541,180.344 165.548 C 179.924 165.551,178.761 166.290,177.760 167.189 C 176.759 168.088,175.737 168.824,175.489 168.824 C 175.242 168.824,174.164 169.297,173.095 169.876 L 171.151 170.928 170.279 169.656 C 168.829 167.540,169.812 164.084,171.864 164.084 C 172.114 164.084,173.036 163.353,173.912 162.460 C 175.308 161.037,175.736 160.818,177.361 160.688 C 179.386 160.525,184.305 160.738,185.324 161.032 M156.992 254.273 L 156.062 255.493 156.062 280.051 L 156.062 304.609 157.042 305.632 L 158.022 306.655 178.282 306.651 C 199.329 306.648,201.747 306.553,202.934 305.685 C 204.064 304.860,204.047 255.604,202.917 254.068 L 202.188 253.077 180.055 253.065 L 157.922 253.054 156.992 254.273 M202.887 255.065 C 203.555 256.084,203.632 303.568,202.968 304.925 C 202.673 305.528,201.296 305.560,179.814 305.472 L 156.974 305.378 156.880 280.473 C 156.817 263.720,156.911 255.335,157.166 254.858 C 157.536 254.166,158.121 254.148,179.916 254.148 L 202.286 254.148 202.887 255.065 M176.846 261.322 C 175.409 261.553,173.208 262.671,173.204 263.172 C 173.202 263.423,173.055 263.628,172.879 263.628 C 172.703 263.628,172.364 264.098,172.126 264.673 C 171.888 265.248,171.293 265.932,170.805 266.194 C 168.441 267.459,168.199 269.823,170.201 272.106 C 171.299 273.359,177.940 271.533,177.940 269.978 C 177.940 268.996,179.368 268.268,180.893 268.473 C 182.864 268.737,182.998 268.909,183.272 271.526 L 183.503 273.740 181.025 274.518 C 179.662 274.946,178.277 275.296,177.948 275.296 C 177.252 275.296,175.023 277.363,175.023 278.008 C 175.023 279.163,178.790 282.224,180.211 282.224 C 180.477 282.224,180.966 282.511,181.297 282.862 C 182.095 283.708,182.666 284.129,183.825 284.726 C 186.164 285.931,185.721 287.898,182.863 288.989 C 181.960 289.334,181.222 289.758,181.222 289.931 C 181.222 290.420,179.470 290.302,179.143 289.790 C 178.760 289.192,176.702 288.058,175.997 288.058 C 175.693 288.058,174.914 287.525,174.268 286.873 C 171.530 284.115,170.247 284.200,168.959 287.226 C 167.658 290.282,168.502 292.875,171.269 294.330 C 172.030 294.730,173.156 295.611,173.770 296.288 C 176.583 299.387,184.504 299.370,187.385 296.260 C 187.867 295.740,188.777 295.098,189.407 294.835 C 191.049 294.149,191.826 292.720,192.239 289.625 C 192.833 285.178,191.461 278.578,189.943 278.578 C 189.759 278.578,189.608 278.332,189.608 278.031 C 189.608 277.730,189.769 277.484,189.965 277.484 C 191.635 277.484,192.626 268.563,191.207 266.310 C 188.412 261.874,183.663 260.225,176.846 261.322 M184.576 262.219 C 186.662 262.665,190.702 266.202,190.702 267.582 C 190.702 267.934,190.880 268.401,191.098 268.618 C 191.919 269.439,190.912 274.822,189.642 276.402 C 188.287 278.089,188.281 278.152,189.386 279.343 C 191.254 281.357,191.582 282.490,191.598 286.964 C 191.617 292.034,191.191 293.083,188.574 294.409 C 187.613 294.896,186.604 295.564,186.330 295.894 C 184.323 298.312,177.351 298.147,174.569 295.615 C 173.916 295.021,172.888 294.323,172.284 294.063 C 169.956 293.062,169.266 292.037,169.451 289.852 C 169.738 286.457,171.000 285.295,172.669 286.889 C 173.262 287.456,174.649 288.299,175.752 288.763 C 176.855 289.227,178.290 290.201,178.941 290.928 C 179.819 291.909,180.252 292.156,180.618 291.886 C 180.890 291.686,181.834 291.051,182.717 290.475 C 187.610 287.279,187.182 284.793,181.222 281.797 C 180.520 281.444,179.740 281.150,179.490 281.143 C 178.206 281.108,176.033 278.181,176.724 277.417 C 177.572 276.480,179.223 275.617,180.857 275.256 C 181.559 275.101,182.748 274.760,183.500 274.499 L 184.868 274.024 184.868 271.542 L 184.868 269.060 183.584 268.524 C 180.710 267.323,179.378 267.426,177.575 268.990 C 176.507 269.916,175.131 270.651,173.632 271.096 L 171.329 271.780 170.441 270.747 C 169.224 269.330,169.306 268.922,171.194 267.034 C 172.097 266.132,172.835 265.253,172.835 265.080 C 172.835 262.711,179.401 261.110,184.576 262.219 " stroke="none" fill="#647c8c" fill-rule="evenodd"></path><path id="path7" d="M153.428 38.920 C 151.410 39.047,151.259 39.132,148.821 41.495 C 145.260 44.946,145.492 42.556,145.490 75.801 C 145.488 107.220,145.463 106.829,147.519 108.634 C 148.166 109.202,148.968 110.082,149.301 110.590 C 150.706 112.735,149.735 112.671,180.625 112.671 L 208.907 112.671 211.408 110.210 C 215.090 106.585,214.922 107.320,215.132 93.892 L 215.314 82.224 240.109 82.224 L 264.904 82.224 265.142 84.230 C 265.462 86.935,265.446 169.493,265.125 170.647 L 264.871 171.559 240.093 171.559 L 215.314 171.559 215.132 159.344 C 214.929 145.759,214.987 146.084,212.306 143.449 C 209.312 140.507,212.184 140.750,180.383 140.749 C 148.425 140.747,151.127 140.499,148.056 143.719 C 145.372 146.533,145.488 144.992,145.488 177.845 C 145.488 211.292,145.296 209.096,148.497 212.322 C 151.641 215.492,149.757 215.314,180.310 215.314 C 210.678 215.314,208.854 215.479,211.962 212.462 C 215.108 209.409,215.132 209.284,215.132 195.797 L 215.132 184.134 240.201 184.227 L 265.269 184.321 265.360 226.436 C 265.411 249.599,265.329 269.781,265.178 271.285 L 264.904 274.020 240.413 274.020 C 226.943 274.020,215.785 273.884,215.618 273.717 C 215.451 273.550,215.227 268.053,215.121 261.502 C 214.909 248.509,214.851 248.136,212.673 245.913 C 209.941 243.124,213.386 243.391,180.205 243.391 L 150.566 243.391 148.483 245.540 C 145.322 248.802,145.500 246.765,145.493 279.812 C 145.487 312.113,145.426 311.225,147.769 312.776 C 148.546 313.290,149.428 314.187,149.729 314.769 C 151.022 317.270,150.296 317.212,180.211 317.221 C 209.840 317.230,209.427 317.260,210.584 315.021 C 210.876 314.459,211.753 313.639,212.535 313.199 C 214.930 311.853,215.132 310.659,215.132 297.883 C 215.132 289.583,215.240 286.938,215.588 286.712 C 215.839 286.550,228.924 286.335,244.667 286.235 C 276.299 286.034,274.375 286.186,276.208 283.743 C 276.933 282.777,276.938 282.131,277.030 177.965 L 277.123 73.159 276.311 71.974 C 274.712 69.640,274.775 69.644,243.276 69.644 L 215.132 69.644 215.132 58.166 C 215.132 44.636,215.156 44.751,211.598 41.342 C 209.634 39.461,209.006 39.075,207.592 38.881 C 205.880 38.646,157.220 38.681,153.428 38.920 M207.840 40.151 C 208.541 40.475,209.719 41.419,210.456 42.248 C 211.194 43.077,211.943 43.756,212.121 43.756 C 213.705 43.756,214.038 46.216,214.038 57.893 L 214.038 69.196 214.914 69.770 C 215.688 70.277,219.050 70.356,243.811 70.450 C 273.267 70.561,272.746 70.531,274.570 72.248 C 276.456 74.022,276.390 70.220,276.390 177.843 C 276.390 285.615,276.473 281.041,274.489 283.171 C 272.480 285.330,273.201 285.276,243.156 285.491 C 216.693 285.680,215.542 285.716,214.806 286.383 C 214.057 287.060,214.038 287.356,214.038 298.243 C 214.038 310.270,214.030 310.326,212.051 311.750 C 211.640 312.046,210.735 312.867,210.039 313.574 C 207.298 316.360,209.966 316.130,180.388 316.133 C 150.086 316.135,153.470 316.544,149.407 312.393 C 146.159 309.075,146.399 311.704,146.399 279.490 C 146.399 248.104,146.258 250.134,148.599 247.782 C 149.007 247.372,149.625 246.587,149.974 246.037 C 151.461 243.685,150.523 243.756,180.310 243.756 L 207.293 243.756 208.842 244.584 C 209.695 245.039,210.392 245.558,210.392 245.738 C 210.392 245.917,210.890 246.529,211.499 247.098 C 213.911 249.350,214.000 249.862,214.116 262.245 C 214.216 272.950,214.253 273.466,214.950 273.993 C 215.813 274.645,264.068 274.854,265.087 274.210 C 265.820 273.747,266.125 185.235,265.398 183.865 L 264.963 183.045 240.321 183.051 L 215.679 183.057 214.859 183.923 C 214.044 184.782,214.038 184.866,214.036 196.223 C 214.033 209.080,214.275 207.887,210.982 211.302 C 207.696 214.709,210.756 214.398,180.547 214.401 C 151.502 214.403,152.044 214.439,150.612 212.414 C 150.322 212.004,149.583 211.154,148.971 210.526 C 146.195 207.679,146.411 210.271,146.297 178.487 C 146.183 146.959,146.075 148.509,148.585 145.695 C 149.288 144.906,149.872 144.086,149.883 143.872 C 150.009 141.439,153.696 141.110,180.665 141.123 C 206.394 141.136,208.265 141.258,209.764 143.020 C 210.321 143.676,211.227 144.704,211.777 145.305 C 213.970 147.706,213.842 146.913,214.038 159.308 C 214.187 168.682,214.322 170.982,214.764 171.650 L 215.308 172.470 240.184 172.470 C 264.406 172.470,265.071 172.452,265.438 171.765 C 265.964 170.783,265.964 83.000,265.438 82.018 C 265.071 81.331,264.406 81.313,240.184 81.313 L 215.308 81.313 214.764 82.133 C 214.323 82.798,214.186 85.056,214.038 94.075 C 213.842 106.054,213.879 105.833,211.717 107.849 C 211.012 108.506,210.339 109.326,210.222 109.672 C 209.487 111.843,210.673 111.759,180.456 111.759 C 150.019 111.759,151.646 111.885,150.143 109.412 C 149.709 108.698,148.976 107.780,148.515 107.372 C 148.053 106.965,147.675 106.445,147.675 106.218 C 147.675 105.990,147.496 105.744,147.277 105.671 C 146.392 105.376,146.177 98.313,146.286 73.167 L 146.399 47.220 147.196 45.938 C 147.635 45.234,148.660 43.935,149.475 43.052 C 150.290 42.169,150.957 41.326,150.957 41.178 C 150.957 40.749,153.159 40.020,155.333 39.731 C 159.774 39.141,206.459 39.514,207.840 40.151 M157.404 50.246 C 156.392 51.365,156.471 100.235,157.486 101.154 C 158.611 102.172,201.556 101.888,202.697 100.855 C 203.462 100.162,203.464 100.104,203.464 75.510 L 203.464 50.859 202.644 50.316 C 201.228 49.378,158.250 49.312,157.404 50.246 M202.659 74.202 C 202.717 87.037,202.666 98.236,202.545 99.088 L 202.325 100.638 180.127 100.638 C 162.768 100.638,157.864 100.539,157.633 100.182 C 157.315 99.691,157.003 51.972,157.313 51.165 C 157.467 50.765,161.508 50.695,180.026 50.772 L 202.552 50.866 202.659 74.202 M178.304 56.484 C 176.459 56.879,174.931 57.932,172.799 60.282 C 171.765 61.420,170.725 62.352,170.488 62.352 C 168.830 62.352,167.620 69.061,169.183 69.582 C 169.387 69.650,169.553 69.898,169.553 70.133 C 169.553 70.959,171.630 71.534,173.687 71.277 C 176.180 70.966,176.100 70.685,176.131 79.854 C 176.174 92.402,177.095 94.884,181.465 94.229 C 182.433 94.084,183.497 93.589,184.227 92.946 C 184.880 92.370,185.538 91.896,185.688 91.893 C 185.839 91.890,185.962 91.635,185.962 91.327 C 185.962 91.019,186.249 90.329,186.600 89.793 C 187.647 88.193,187.566 61.585,186.509 59.918 C 185.607 58.497,183.164 56.518,182.311 56.518 C 181.962 56.518,181.206 56.449,180.629 56.365 C 180.052 56.280,179.006 56.334,178.304 56.484 M181.718 57.590 C 185.035 59.012,185.597 61.667,185.597 75.904 L 185.597 86.845 184.423 89.203 C 182.697 92.672,180.420 93.872,178.825 92.154 C 177.290 90.500,176.846 87.548,176.846 78.998 C 176.846 68.440,176.124 67.044,171.702 69.052 C 171.209 69.276,171.082 68.955,170.897 67.020 C 170.652 64.450,171.074 63.554,173.520 61.440 C 174.216 60.839,175.390 59.815,176.129 59.165 C 177.159 58.260,179.143 57.099,180.006 56.897 C 180.040 56.889,180.810 57.201,181.718 57.590 M157.229 152.853 C 156.381 153.701,156.622 202.469,157.479 203.244 C 158.455 204.127,201.299 203.993,202.644 203.103 L 203.464 202.559 203.464 178.091 C 203.464 154.849,203.431 153.592,202.797 153.019 C 201.934 152.238,158.004 152.078,157.229 152.853 M202.501 154.512 C 202.625 155.264,202.729 166.422,202.731 179.307 L 202.735 202.735 179.935 202.735 L 157.136 202.735 157.237 178.396 C 157.293 165.009,157.471 153.851,157.633 153.601 C 157.864 153.244,162.763 153.145,180.101 153.145 L 202.275 153.145 202.501 154.512 M175.800 159.008 C 173.365 159.324,172.398 159.909,171.525 161.596 C 171.247 162.134,170.649 162.687,170.195 162.825 C 167.785 163.560,166.982 165.941,167.872 169.714 C 168.988 174.450,171.845 175.475,174.556 172.112 C 175.001 171.559,175.822 171.016,176.379 170.905 C 176.937 170.793,177.992 170.296,178.724 169.799 L 180.054 168.896 181.242 170.121 C 182.289 171.202,182.369 171.418,181.917 171.954 C 181.635 172.288,181.158 173.272,180.857 174.141 C 180.421 175.399,179.983 175.892,178.698 176.571 C 177.450 177.229,176.961 177.763,176.536 178.930 C 176.128 180.048,175.639 180.607,174.646 181.090 C 173.337 181.727,172.106 183.310,172.106 184.355 C 172.106 184.642,171.353 185.243,170.433 185.690 C 168.414 186.671,167.718 188.058,167.758 191.020 C 167.833 196.599,168.479 196.901,180.304 196.898 C 192.077 196.895,192.608 196.624,192.136 190.854 C 191.841 187.252,191.176 186.573,187.332 185.953 C 183.597 185.351,183.146 184.794,185.553 183.758 C 187.462 182.937,188.514 181.778,188.514 180.496 C 188.514 180.028,188.862 179.613,189.435 179.395 C 191.827 178.485,192.527 176.721,192.793 170.922 C 193.252 160.933,188.211 157.399,175.800 159.008 M186.057 160.534 C 186.811 160.925,187.738 161.638,188.115 162.117 C 188.493 162.597,188.901 162.990,189.022 162.990 C 189.144 162.990,189.531 163.280,189.881 163.634 C 192.853 166.634,192.560 174.716,189.367 177.824 C 188.733 178.441,187.790 179.618,187.271 180.439 C 186.753 181.260,185.877 182.215,185.325 182.561 C 182.824 184.128,182.632 184.713,184.103 186.288 C 184.994 187.242,185.428 187.420,186.865 187.420 C 189.532 187.420,190.702 188.788,190.702 191.908 C 190.702 195.566,190.614 195.599,180.492 195.733 C 169.769 195.875,169.607 195.803,169.088 190.615 C 168.900 188.741,169.055 188.488,171.855 186.084 C 172.595 185.449,173.200 184.776,173.200 184.588 C 173.200 184.400,174.102 183.406,175.205 182.379 C 176.308 181.353,177.211 180.284,177.211 180.005 C 177.211 179.353,178.976 177.581,180.023 177.182 C 180.467 177.013,181.250 176.045,181.764 175.032 C 182.277 174.019,183.185 172.755,183.781 172.224 L 184.866 171.258 182.770 169.038 C 180.171 166.285,180.236 166.299,178.366 168.078 C 177.518 168.885,176.378 169.651,175.832 169.781 C 175.287 169.911,174.045 170.580,173.073 171.268 C 171.040 172.708,170.603 172.550,169.203 169.863 C 168.065 167.681,168.670 164.094,170.176 164.086 C 170.418 164.085,171.321 163.412,172.182 162.591 C 175.533 159.393,182.004 158.434,186.057 160.534 M157.166 254.858 C 156.911 255.335,156.817 263.720,156.880 280.473 L 156.974 305.378 179.814 305.472 C 201.296 305.560,202.673 305.528,202.968 304.925 C 203.632 303.568,203.555 256.084,202.887 255.065 L 202.286 254.148 179.916 254.148 C 158.121 254.148,157.536 254.166,157.166 254.858 M202.374 255.464 C 202.858 255.948,202.736 304.223,202.249 304.710 C 202.082 304.877,191.991 305.014,179.824 305.014 L 157.703 305.014 157.469 302.826 C 156.993 298.375,157.121 255.787,157.612 255.292 C 158.226 254.672,201.749 254.839,202.374 255.464 M175.387 260.791 C 173.124 261.194,172.268 261.805,171.547 263.530 C 171.273 264.185,170.836 264.727,170.575 264.734 C 166.503 264.838,167.381 273.708,171.622 275.320 C 172.166 275.527,172.567 276.141,172.846 277.194 C 173.420 279.361,174.322 281.130,174.853 281.130 C 175.098 281.130,175.502 281.376,175.752 281.677 C 176.002 281.978,176.514 282.224,176.891 282.224 C 177.267 282.224,177.575 282.473,177.575 282.777 C 177.575 283.081,178.191 283.608,178.943 283.948 C 179.695 284.288,180.602 284.807,180.958 285.101 C 181.315 285.396,182.217 285.908,182.964 286.238 L 184.321 286.839 183.045 287.410 C 180.763 288.430,180.444 288.442,177.908 287.607 C 175.659 286.866,175.403 286.684,175.396 285.821 C 175.369 282.680,169.343 282.770,167.973 285.933 C 166.664 288.952,167.777 294.619,169.736 294.914 C 170.865 295.084,172.106 295.793,172.106 296.267 C 172.106 300.033,186.810 300.823,188.704 297.159 C 189.001 296.584,189.806 295.847,190.492 295.522 C 193.062 294.302,194.227 284.419,192.368 279.593 C 191.749 277.985,191.745 277.778,192.298 276.395 C 193.855 272.505,192.366 262.626,190.211 262.546 C 190.042 262.539,189.467 262.236,188.935 261.871 C 186.854 260.444,180.273 259.919,175.387 260.791 M186.350 261.899 C 188.115 262.766,190.122 264.588,191.207 266.310 C 192.626 268.563,191.635 277.484,189.965 277.484 C 189.769 277.484,189.608 277.730,189.608 278.031 C 189.608 278.332,189.759 278.578,189.943 278.578 C 191.461 278.578,192.833 285.178,192.239 289.625 C 191.826 292.720,191.049 294.149,189.407 294.835 C 188.777 295.098,187.867 295.740,187.385 296.260 C 184.504 299.370,176.583 299.387,173.770 296.288 C 173.156 295.611,172.030 294.730,171.269 294.330 C 168.502 292.875,167.658 290.282,168.959 287.226 C 170.247 284.200,171.530 284.115,174.268 286.873 C 174.914 287.525,175.693 288.058,175.997 288.058 C 176.702 288.058,178.760 289.192,179.143 289.790 C 179.470 290.302,181.222 290.420,181.222 289.931 C 181.222 289.758,181.960 289.334,182.863 288.989 C 185.721 287.898,186.164 285.931,183.825 284.726 C 182.666 284.129,182.095 283.708,181.297 282.862 C 180.966 282.511,180.477 282.224,180.211 282.224 C 178.790 282.224,175.023 279.163,175.023 278.008 C 175.023 277.363,177.252 275.296,177.948 275.296 C 178.277 275.296,179.662 274.946,181.025 274.518 L 183.503 273.740 183.272 271.526 C 182.998 268.909,182.864 268.737,180.893 268.473 C 179.368 268.268,177.940 268.996,177.940 269.978 C 177.940 271.533,171.299 273.359,170.201 272.106 C 168.199 269.823,168.441 267.459,170.805 266.194 C 171.293 265.932,171.888 265.248,172.126 264.673 C 172.364 264.098,172.703 263.628,172.879 263.628 C 173.055 263.628,173.202 263.423,173.204 263.172 C 173.222 261.236,183.058 260.283,186.350 261.899 M181.147 271.533 C 181.273 274.167,181.297 274.151,177.281 274.244 C 173.998 274.320,173.172 273.761,175.641 273.134 C 178.398 272.434,178.628 272.247,179.400 270.074 C 180.079 268.159,181.023 268.947,181.147 271.533 " stroke="none" fill="#5c6c84" fill-rule="evenodd"></path></g></svg>