<svg id="svg" version="1.1" xmlns="http://www.w3.org/2000/svg" xmlns:xlink="http://www.w3.org/1999/xlink" width="400" height="364.4444444444444" viewBox="0, 0, 400,364.4444444444444"><g id="svgg"><path id="path0" d="M201.119 76.897 C 201.009 77.075,200.548 77.314,200.095 77.428 C 199.328 77.621,192.890 83.501,192.890 84.008 C 192.890 84.134,191.350 85.770,189.468 87.643 C 187.586 89.516,185.934 91.401,185.797 91.832 C 185.660 92.263,185.410 92.616,185.241 92.616 C 184.539 92.616,181.602 95.880,181.812 96.427 C 182.484 98.179,185.854 96.719,186.027 94.601 C 186.139 93.222,186.204 93.156,187.603 92.981 C 189.748 92.713,190.702 91.951,190.702 90.504 C 190.702 89.247,192.145 88.241,193.946 88.241 C 194.339 88.241,194.907 87.995,195.208 87.694 C 195.509 87.393,195.930 87.147,196.145 87.147 C 196.360 87.147,196.536 86.906,196.536 86.613 C 196.536 85.725,197.772 85.288,198.857 85.792 C 201.164 86.861,201.084 85.717,201.195 119.019 L 201.297 149.249 200.237 150.286 C 197.717 152.750,200.955 152.579,152.963 152.780 C 120.576 152.916,109.387 153.072,108.842 153.393 C 108.125 153.816,108.111 154.264,108.011 180.622 L 107.908 207.422 106.862 208.542 L 105.815 209.663 94.020 209.674 L 82.224 209.686 81.495 210.677 C 80.783 211.645,80.766 212.242,80.766 236.098 C 80.766 265.237,80.461 263.516,85.324 261.805 C 88.058 260.843,129.003 260.685,132.602 261.623 C 135.382 262.347,135.619 262.321,137.053 261.131 C 138.456 259.967,138.467 257.885,137.076 256.393 C 136.233 255.488,135.944 215.700,136.779 215.422 C 137.825 215.073,137.849 211.468,136.811 210.554 L 135.825 209.686 124.317 209.674 L 112.809 209.663 111.646 208.526 L 110.483 207.388 110.496 184.369 C 110.510 159.482,110.636 157.539,112.349 155.944 L 113.201 155.150 153.780 155.055 C 193.219 154.961,194.397 154.978,195.721 155.661 C 197.390 156.521,199.020 158.242,200.306 160.502 L 201.276 162.208 201.276 182.636 C 201.276 211.983,202.607 209.642,185.920 209.655 C 176.044 209.662,175.436 209.702,174.559 210.392 C 174.049 210.793,173.481 211.121,173.296 211.121 C 173.112 211.121,173.032 211.604,173.119 212.195 C 173.327 213.615,174.613 213.894,177.497 213.147 C 180.253 212.433,223.296 212.286,225.299 212.984 C 227.569 213.775,227.530 213.370,227.528 235.989 C 227.527 255.673,227.498 256.566,226.819 257.680 C 225.482 259.871,226.375 259.790,202.333 259.906 L 180.237 260.013 177.539 259.128 C 176.055 258.642,174.383 258.138,173.825 258.009 C 172.141 257.619,172.106 257.147,172.106 235.163 C 172.106 216.906,172.039 214.403,171.556 214.403 C 171.071 214.403,171.017 217.076,171.100 237.101 L 171.194 259.799 173.404 260.910 C 175.584 262.006,175.647 262.015,178.144 261.577 C 181.518 260.985,217.092 260.913,223.737 261.484 C 228.081 261.857,228.600 261.837,229.480 261.261 L 230.447 260.627 230.435 235.965 L 230.424 211.304 229.432 210.574 C 228.504 209.891,227.709 209.834,216.832 209.663 L 205.222 209.480 204.379 208.499 C 203.155 207.075,203.024 204.031,203.162 180.310 C 203.293 157.957,203.251 158.387,205.566 155.684 C 206.508 154.584,286.887 154.561,288.554 155.660 C 289.937 156.572,290.970 158.193,290.973 159.456 C 290.979 161.853,292.775 158.605,293.055 155.691 C 293.361 152.514,297.136 152.770,248.594 152.679 L 205.666 152.598 204.474 151.406 L 203.282 150.214 203.282 119.683 C 203.282 86.683,203.251 87.211,205.151 87.158 C 205.377 87.152,205.767 86.901,206.016 86.600 C 206.717 85.756,206.901 85.861,210.023 88.879 C 211.631 90.433,213.438 92.107,214.039 92.599 C 214.640 93.091,215.132 93.699,215.132 93.950 C 215.132 94.559,216.860 96.263,217.478 96.263 C 217.747 96.263,218.355 96.785,218.829 97.423 C 219.624 98.495,220.389 99.281,223.336 102.053 C 223.938 102.619,225.470 104.173,226.740 105.506 C 229.383 108.281,229.950 108.460,230.294 106.627 C 230.666 104.640,230.062 103.704,228.217 103.408 C 226.209 103.087,225.706 102.644,225.706 101.197 C 225.706 99.738,224.747 98.815,223.229 98.815 C 221.980 98.815,221.331 98.032,221.331 96.525 C 221.331 95.407,220.272 94.439,219.049 94.439 C 217.817 94.439,216.955 93.551,216.955 92.282 C 216.955 91.070,215.954 90.066,214.739 90.058 C 213.470 90.050,213.071 89.683,212.767 88.241 C 212.423 86.606,211.606 85.688,210.494 85.688 C 209.033 85.688,208.204 85.034,208.204 83.882 C 208.204 82.264,207.882 81.748,206.327 80.874 C 205.490 80.404,204.444 79.339,203.817 78.320 C 202.797 76.662,201.641 76.052,201.119 76.897 M178.548 98.922 C 177.612 99.793,176.846 100.700,176.846 100.937 C 176.846 101.174,176.578 101.367,176.250 101.367 C 175.922 101.367,175.239 101.814,174.733 102.360 C 174.227 102.906,173.249 103.768,172.560 104.275 C 170.752 105.604,169.648 108.754,170.641 109.748 C 171.520 110.627,172.598 109.842,172.995 108.033 C 173.203 107.084,173.474 106.818,174.411 106.640 C 176.235 106.294,176.873 105.610,177.145 103.709 C 177.406 101.887,177.500 101.811,180.238 101.205 C 181.200 100.992,181.254 100.880,181.150 99.287 C 181.005 97.073,180.595 97.016,178.548 98.922 M232.270 109.025 C 231.406 109.301,231.421 109.318,232.543 109.353 C 233.195 109.373,233.728 109.225,233.728 109.025 C 233.728 108.613,233.557 108.613,232.270 109.025 M290.975 207.819 C 290.975 209.329,288.785 209.663,278.900 209.662 C 270.172 209.661,269.039 209.732,266.682 210.430 L 264.085 211.200 263.860 213.075 C 263.524 215.868,263.592 260.089,263.932 260.626 C 264.384 261.338,268.919 261.745,272.121 261.360 C 275.056 261.008,315.447 261.244,319.781 261.639 C 321.868 261.829,322.250 261.762,322.979 261.079 L 323.808 260.304 323.709 236.715 C 323.624 216.523,323.530 212.969,323.058 212.034 C 322.076 210.087,319.770 209.726,308.103 209.692 C 299.974 209.668,297.923 209.562,297.313 209.136 C 296.147 208.319,290.975 207.245,290.975 207.819 M133.025 213.149 C 135.797 214.532,135.643 213.198,135.643 235.774 C 135.643 258.482,135.785 257.295,132.852 259.097 L 131.449 259.959 109.263 259.970 C 84.608 259.983,85.666 260.086,84.454 257.545 C 83.715 255.996,83.546 216.072,84.272 214.652 C 85.377 212.492,84.116 212.597,109.060 212.588 C 129.025 212.581,132.027 212.651,133.025 213.149 M317.950 213.065 C 320.633 213.766,320.523 212.733,320.420 236.316 C 320.320 259.238,320.448 257.935,318.167 259.185 C 316.402 260.152,269.870 260.122,268.096 259.153 C 265.804 257.900,265.816 258.022,265.816 235.860 C 265.816 213.024,265.749 213.610,268.429 213.011 C 270.818 212.477,315.888 212.526,317.950 213.065 " stroke="none" fill="#d5dad1" fill-rule="evenodd"></path><path id="path1" d="M200.912 75.363 C 198.958 75.684,197.721 76.438,195.378 78.739 C 192.660 81.409,192.894 81.169,189.522 84.733 C 181.383 93.334,170.946 103.555,170.302 103.555 C 169.983 103.555,168.459 108.010,168.459 108.945 C 168.459 111.893,173.029 112.154,174.458 109.287 C 174.680 108.842,175.308 108.264,175.854 108.002 C 176.400 107.740,176.846 107.371,176.846 107.182 C 176.846 106.992,177.051 106.835,177.302 106.833 C 177.552 106.830,178.075 106.165,178.464 105.354 C 178.852 104.544,179.632 103.608,180.196 103.275 C 180.760 102.941,181.222 102.540,181.222 102.383 C 181.222 102.225,181.457 102.097,181.744 102.097 C 182.031 102.097,182.364 101.789,182.484 101.412 C 182.798 100.423,184.135 99.025,185.531 98.229 C 186.196 97.849,186.978 97.046,187.267 96.445 C 187.560 95.835,188.679 94.795,189.794 94.095 C 190.895 93.404,191.796 92.691,191.796 92.510 C 191.796 90.283,197.671 88.786,198.179 90.884 C 198.288 91.335,198.332 104.667,198.277 120.510 L 198.177 149.316 196.354 150.228 L 194.531 151.139 151.444 151.322 L 108.357 151.504 107.597 152.380 C 107.179 152.862,106.808 153.272,106.773 153.292 C 106.739 153.311,106.616 165.170,106.500 179.646 C 106.292 205.673,106.281 205.975,105.522 206.993 L 104.754 208.022 93.257 208.204 L 81.759 208.387 80.868 209.298 C 78.916 211.294,78.758 213.299,78.759 236.026 C 78.760 259.657,79.160 263.556,81.586 263.617 C 81.837 263.623,82.042 263.763,82.042 263.928 C 82.042 265.030,86.717 265.261,109.025 265.265 C 135.663 265.270,135.840 265.248,139.406 261.631 C 141.883 259.118,141.841 259.554,141.841 236.122 L 141.841 215.081 140.797 213.557 C 140.223 212.719,139.638 211.664,139.497 211.212 C 139.355 210.761,138.649 209.940,137.926 209.389 L 136.613 208.387 126.009 208.154 C 112.668 207.860,112.938 207.922,112.574 205.090 C 112.420 203.895,112.338 193.400,112.391 181.768 C 112.497 158.842,112.499 158.819,114.465 158.393 C 114.983 158.281,115.881 158.039,116.463 157.855 C 117.076 157.661,133.546 157.521,155.685 157.521 L 193.850 157.521 196.105 159.878 L 198.359 162.236 198.354 182.394 C 198.347 210.320,199.704 207.826,184.321 208.168 C 172.017 208.441,170.345 209.040,169.527 213.465 C 168.807 217.361,169.260 260.512,170.030 261.363 C 173.322 265.000,176.928 265.451,202.678 265.451 L 224.176 265.451 226.126 264.543 C 227.199 264.044,228.431 263.634,228.865 263.632 C 231.871 263.618,231.989 262.445,231.844 234.191 L 231.723 210.770 230.531 209.578 L 229.339 208.387 218.127 208.261 C 210.365 208.174,206.736 208.005,206.335 207.712 C 204.711 206.524,204.558 204.364,204.558 182.679 C 204.558 161.068,204.498 161.981,206.145 158.614 L 206.591 157.703 246.758 157.610 L 286.925 157.517 287.806 158.704 C 288.290 159.357,288.874 160.448,289.102 161.130 C 289.696 162.904,289.682 202.694,289.086 205.273 C 288.432 208.109,288.288 208.143,276.208 208.281 C 264.618 208.413,263.788 208.584,262.610 211.079 C 261.729 212.944,261.649 259.202,262.523 260.929 C 263.277 262.419,264.130 263.195,265.329 263.481 C 266.467 263.752,268.425 264.733,268.771 265.205 C 268.893 265.371,279.887 265.453,293.202 265.388 L 317.411 265.269 318.972 264.448 C 319.831 263.997,320.955 263.628,321.470 263.628 C 323.335 263.628,324.896 261.479,324.820 259.015 L 324.755 256.882 324.615 258.681 C 324.408 261.357,323.557 262.296,320.617 263.093 C 316.490 264.211,270.114 264.383,267.342 263.290 C 266.287 262.874,265.143 262.529,264.800 262.523 C 262.695 262.484,262.716 262.762,262.716 236.098 C 262.716 209.268,262.679 209.717,264.904 209.670 C 265.305 209.662,266.439 209.410,267.423 209.112 C 268.810 208.691,271.332 208.569,278.610 208.569 C 286.476 208.569,288.095 208.480,288.553 208.022 C 288.854 207.721,289.262 207.475,289.460 207.475 C 290.145 207.475,290.294 202.084,290.179 181.404 C 290.051 158.353,290.088 158.695,287.545 157.029 C 286.343 156.241,207.352 156.110,206.374 156.894 C 204.396 158.480,204.376 158.757,204.376 183.580 C 204.376 206.000,204.393 206.587,205.105 207.525 L 205.834 208.487 217.138 208.658 C 225.609 208.786,228.678 208.952,229.387 209.319 C 231.381 210.352,231.358 210.039,231.358 235.916 C 231.358 263.662,231.571 261.946,227.993 263.120 C 224.984 264.107,175.911 264.201,174.787 263.221 C 174.415 262.897,173.659 262.525,173.106 262.393 C 172.553 262.262,171.568 261.679,170.918 261.098 L 169.736 260.042 169.624 237.889 L 169.511 215.736 170.333 213.520 C 171.241 211.074,171.493 210.800,174.050 209.479 C 175.798 208.576,175.891 208.569,185.398 208.569 C 196.236 208.569,198.121 208.214,198.555 206.092 C 198.666 205.549,198.914 204.512,199.105 203.786 C 199.587 201.962,199.571 161.896,199.088 161.896 C 198.888 161.896,198.724 161.686,198.724 161.429 C 198.724 160.881,195.564 157.545,194.417 156.882 C 193.332 156.255,118.983 156.217,115.740 156.843 C 113.070 157.358,113.112 157.317,112.070 160.299 L 111.212 162.751 111.224 182.287 C 111.237 203.450,111.404 206.308,112.703 207.692 L 113.527 208.569 124.590 208.569 C 136.281 208.569,138.173 208.860,138.191 210.665 C 138.193 210.916,138.346 211.121,138.531 211.121 C 138.715 211.121,138.974 211.612,139.106 212.211 C 139.237 212.810,139.486 213.388,139.659 213.494 C 141.045 214.351,141.112 215.372,141.112 235.656 C 141.112 246.989,140.964 255.899,140.764 256.658 C 140.573 257.383,140.333 258.387,140.231 258.888 C 140.016 259.942,138.569 261.606,136.737 262.905 L 135.460 263.810 109.016 263.810 C 79.404 263.810,82.203 264.060,80.383 261.258 C 79.290 259.577,79.273 213.082,80.364 211.056 C 81.598 208.764,81.480 208.785,93.956 208.632 C 105.048 208.496,105.340 208.474,106.064 207.704 C 106.792 206.929,106.807 206.471,106.922 180.850 C 107.048 153.025,107.060 152.845,108.822 152.182 C 109.234 152.026,129.015 151.811,152.780 151.702 C 200.164 151.485,197.214 151.626,198.977 149.499 C 199.639 148.699,199.647 91.547,198.985 89.699 C 198.346 87.919,197.655 86.800,197.641 87.524 C 197.626 88.266,195.775 89.331,194.474 89.347 C 193.381 89.359,191.796 90.430,191.796 91.156 C 191.796 91.651,189.675 93.607,188.483 94.211 C 188.038 94.437,187.494 94.932,187.274 95.310 C 186.603 96.464,185.484 97.539,184.047 98.410 C 183.295 98.866,182.680 99.448,182.680 99.703 C 182.680 100.325,181.262 101.796,180.068 102.413 C 179.536 102.688,178.799 103.498,178.430 104.213 C 177.607 105.805,176.926 106.533,175.437 107.412 C 174.808 107.784,174.200 108.381,174.086 108.739 C 173.973 109.097,173.727 109.389,173.540 109.389 C 173.353 109.389,173.200 109.616,173.200 109.894 C 173.200 110.171,172.912 110.499,172.562 110.623 C 172.211 110.747,171.747 110.934,171.531 111.040 C 170.484 111.550,169.189 109.490,169.418 107.678 C 169.634 105.969,170.863 103.563,171.524 103.558 C 172.202 103.553,191.474 84.216,192.694 82.315 C 193.048 81.764,193.495 81.313,193.688 81.313 C 193.996 81.313,194.834 80.466,197.148 77.817 C 197.513 77.398,198.838 76.712,200.091 76.291 L 202.371 75.526 203.464 76.446 C 204.066 76.952,204.558 77.531,204.558 77.732 C 204.558 78.256,206.480 80.219,206.993 80.219 C 207.414 80.219,208.749 81.862,209.480 83.281 C 209.681 83.670,210.419 84.299,211.121 84.678 C 212.432 85.387,214.033 87.044,214.036 87.696 C 214.037 87.898,214.757 88.498,215.636 89.029 C 216.560 89.587,217.588 90.624,218.073 91.487 C 218.535 92.309,219.088 92.987,219.301 92.994 C 219.978 93.017,221.714 94.638,222.555 96.031 C 223.000 96.769,223.929 97.656,224.619 98.003 C 225.309 98.349,226.123 99.113,226.428 99.699 C 227.236 101.255,227.987 102.097,228.564 102.097 C 229.324 102.097,231.541 104.677,231.541 105.562 C 231.541 106.060,232.120 106.740,233.181 107.488 C 235.033 108.794,235.115 109.011,234.098 109.931 C 232.827 111.082,227.894 110.137,227.894 108.743 C 227.894 108.484,227.648 108.178,227.347 108.063 C 227.046 107.947,226.800 107.624,226.800 107.345 C 226.800 107.065,226.629 106.837,226.419 106.837 C 226.051 106.837,223.801 104.694,222.200 102.818 C 221.775 102.321,220.832 101.456,220.103 100.896 C 219.375 100.336,218.767 99.680,218.753 99.438 C 218.739 99.195,217.744 98.204,216.542 97.234 C 215.340 96.264,214.256 95.210,214.134 94.892 C 213.871 94.205,212.697 92.981,212.303 92.981 C 211.806 92.981,209.303 90.341,209.292 89.806 C 209.280 89.268,207.059 87.958,206.444 88.125 C 204.297 88.711,204.385 87.426,204.278 119.894 L 204.181 149.542 205.253 150.614 L 206.325 151.686 249.176 151.686 C 277.349 151.686,292.103 151.811,292.252 152.051 C 292.376 152.252,292.770 152.416,293.129 152.416 C 295.911 152.416,296.076 153.976,296.078 180.462 C 296.079 194.789,296.221 203.656,296.472 205.075 C 297.078 208.507,297.275 208.564,308.584 208.590 C 321.859 208.620,323.398 209.084,324.319 213.331 L 324.828 215.679 324.857 213.400 C 324.873 212.147,324.733 211.121,324.546 211.121 C 324.359 211.121,324.107 210.808,323.985 210.426 C 323.459 208.767,321.400 208.434,310.301 208.213 C 303.854 208.085,299.557 207.850,298.982 207.596 C 296.960 206.702,296.800 204.552,296.805 178.360 C 296.810 151.923,296.928 153.096,294.162 151.960 C 292.713 151.365,289.728 151.322,249.649 151.322 L 206.690 151.322 205.624 150.256 L 204.558 149.190 204.558 120.321 C 204.558 89.243,204.501 90.229,206.373 89.059 C 207.024 88.653,209.298 90.249,209.298 91.113 C 209.298 91.311,210.077 92.100,211.030 92.865 C 211.983 93.631,213.004 94.585,213.301 94.986 C 214.199 96.203,220.277 102.097,220.634 102.097 C 220.817 102.097,220.969 102.220,220.971 102.370 C 220.978 102.696,224.839 106.837,225.136 106.837 C 225.434 106.837,226.798 108.246,226.812 108.569 C 226.885 110.211,231.974 111.884,233.848 110.881 C 235.847 109.812,235.788 108.294,233.699 107.060 C 233.148 106.734,232.352 105.772,231.930 104.921 C 230.939 102.921,230.492 102.396,229.222 101.740 C 228.649 101.444,227.723 100.542,227.165 99.735 C 226.607 98.928,225.480 97.776,224.660 97.174 C 223.841 96.572,223.167 95.907,223.163 95.696 C 223.153 95.272,220.901 92.981,220.493 92.981 C 220.160 92.981,219.070 91.831,218.562 90.943 C 218.342 90.560,217.235 89.537,216.101 88.671 C 214.966 87.804,214.033 86.902,214.026 86.665 C 214.007 85.996,212.706 84.594,212.104 84.594 C 211.384 84.594,209.298 82.621,209.298 81.940 C 209.298 81.643,208.519 80.771,207.566 80.002 C 206.613 79.233,205.682 78.352,205.497 78.044 C 204.849 76.966,202.803 75.114,202.315 75.164 C 202.045 75.191,201.413 75.281,200.912 75.363 M85.538 214.431 L 84.594 215.553 84.594 236.045 L 84.594 256.538 85.668 257.713 L 86.741 258.888 109.127 258.888 L 131.513 258.888 133.031 257.444 L 134.549 256.000 134.549 235.905 C 134.549 213.867,134.709 215.501,132.397 213.950 C 131.522 213.362,129.739 213.314,108.966 213.311 L 86.482 213.309 85.538 214.431 M177.119 214.513 L 174.658 215.677 174.658 235.668 C 174.658 256.786,174.586 255.864,176.314 256.978 C 179.458 259.006,178.372 258.929,202.164 258.813 C 225.913 258.697,224.966 258.781,226.211 256.674 C 226.734 255.788,226.800 253.438,226.800 235.655 L 226.800 215.633 225.683 214.562 L 224.565 213.491 202.073 213.420 L 179.581 213.349 177.119 214.513 M270.130 213.566 C 269.324 213.655,268.418 214.088,267.851 214.655 L 266.910 215.596 266.910 235.619 C 266.910 257.976,266.839 257.326,269.365 258.219 C 271.331 258.915,314.845 258.931,317.135 258.236 C 319.879 257.404,319.781 258.242,319.781 235.570 C 319.781 222.431,319.655 215.497,319.417 215.497 C 319.216 215.497,319.052 215.267,319.052 214.986 C 319.052 213.595,317.479 213.499,294.075 213.458 C 281.641 213.436,270.866 213.485,270.130 213.566 M132.494 214.794 L 133.455 215.550 133.455 235.943 L 133.455 256.335 132.635 257.156 L 131.814 257.976 109.754 258.080 C 85.551 258.193,86.300 258.236,85.513 256.713 C 84.842 255.416,84.659 215.497,85.324 215.497 C 85.524 215.497,85.688 215.263,85.688 214.977 C 85.688 214.136,85.978 214.125,109.249 214.081 C 131.274 214.039,131.545 214.047,132.494 214.794 M225.554 214.928 C 225.986 215.519,226.071 218.962,226.071 235.783 L 226.071 255.930 225.191 256.953 L 224.312 257.976 202.635 258.095 C 181.358 258.212,177.940 258.067,177.940 257.051 C 177.940 256.858,177.711 256.700,177.432 256.700 C 176.522 256.700,176.481 255.786,176.481 235.564 L 176.481 215.581 177.317 215.033 C 178.723 214.112,178.907 214.106,202.309 214.164 C 224.351 214.219,225.052 214.242,225.554 214.928 M318.285 214.915 C 319.401 215.926,319.506 255.812,318.395 256.817 C 317.175 257.921,312.940 258.144,293.528 258.129 C 272.567 258.112,269.717 257.970,268.459 256.883 L 267.639 256.173 267.639 235.892 C 267.639 213.111,267.449 214.616,270.374 214.299 C 275.803 213.711,317.548 214.248,318.285 214.915 " stroke="none" fill="#8c9ca4" fill-rule="evenodd"></path><path id="path2" d="M199.121 75.095 C 197.525 75.609,196.770 76.159,195.167 77.975 C 194.077 79.209,192.968 80.219,192.702 80.219 C 192.437 80.219,191.848 80.834,191.393 81.586 C 190.412 83.208,189.297 84.384,188.444 84.695 C 188.105 84.819,187.536 85.380,187.180 85.942 C 186.824 86.504,185.953 87.488,185.244 88.127 C 183.911 89.331,183.392 89.846,181.417 91.931 C 180.774 92.608,179.770 93.595,179.185 94.124 C 178.601 94.652,177.712 95.610,177.211 96.252 C 176.709 96.894,175.864 97.647,175.331 97.926 C 174.799 98.205,174.031 98.971,173.624 99.629 C 173.218 100.287,172.169 101.278,171.295 101.831 C 166.434 104.903,167.511 113.987,172.504 112.026 C 173.521 111.626,174.231 111.010,174.776 110.052 C 175.213 109.286,175.858 108.566,176.210 108.452 C 177.257 108.113,179.033 106.454,179.046 105.802 C 179.062 104.998,180.289 103.555,180.957 103.555 C 181.684 103.555,183.378 101.802,183.633 100.784 C 183.758 100.287,184.429 99.661,185.296 99.232 C 186.679 98.548,188.510 96.560,188.518 95.736 C 188.519 95.524,189.262 95.025,190.167 94.627 C 191.442 94.067,191.987 93.546,192.580 92.320 C 193.264 90.907,193.449 90.762,194.303 90.971 C 196.890 91.605,196.866 91.325,196.885 122.201 L 196.901 149.050 195.898 149.730 C 194.937 150.382,193.085 150.418,151.686 150.593 C 127.922 150.693,108.184 150.918,107.826 151.093 C 105.911 152.026,105.940 151.635,105.743 179.981 C 105.594 201.526,105.470 206.378,105.060 206.872 C 104.615 207.409,103.336 207.475,93.435 207.475 C 76.915 207.475,78.234 205.007,78.229 235.916 C 78.222 269.585,75.176 266.670,110.119 266.437 C 132.880 266.286,135.211 266.177,136.326 265.213 C 136.652 264.932,137.985 263.926,139.289 262.979 C 142.961 260.312,142.880 260.911,142.912 236.281 C 142.940 214.940,142.850 213.652,141.198 211.910 C 140.944 211.642,140.302 210.853,139.771 210.157 C 137.907 207.713,137.718 207.677,125.828 207.475 C 117.703 207.337,115.064 207.182,114.950 206.837 C 114.866 206.586,114.582 206.381,114.317 206.381 C 112.988 206.381,112.865 204.575,112.752 183.429 C 112.627 160.126,112.501 161.249,115.399 159.878 L 117.299 158.979 155.427 158.979 L 193.556 158.979 195.224 160.711 L 196.892 162.443 196.896 182.512 C 196.900 201.865,196.875 202.632,196.171 204.011 C 195.770 204.798,195.442 205.643,195.442 205.891 C 195.442 207.285,194.123 207.475,184.430 207.475 L 175.039 207.475 172.387 208.726 C 168.328 210.641,168.657 208.289,168.541 236.187 C 168.446 258.811,168.480 260.405,169.087 261.347 C 169.945 262.678,171.052 263.601,171.806 263.616 C 172.143 263.623,172.664 263.874,172.965 264.175 C 173.266 264.476,173.688 264.722,173.903 264.722 C 174.118 264.722,174.294 264.870,174.294 265.051 C 174.294 266.226,176.552 266.347,200.553 266.463 C 225.560 266.584,224.916 266.616,227.530 265.129 C 227.830 264.958,228.733 264.487,229.535 264.082 C 230.532 263.579,231.252 262.842,231.808 261.755 L 232.623 260.164 232.537 235.734 C 232.428 204.260,234.231 207.738,217.888 207.475 L 206.572 207.293 206.021 206.199 C 205.112 204.396,205.201 161.841,206.117 160.164 L 206.764 158.979 246.830 158.979 L 286.895 158.979 287.853 160.613 L 288.810 162.247 288.708 183.311 C 288.612 202.911,288.558 204.483,287.928 205.925 L 287.250 207.475 277.560 207.475 C 263.785 207.475,262.256 207.966,261.744 212.559 C 261.353 216.070,261.380 259.595,261.774 260.969 C 262.202 262.459,263.076 263.361,264.904 264.198 C 265.706 264.566,266.445 264.975,266.545 265.108 C 267.606 266.514,268.191 266.545,293.236 266.545 C 316.278 266.544,317.471 266.512,318.687 265.853 C 319.389 265.472,320.702 264.818,321.604 264.399 C 325.919 262.393,325.558 264.874,325.589 237.080 C 325.616 212.558,325.518 210.660,324.158 209.299 C 322.769 207.911,319.237 207.475,309.314 207.469 C 304.141 207.466,299.742 207.343,299.538 207.196 C 298.255 206.269,298.129 204.055,297.923 178.851 C 297.714 153.191,297.721 153.302,296.199 152.051 C 294.417 150.587,293.641 150.563,249.355 150.585 C 206.793 150.607,206.759 150.606,206.007 149.854 C 204.897 148.744,205.022 91.364,206.137 90.132 C 206.904 89.284,207.489 89.652,208.742 91.773 C 209.093 92.367,210.089 93.281,210.955 93.805 C 211.839 94.338,212.902 95.406,213.376 96.236 C 213.840 97.050,214.401 97.717,214.620 97.718 C 215.105 97.722,217.685 100.176,217.685 100.634 C 217.685 100.814,218.669 101.718,219.872 102.644 C 221.076 103.569,222.066 104.523,222.072 104.762 C 222.088 105.316,223.346 106.837,223.790 106.837 C 224.255 106.837,226.798 109.419,226.812 109.906 C 226.868 111.856,233.636 112.492,235.299 110.703 C 236.822 109.066,236.373 107.719,233.820 106.262 C 233.168 105.890,232.634 105.458,232.634 105.302 C 232.634 104.578,231.321 102.097,230.938 102.097 C 230.701 102.097,230.453 101.958,230.386 101.789 C 230.319 101.619,229.774 101.249,229.175 100.965 C 228.576 100.682,228.027 100.123,227.954 99.724 C 227.793 98.830,226.210 97.095,224.959 96.440 C 224.447 96.173,223.709 95.359,223.318 94.632 C 222.927 93.905,221.945 92.921,221.135 92.446 C 220.326 91.971,219.423 91.118,219.130 90.550 C 218.491 89.312,217.869 88.755,216.402 88.106 C 215.716 87.803,215.030 87.052,214.579 86.111 C 214.181 85.282,213.651 84.601,213.400 84.599 C 213.149 84.596,212.944 84.443,212.944 84.259 C 212.944 84.074,212.437 83.812,211.817 83.675 C 210.995 83.495,210.551 83.097,210.181 82.212 C 209.541 80.680,208.335 79.387,206.928 78.723 C 206.285 78.419,205.786 77.872,205.718 77.396 C 205.380 75.028,202.475 74.015,199.121 75.095 M203.984 76.299 C 204.631 76.951,205.312 77.736,205.497 78.044 C 205.682 78.352,206.613 79.233,207.566 80.002 C 208.519 80.771,209.298 81.643,209.298 81.940 C 209.298 82.621,211.384 84.594,212.104 84.594 C 212.706 84.594,214.007 85.996,214.026 86.665 C 214.033 86.902,214.966 87.804,216.101 88.671 C 217.235 89.537,218.342 90.560,218.562 90.943 C 219.070 91.831,220.160 92.981,220.493 92.981 C 220.901 92.981,223.153 95.272,223.163 95.696 C 223.167 95.907,223.841 96.572,224.660 97.174 C 225.480 97.776,226.607 98.928,227.165 99.735 C 227.723 100.542,228.649 101.444,229.222 101.740 C 230.492 102.396,230.939 102.921,231.930 104.921 C 232.352 105.772,233.148 106.734,233.699 107.060 C 235.788 108.294,235.847 109.812,233.848 110.881 C 231.974 111.884,226.885 110.211,226.812 108.569 C 226.798 108.246,225.434 106.837,225.136 106.837 C 224.839 106.837,220.978 102.696,220.971 102.370 C 220.969 102.220,220.817 102.097,220.634 102.097 C 220.277 102.097,214.199 96.203,213.301 94.986 C 213.004 94.585,211.983 93.631,211.030 92.865 C 210.077 92.100,209.298 91.311,209.298 91.113 C 209.298 90.249,207.024 88.653,206.373 89.059 C 204.501 90.229,204.558 89.243,204.558 120.321 L 204.558 149.190 205.624 150.256 L 206.690 151.322 249.649 151.322 C 289.728 151.322,292.713 151.365,294.162 151.960 C 296.928 153.096,296.810 151.923,296.805 178.360 C 296.800 204.552,296.960 206.702,298.982 207.596 C 299.557 207.850,303.854 208.085,310.301 208.213 C 321.400 208.434,323.459 208.767,323.985 210.426 C 324.107 210.808,324.359 211.121,324.546 211.121 C 324.753 211.121,324.886 220.907,324.886 236.135 L 324.886 261.149 323.646 262.388 C 322.880 263.155,322.049 263.628,321.470 263.628 C 320.955 263.628,319.831 263.997,318.972 264.448 L 317.411 265.269 293.202 265.388 C 279.887 265.453,268.893 265.371,268.771 265.205 C 268.425 264.733,266.467 263.752,265.329 263.481 C 264.130 263.195,263.277 262.419,262.523 260.929 C 261.649 259.202,261.729 212.944,262.610 211.079 C 263.788 208.584,264.618 208.413,276.208 208.281 C 288.288 208.143,288.432 208.109,289.086 205.273 C 289.682 202.694,289.696 162.904,289.102 161.130 C 288.874 160.448,288.290 159.357,287.806 158.704 L 286.925 157.517 246.758 157.610 L 206.591 157.703 206.145 158.614 C 204.498 161.981,204.558 161.068,204.558 182.679 C 204.558 204.364,204.711 206.524,206.335 207.712 C 206.736 208.005,210.365 208.174,218.127 208.261 L 229.339 208.387 230.531 209.578 L 231.723 210.770 231.844 234.191 C 231.989 262.445,231.871 263.618,228.865 263.632 C 228.431 263.634,227.199 264.044,226.126 264.543 L 224.176 265.451 202.678 265.451 C 176.928 265.451,173.322 265.000,170.030 261.363 C 169.260 260.512,168.807 217.361,169.527 213.465 C 170.345 209.040,172.017 208.441,184.321 208.168 C 199.704 207.826,198.347 210.320,198.354 182.394 L 198.359 162.236 196.105 159.878 L 193.850 157.521 155.685 157.521 C 133.546 157.521,117.076 157.661,116.463 157.855 C 115.881 158.039,114.983 158.281,114.465 158.393 C 112.499 158.819,112.497 158.842,112.391 181.768 C 112.338 193.400,112.420 203.895,112.574 205.090 C 112.938 207.922,112.668 207.860,126.009 208.154 L 136.613 208.387 137.926 209.389 C 138.649 209.940,139.355 210.761,139.497 211.212 C 139.638 211.664,140.223 212.719,140.797 213.557 L 141.841 215.081 141.841 236.122 C 141.841 259.554,141.883 259.118,139.406 261.631 C 135.840 265.248,135.663 265.270,109.025 265.265 C 86.717 265.261,82.042 265.030,82.042 263.928 C 82.042 263.763,81.837 263.623,81.586 263.617 C 79.160 263.556,78.760 259.657,78.759 236.026 C 78.758 213.299,78.916 211.294,80.868 209.298 L 81.759 208.387 93.257 208.204 L 104.754 208.022 105.522 206.993 C 106.281 205.975,106.292 205.673,106.500 179.646 C 106.616 165.170,106.739 153.311,106.773 153.292 C 106.808 153.272,107.179 152.862,107.597 152.380 L 108.357 151.504 151.444 151.322 L 194.531 151.139 196.354 150.228 L 198.177 149.316 198.277 120.510 C 198.332 104.667,198.288 91.335,198.179 90.884 C 197.671 88.786,191.796 90.283,191.796 92.510 C 191.796 92.691,190.895 93.404,189.794 94.095 C 188.679 94.795,187.560 95.835,187.267 96.445 C 186.978 97.046,186.196 97.849,185.531 98.229 C 184.135 99.025,182.798 100.423,182.484 101.412 C 182.364 101.789,182.031 102.097,181.744 102.097 C 181.457 102.097,181.222 102.225,181.222 102.383 C 181.222 102.540,180.760 102.941,180.196 103.275 C 179.632 103.608,178.852 104.544,178.464 105.354 C 178.075 106.165,177.552 106.830,177.302 106.833 C 177.051 106.835,176.846 106.992,176.846 107.182 C 176.846 107.371,176.400 107.740,175.854 108.002 C 175.308 108.264,174.680 108.842,174.458 109.287 C 173.029 112.154,168.459 111.893,168.459 108.945 C 168.459 108.010,169.983 103.555,170.302 103.555 C 170.946 103.555,181.383 93.334,189.522 84.733 C 192.894 81.169,192.660 81.409,195.378 78.739 C 198.076 76.089,199.277 75.470,202.315 75.164 C 202.586 75.136,203.337 75.647,203.984 76.299 M86.326 214.290 C 85.975 214.381,85.688 214.690,85.688 214.977 C 85.688 215.263,85.524 215.497,85.324 215.497 C 84.659 215.497,84.842 255.416,85.513 256.713 C 86.300 258.236,85.551 258.193,109.754 258.080 L 131.814 257.976 132.635 257.156 L 133.455 256.335 133.455 235.943 L 133.455 215.550 132.494 214.794 C 131.584 214.078,88.921 213.612,86.326 214.290 M178.867 214.296 C 178.474 214.401,177.777 214.732,177.317 215.033 L 176.481 215.581 176.481 235.564 C 176.481 255.786,176.522 256.700,177.432 256.700 C 177.711 256.700,177.940 256.858,177.940 257.051 C 177.940 258.067,181.358 258.212,202.635 258.095 L 224.312 257.976 225.191 256.953 L 226.071 255.930 226.071 235.783 C 226.071 218.962,225.986 215.519,225.554 214.928 C 225.050 214.239,181.317 213.647,178.867 214.296 M270.374 214.299 C 267.449 214.616,267.639 213.111,267.639 235.892 L 267.639 256.173 268.459 256.883 C 270.675 258.798,316.272 258.738,318.395 256.817 C 319.506 255.812,319.401 215.926,318.285 214.915 C 317.548 214.248,275.803 213.711,270.374 214.299 M132.031 215.028 L 133.090 215.654 133.090 235.786 L 133.090 255.918 132.129 256.674 C 130.782 257.734,87.517 257.877,86.355 256.826 C 85.374 255.938,85.314 216.150,86.292 215.070 C 87.195 214.071,130.345 214.032,132.031 215.028 M224.886 215.129 L 225.706 215.672 225.706 235.765 C 225.706 255.726,225.701 255.862,224.939 256.552 C 223.701 257.674,180.553 257.826,178.760 256.716 L 177.575 255.982 177.575 235.805 L 177.575 215.629 178.760 215.029 C 180.464 214.167,223.575 214.260,224.886 215.129 M316.955 215.071 L 318.323 215.531 318.317 235.660 C 318.311 257.555,318.412 256.483,316.317 256.887 C 313.591 257.412,274.307 257.520,271.365 257.011 C 268.017 256.431,268.330 258.772,268.450 235.187 L 268.551 215.314 270.556 214.887 C 273.475 214.265,315.047 214.430,316.955 215.071 " stroke="none" fill="#7c8c94" fill-rule="evenodd"></path><path id="path3" d="M200.000 76.314 C 198.797 76.720,197.513 77.395,197.148 77.815 C 194.880 80.420,193.997 81.313,193.688 81.313 C 193.495 81.313,193.048 81.764,192.694 82.315 C 191.474 84.216,172.202 103.553,171.524 103.558 C 170.863 103.563,169.634 105.969,169.418 107.678 C 169.189 109.490,170.484 111.550,171.531 111.040 C 171.747 110.934,172.211 110.747,172.562 110.623 C 172.912 110.499,173.200 110.171,173.200 109.894 C 173.200 109.616,173.353 109.389,173.540 109.389 C 173.727 109.389,173.973 109.097,174.086 108.739 C 174.200 108.381,174.808 107.784,175.437 107.412 C 176.926 106.533,177.607 105.805,178.430 104.213 C 178.799 103.498,179.536 102.688,180.068 102.413 C 181.262 101.796,182.680 100.325,182.680 99.703 C 182.680 99.448,183.295 98.866,184.047 98.410 C 185.484 97.539,186.603 96.464,187.274 95.310 C 187.494 94.932,188.038 94.437,188.483 94.211 C 189.675 93.607,191.796 91.651,191.796 91.156 C 191.796 90.430,193.381 89.359,194.474 89.347 C 195.775 89.331,197.626 88.266,197.641 87.524 C 197.655 86.800,198.346 87.919,198.985 89.699 C 199.647 91.547,199.639 148.699,198.977 149.499 C 197.214 151.626,200.164 151.485,152.780 151.702 C 129.015 151.811,109.234 152.026,108.822 152.182 C 107.060 152.845,107.048 153.025,106.922 180.850 C 106.807 206.471,106.792 206.929,106.064 207.704 C 105.340 208.474,105.048 208.496,93.956 208.632 C 81.480 208.785,81.598 208.764,80.364 211.056 C 79.273 213.082,79.290 259.577,80.383 261.258 C 82.203 264.060,79.404 263.810,109.016 263.810 L 135.460 263.810 136.737 262.905 C 138.569 261.606,140.016 259.942,140.231 258.888 C 140.333 258.387,140.573 257.383,140.764 256.658 C 140.964 255.899,141.112 246.989,141.112 235.656 C 141.112 215.372,141.045 214.351,139.659 213.494 C 139.486 213.388,139.237 212.810,139.106 212.211 C 138.974 211.612,138.715 211.121,138.531 211.121 C 138.346 211.121,138.193 210.916,138.191 210.665 C 138.173 208.860,136.281 208.569,124.590 208.569 L 113.527 208.569 112.703 207.692 C 111.404 206.308,111.237 203.450,111.224 182.287 L 111.212 162.751 112.070 160.299 C 113.112 157.317,113.070 157.358,115.740 156.843 C 118.983 156.217,193.332 156.255,194.417 156.882 C 195.564 157.545,198.724 160.881,198.724 161.429 C 198.724 161.686,198.888 161.896,199.088 161.896 C 199.571 161.896,199.587 201.962,199.105 203.786 C 198.914 204.512,198.666 205.549,198.555 206.092 C 198.121 208.214,196.236 208.569,185.398 208.569 C 175.891 208.569,175.798 208.576,174.050 209.479 C 171.493 210.800,171.241 211.074,170.333 213.520 L 169.511 215.736 169.624 237.889 L 169.736 260.042 170.918 261.098 C 171.568 261.679,172.553 262.262,173.106 262.393 C 173.659 262.525,174.415 262.897,174.787 263.221 C 175.911 264.201,224.984 264.107,227.993 263.120 C 231.571 261.946,231.358 263.662,231.358 235.916 C 231.358 210.039,231.381 210.352,229.387 209.319 C 228.678 208.952,225.609 208.786,217.138 208.658 L 205.834 208.487 205.105 207.525 C 204.393 206.587,204.376 206.000,204.376 183.580 C 204.376 158.757,204.396 158.480,206.374 156.894 C 207.352 156.110,286.343 156.241,287.545 157.029 C 290.088 158.695,290.051 158.353,290.179 181.404 C 290.294 202.084,290.145 207.475,289.460 207.475 C 289.262 207.475,288.854 207.721,288.553 208.022 C 288.095 208.480,286.476 208.569,278.610 208.569 C 271.332 208.569,268.810 208.691,267.423 209.112 C 266.439 209.410,265.305 209.662,264.904 209.670 C 262.679 209.717,262.716 209.268,262.716 236.098 C 262.716 262.762,262.695 262.484,264.800 262.523 C 265.143 262.529,266.287 262.874,267.342 263.290 C 269.229 264.034,269.661 264.044,293.700 263.905 C 321.240 263.746,322.209 263.662,323.898 261.293 L 324.704 260.164 324.819 238.286 C 324.968 210.101,325.032 210.503,320.253 209.257 C 318.212 208.725,316.156 208.607,308.584 208.590 C 297.275 208.564,297.078 208.507,296.472 205.075 C 296.221 203.656,296.079 194.789,296.078 180.462 C 296.076 153.976,295.911 152.416,293.129 152.416 C 292.770 152.416,292.376 152.252,292.252 152.051 C 292.103 151.811,277.349 151.686,249.176 151.686 L 206.325 151.686 205.253 150.614 L 204.181 149.542 204.278 119.894 C 204.385 87.426,204.297 88.711,206.444 88.125 C 207.059 87.958,209.280 89.268,209.292 89.806 C 209.303 90.341,211.806 92.981,212.303 92.981 C 212.697 92.981,213.871 94.205,214.134 94.892 C 214.256 95.210,215.340 96.264,216.542 97.234 C 217.744 98.204,218.739 99.195,218.753 99.438 C 218.767 99.680,219.375 100.336,220.103 100.896 C 220.832 101.456,221.775 102.321,222.200 102.818 C 223.801 104.694,226.051 106.837,226.419 106.837 C 226.629 106.837,226.800 107.065,226.800 107.345 C 226.800 107.624,227.046 107.947,227.347 108.063 C 227.648 108.178,227.894 108.484,227.894 108.743 C 227.894 110.137,232.827 111.082,234.098 109.931 C 235.115 109.011,235.033 108.794,233.181 107.488 C 232.120 106.740,231.541 106.060,231.541 105.562 C 231.541 104.677,229.324 102.097,228.564 102.097 C 227.987 102.097,227.236 101.255,226.428 99.699 C 226.123 99.113,225.309 98.349,224.619 98.003 C 223.929 97.656,223.000 96.769,222.555 96.031 C 221.726 94.657,219.981 93.017,219.323 92.994 C 219.121 92.987,218.521 92.262,217.990 91.383 C 217.432 90.459,216.395 89.431,215.532 88.946 C 214.710 88.484,214.037 87.931,214.036 87.718 C 214.033 87.047,212.451 85.396,211.121 84.678 C 210.419 84.299,209.681 83.670,209.480 83.281 C 208.749 81.862,207.414 80.219,206.993 80.219 C 206.497 80.219,204.558 78.263,204.558 77.763 C 204.558 77.429,203.243 76.119,202.552 75.764 C 202.352 75.661,201.203 75.909,200.000 76.314 M203.817 78.320 C 204.444 79.339,205.490 80.404,206.327 80.874 C 207.882 81.748,208.204 82.264,208.204 83.882 C 208.204 85.034,209.033 85.688,210.494 85.688 C 211.606 85.688,212.423 86.606,212.767 88.241 C 213.071 89.683,213.470 90.050,214.739 90.058 C 215.954 90.066,216.955 91.070,216.955 92.282 C 216.955 93.551,217.817 94.439,219.049 94.439 C 220.272 94.439,221.331 95.407,221.331 96.525 C 221.331 98.032,221.980 98.815,223.229 98.815 C 224.747 98.815,225.706 99.738,225.706 101.197 C 225.706 102.644,226.209 103.087,228.217 103.408 C 230.062 103.704,230.666 104.640,230.294 106.627 C 229.950 108.460,229.383 108.281,226.740 105.506 C 225.470 104.173,223.938 102.619,223.336 102.053 C 220.389 99.281,219.624 98.495,218.829 97.423 C 218.355 96.785,217.747 96.263,217.478 96.263 C 216.860 96.263,215.132 94.559,215.132 93.950 C 215.132 93.699,214.640 93.091,214.039 92.599 C 213.438 92.107,211.631 90.433,210.023 88.879 C 206.901 85.861,206.717 85.756,206.016 86.600 C 205.767 86.901,205.377 87.152,205.151 87.158 C 203.251 87.211,203.282 86.683,203.282 119.683 L 203.282 150.214 204.474 151.406 L 205.666 152.598 248.594 152.679 C 297.136 152.770,293.361 152.514,293.055 155.691 C 292.775 158.605,290.979 161.853,290.973 159.456 C 290.970 158.193,289.937 156.572,288.554 155.660 C 286.887 154.561,206.508 154.584,205.566 155.684 C 203.251 158.387,203.293 157.957,203.162 180.310 C 203.024 204.031,203.155 207.075,204.379 208.499 L 205.222 209.480 216.832 209.663 C 227.709 209.834,228.504 209.891,229.432 210.574 L 230.424 211.304 230.435 235.965 L 230.447 260.627 229.480 261.261 C 228.600 261.837,228.081 261.857,223.737 261.484 C 217.092 260.913,181.518 260.985,178.144 261.577 C 175.647 262.015,175.584 262.006,173.404 260.910 L 171.194 259.799 171.100 237.101 C 171.017 217.076,171.071 214.403,171.556 214.403 C 172.039 214.403,172.106 216.906,172.106 235.163 C 172.106 257.147,172.141 257.619,173.825 258.009 C 174.383 258.138,176.055 258.642,177.539 259.128 L 180.237 260.013 202.333 259.906 C 226.375 259.790,225.482 259.871,226.819 257.680 C 227.498 256.566,227.527 255.673,227.528 235.989 C 227.530 213.370,227.569 213.775,225.299 212.984 C 223.296 212.286,180.253 212.433,177.497 213.147 C 174.613 213.894,173.327 213.615,173.119 212.195 C 173.032 211.604,173.112 211.121,173.296 211.121 C 173.481 211.121,174.049 210.793,174.559 210.392 C 175.436 209.702,176.044 209.662,185.920 209.655 C 202.607 209.642,201.276 211.983,201.276 182.636 L 201.276 162.208 200.306 160.502 C 199.020 158.242,197.390 156.521,195.721 155.661 C 194.397 154.978,193.219 154.961,153.780 155.055 L 113.201 155.150 112.349 155.944 C 110.636 157.539,110.510 159.482,110.496 184.369 L 110.483 207.388 111.646 208.526 L 112.809 209.663 124.317 209.674 L 135.825 209.686 136.811 210.554 C 137.849 211.468,137.825 215.073,136.779 215.422 C 135.944 215.700,136.233 255.488,137.076 256.393 C 138.467 257.885,138.456 259.967,137.053 261.131 C 135.619 262.321,135.382 262.347,132.602 261.623 C 129.003 260.685,88.058 260.843,85.324 261.805 C 80.461 263.516,80.766 265.237,80.766 236.098 C 80.766 212.242,80.783 211.645,81.495 210.677 L 82.224 209.686 94.020 209.674 L 105.815 209.663 106.862 208.542 L 107.908 207.422 108.011 180.622 C 108.111 154.264,108.125 153.816,108.842 153.393 C 109.387 153.072,120.576 152.916,152.963 152.780 C 200.955 152.579,197.717 152.750,200.237 150.286 L 201.297 149.249 201.195 119.019 C 201.084 85.717,201.164 86.861,198.857 85.792 C 197.772 85.288,196.536 85.725,196.536 86.613 C 196.536 86.906,196.360 87.147,196.145 87.147 C 195.930 87.147,195.509 87.393,195.208 87.694 C 194.907 87.995,194.339 88.241,193.946 88.241 C 192.145 88.241,190.702 89.247,190.702 90.504 C 190.702 91.951,189.748 92.713,187.603 92.981 C 186.204 93.156,186.139 93.222,186.027 94.601 C 185.854 96.719,182.484 98.179,181.812 96.427 C 181.602 95.880,184.539 92.616,185.241 92.616 C 185.410 92.616,185.660 92.263,185.797 91.832 C 185.934 91.401,187.586 89.516,189.468 87.643 C 191.350 85.770,192.890 84.134,192.890 84.008 C 192.890 83.501,199.328 77.621,200.095 77.428 C 200.548 77.314,201.009 77.075,201.119 76.897 C 201.641 76.052,202.797 76.662,203.817 78.320 M181.150 99.287 C 181.254 100.880,181.200 100.992,180.238 101.205 C 177.500 101.811,177.406 101.887,177.145 103.709 C 176.873 105.610,176.235 106.294,174.411 106.640 C 173.474 106.818,173.203 107.084,172.995 108.033 C 172.598 109.842,171.520 110.627,170.641 109.748 C 169.648 108.754,170.752 105.604,172.560 104.275 C 173.249 103.768,174.227 102.906,174.733 102.360 C 175.239 101.814,175.922 101.367,176.250 101.367 C 176.578 101.367,176.846 101.174,176.846 100.937 C 176.846 100.337,180.162 97.308,180.645 97.466 C 180.862 97.537,181.089 98.357,181.150 99.287 M233.728 109.025 C 233.728 109.225,233.195 109.373,232.543 109.353 C 231.421 109.318,231.406 109.301,232.270 109.025 C 233.557 108.613,233.728 108.613,233.728 109.025 M294.953 208.246 C 295.837 208.445,296.899 208.846,297.313 209.136 C 297.923 209.562,299.974 209.668,308.103 209.692 C 319.770 209.726,322.076 210.087,323.058 212.034 C 323.530 212.969,323.624 216.523,323.709 236.715 L 323.808 260.304 322.979 261.079 C 322.250 261.762,321.868 261.829,319.781 261.639 C 315.447 261.244,275.056 261.008,272.121 261.360 C 268.919 261.745,264.384 261.338,263.932 260.626 C 263.592 260.089,263.524 215.868,263.860 213.075 L 264.085 211.200 266.682 210.430 C 269.039 209.732,270.172 209.661,278.900 209.662 C 288.785 209.663,290.975 209.329,290.975 207.819 C 290.975 207.485,292.121 207.608,294.953 208.246 M85.457 213.226 C 83.870 214.512,83.865 214.579,83.865 235.880 C 83.865 253.933,83.934 256.454,84.454 257.545 C 85.666 260.086,84.608 259.983,109.263 259.970 L 131.449 259.959 132.852 259.097 C 135.785 257.295,135.643 258.482,135.643 235.774 C 135.643 213.198,135.797 214.532,133.025 213.149 C 131.196 212.236,86.590 212.309,85.457 213.226 M268.429 213.011 C 265.749 213.610,265.816 213.024,265.816 235.860 C 265.816 258.022,265.804 257.900,268.096 259.153 C 269.870 260.122,316.402 260.152,318.167 259.185 C 320.448 257.935,320.320 259.238,320.420 236.316 C 320.523 212.733,320.633 213.766,317.950 213.065 C 315.888 212.526,270.818 212.477,268.429 213.011 M132.397 213.950 C 134.709 215.501,134.549 213.867,134.549 235.905 L 134.549 256.000 133.031 257.444 L 131.513 258.888 109.127 258.888 L 86.741 258.888 85.668 257.713 L 84.594 256.538 84.594 236.045 L 84.594 215.553 85.538 214.431 L 86.482 213.309 108.966 213.311 C 129.739 213.314,131.522 213.362,132.397 213.950 M225.683 214.562 L 226.800 215.633 226.800 235.655 C 226.800 253.438,226.734 255.788,226.211 256.674 C 224.966 258.781,225.913 258.697,202.164 258.813 C 178.372 258.929,179.458 259.006,176.314 256.978 C 174.586 255.864,174.658 256.786,174.658 235.668 L 174.658 215.677 177.119 214.513 L 179.581 213.349 202.073 213.420 L 224.565 213.491 225.683 214.562 M317.867 213.986 C 318.519 214.254,319.052 214.704,319.052 214.986 C 319.052 215.267,319.216 215.497,319.417 215.497 C 319.655 215.497,319.781 222.431,319.781 235.570 C 319.781 258.242,319.879 257.404,317.135 258.236 C 314.845 258.931,271.331 258.915,269.365 258.219 C 266.839 257.326,266.910 257.976,266.910 235.619 L 266.910 215.596 267.851 214.655 C 269.125 213.381,268.414 213.413,294.075 213.458 C 312.063 213.489,316.924 213.597,317.867 213.986 " stroke="none" fill="#a4b4b4" fill-rule="evenodd"></path><path id="path4" d="M202.102 74.307 C 203.537 74.677,205.579 76.416,205.717 77.384 C 205.787 77.873,206.278 78.416,206.928 78.723 C 208.335 79.387,209.541 80.680,210.181 82.212 C 210.551 83.097,210.995 83.495,211.817 83.675 C 212.437 83.812,212.944 84.074,212.944 84.259 C 212.944 84.443,213.150 84.594,213.402 84.594 C 213.654 84.594,214.103 85.128,214.401 85.779 C 214.901 86.877,214.950 86.902,215.065 86.122 C 215.218 85.079,213.907 83.712,212.399 83.344 C 210.961 82.993,210.395 82.487,210.379 81.541 C 210.361 80.460,208.951 78.906,207.722 78.614 C 206.961 78.432,206.511 77.957,205.994 76.789 C 205.097 74.761,204.570 74.349,202.658 74.183 C 201.532 74.085,201.376 74.119,202.102 74.307 M197.071 75.069 C 196.011 75.550,195.421 76.136,194.955 77.168 C 194.501 78.176,193.833 78.853,192.699 79.454 C 191.573 80.051,190.868 80.762,190.359 81.813 C 189.898 82.763,189.212 83.502,188.500 83.815 C 187.205 84.386,185.962 85.604,185.962 86.304 C 185.962 86.938,184.767 88.108,183.810 88.412 C 183.085 88.642,181.222 90.733,181.222 91.316 C 181.222 91.710,179.657 92.954,179.143 92.969 C 178.668 92.982,176.846 95.202,176.846 95.768 C 176.846 95.960,176.103 96.587,175.195 97.161 C 174.287 97.734,173.204 98.809,172.789 99.548 C 172.305 100.409,171.453 101.175,170.420 101.676 C 166.591 103.537,166.598 112.595,170.428 112.659 C 170.946 112.668,170.815 112.465,169.906 111.851 C 166.988 109.878,167.797 104.042,171.295 101.831 C 172.169 101.278,173.218 100.287,173.624 99.629 C 174.031 98.971,174.799 98.205,175.331 97.926 C 175.864 97.647,176.709 96.894,177.211 96.252 C 177.712 95.610,178.601 94.652,179.185 94.124 C 179.770 93.595,180.774 92.608,181.417 91.931 C 183.392 89.846,183.911 89.331,185.244 88.127 C 185.953 87.488,186.824 86.504,187.180 85.942 C 187.536 85.380,188.105 84.819,188.444 84.695 C 189.297 84.384,190.412 83.208,191.393 81.586 C 191.848 80.834,192.437 80.219,192.702 80.219 C 192.968 80.219,194.077 79.209,195.167 77.975 C 196.770 76.159,197.525 75.609,199.121 75.095 C 201.000 74.490,201.033 74.458,199.818 74.430 C 199.116 74.414,197.880 74.701,197.071 75.069 M215.658 87.705 C 216.047 88.000,216.539 88.246,216.752 88.253 C 217.358 88.272,218.545 89.418,219.130 90.550 C 219.423 91.118,220.326 91.971,221.135 92.446 C 221.945 92.921,222.927 93.905,223.318 94.632 C 223.709 95.359,224.447 96.173,224.959 96.440 C 226.210 97.095,227.793 98.830,227.954 99.724 C 228.027 100.123,228.576 100.682,229.175 100.965 C 229.774 101.249,230.319 101.619,230.386 101.789 C 230.453 101.958,230.701 102.097,230.938 102.097 C 231.321 102.097,232.634 104.578,232.634 105.302 C 232.634 105.458,233.168 105.890,233.820 106.262 C 236.373 107.719,236.822 109.066,235.299 110.703 C 233.636 112.492,226.868 111.856,226.812 109.906 C 226.798 109.419,224.255 106.837,223.790 106.837 C 223.346 106.837,222.088 105.316,222.072 104.762 C 222.066 104.523,221.076 103.569,219.872 102.644 C 218.669 101.718,217.685 100.814,217.685 100.634 C 217.685 100.176,215.105 97.722,214.620 97.718 C 214.401 97.717,213.840 97.050,213.376 96.236 C 212.902 95.406,211.839 94.338,210.955 93.805 C 210.089 93.281,209.093 92.367,208.742 91.773 C 207.116 89.020,205.591 89.092,205.700 91.916 L 205.748 93.163 205.973 91.887 C 206.251 90.313,207.058 90.220,207.826 91.674 C 208.589 93.122,209.426 93.951,210.447 94.272 C 211.499 94.602,212.944 96.101,212.944 96.861 C 212.944 97.534,214.361 98.786,215.142 98.803 C 215.823 98.818,216.786 99.896,217.154 101.054 C 217.468 102.042,218.145 102.659,219.690 103.363 C 220.301 103.641,221.105 104.478,221.511 105.258 C 222.228 106.634,222.996 107.390,224.420 108.120 C 224.819 108.325,225.312 108.818,225.517 109.217 C 227.185 112.469,231.949 113.830,235.020 111.932 C 237.577 110.352,236.923 105.796,234.133 105.751 C 233.454 105.740,232.660 104.647,232.646 103.703 C 232.630 102.656,231.211 101.148,229.964 100.854 C 229.215 100.677,228.744 100.193,228.233 99.075 C 227.276 96.984,226.784 96.425,225.652 96.143 C 225.043 95.991,224.554 95.530,224.332 94.897 C 223.844 93.511,222.220 91.980,220.940 91.699 C 220.165 91.529,219.869 91.247,219.860 90.673 C 219.838 89.223,217.303 87.128,215.606 87.158 C 214.997 87.169,215.000 87.208,215.658 87.705 M192.580 92.320 C 191.987 93.546,191.442 94.067,190.167 94.627 C 189.262 95.025,188.519 95.524,188.518 95.736 C 188.510 96.560,186.679 98.548,185.296 99.232 C 184.429 99.661,183.758 100.287,183.633 100.784 C 183.378 101.802,181.684 103.555,180.957 103.555 C 180.289 103.555,179.062 104.998,179.046 105.802 C 179.033 106.458,177.251 108.118,176.203 108.450 C 175.847 108.563,175.233 109.254,174.840 109.985 C 174.375 110.849,173.611 111.543,172.659 111.967 C 171.475 112.494,171.358 112.624,172.049 112.645 C 173.267 112.682,175.016 111.550,175.263 110.565 C 175.378 110.105,175.987 109.464,176.615 109.142 C 178.186 108.335,179.287 107.079,179.576 105.764 C 179.762 104.917,180.175 104.500,181.341 103.984 C 183.063 103.220,183.528 102.738,184.023 101.202 C 184.268 100.442,184.696 100.040,185.472 99.839 C 186.880 99.474,188.514 97.968,188.514 97.035 C 188.514 96.062,189.471 95.169,190.513 95.169 C 191.416 95.169,193.254 93.316,193.254 92.406 C 193.254 91.547,193.754 91.823,194.622 93.163 L 195.442 94.429 195.442 121.772 L 195.442 149.115 194.366 149.672 C 193.420 150.161,188.149 150.228,150.563 150.228 L 107.835 150.228 106.606 151.530 L 105.378 152.832 105.460 178.239 L 105.541 203.646 105.733 178.669 C 105.940 151.762,105.920 152.022,107.826 151.093 C 108.184 150.918,127.922 150.693,151.686 150.593 C 193.085 150.418,194.937 150.382,195.898 149.730 L 196.901 149.050 196.885 122.201 C 196.866 91.325,196.890 91.605,194.303 90.971 C 193.449 90.762,193.264 90.907,192.580 92.320 M205.376 121.149 C 205.288 148.708,205.298 149.145,206.016 149.863 C 206.738 150.585,207.171 150.592,248.405 150.503 L 290.064 150.413 248.523 150.319 C 210.563 150.233,206.925 150.173,206.319 149.625 C 205.691 149.057,205.651 147.561,205.561 121.094 L 205.465 93.163 205.376 121.149 M292.799 150.794 C 293.701 151.078,294.643 151.313,294.891 151.316 C 295.470 151.323,296.741 152.387,297.293 153.327 C 297.604 153.857,297.776 160.844,297.923 178.851 C 298.129 204.055,298.255 206.269,299.538 207.196 C 299.742 207.343,304.141 207.466,309.314 207.469 C 319.237 207.475,322.769 207.911,324.158 209.299 C 325.518 210.660,325.616 212.558,325.589 237.080 C 325.558 264.874,325.919 262.393,321.604 264.399 C 320.702 264.818,319.389 265.472,318.687 265.853 C 317.471 266.512,316.278 266.544,293.236 266.545 C 268.191 266.545,267.606 266.514,266.545 265.108 C 266.445 264.975,265.706 264.566,264.904 264.198 C 263.076 263.361,262.202 262.459,261.774 260.969 C 261.380 259.595,261.353 216.070,261.744 212.559 C 262.256 207.966,263.785 207.475,277.560 207.475 L 287.250 207.475 287.928 205.925 C 288.558 204.483,288.612 202.911,288.708 183.311 L 288.810 162.247 287.853 160.613 L 286.895 158.979 246.830 158.979 L 206.764 158.979 206.117 160.164 C 205.201 161.841,205.112 204.396,206.021 206.199 L 206.573 207.293 217.325 207.345 C 225.459 207.384,227.721 207.303,226.618 207.012 C 225.816 206.801,221.037 206.567,215.997 206.493 L 206.835 206.357 206.243 204.249 C 205.333 201.003,205.353 163.277,206.266 161.362 L 206.881 160.073 246.852 160.073 L 286.824 160.073 287.441 161.472 C 288.140 163.057,288.398 201.188,287.724 203.318 C 287.540 203.900,287.291 204.827,287.170 205.378 L 286.951 206.381 278.066 206.381 C 270.894 206.381,268.980 206.486,268.136 206.926 C 267.562 207.225,266.552 207.471,265.892 207.473 C 263.667 207.477,261.975 208.673,261.402 210.646 C 260.830 212.615,260.631 258.563,261.183 261.166 C 261.511 262.710,262.670 264.127,263.931 264.523 C 264.398 264.670,265.275 265.308,265.880 265.941 L 266.980 267.092 292.196 267.200 C 319.890 267.318,319.191 267.351,320.741 265.836 C 321.341 265.250,322.266 264.661,322.798 264.528 C 323.958 264.237,325.558 262.715,325.817 261.657 C 326.260 259.846,325.803 209.907,325.342 209.754 C 325.091 209.670,324.885 209.411,324.883 209.177 C 324.879 208.551,323.179 207.843,320.693 207.431 C 319.490 207.231,318.349 206.913,318.159 206.725 C 317.961 206.529,314.028 206.381,309.007 206.381 L 300.202 206.381 299.606 205.014 C 299.077 203.800,298.999 200.861,298.912 178.851 C 298.821 155.688,298.771 153.977,298.153 152.843 C 297.333 151.341,295.046 150.238,292.799 150.260 L 291.158 150.277 292.799 150.794 M115.362 159.886 C 112.507 161.261,112.628 160.172,112.752 183.429 C 112.865 204.575,112.988 206.381,114.317 206.381 C 114.582 206.381,114.866 206.586,114.950 206.837 C 115.064 207.182,117.703 207.337,125.828 207.475 C 137.718 207.677,137.907 207.713,139.771 210.157 C 140.302 210.853,140.944 211.642,141.198 211.910 C 142.850 213.652,142.940 214.940,142.912 236.281 C 142.880 260.911,142.961 260.312,139.289 262.979 C 137.985 263.926,136.652 264.932,136.326 265.213 C 135.211 266.177,132.880 266.286,110.119 266.437 C 82.815 266.619,80.996 266.367,79.483 262.203 C 79.222 261.483,78.936 261.105,78.848 261.365 C 78.529 262.311,79.137 263.510,80.834 265.282 L 82.569 267.092 109.015 267.092 C 125.998 267.092,135.677 266.962,136.066 266.727 C 136.400 266.527,137.336 265.747,138.147 264.995 C 138.958 264.243,139.768 263.628,139.946 263.628 C 141.398 263.628,142.872 261.044,143.110 258.083 C 143.785 249.666,143.154 212.820,142.312 211.481 C 139.854 207.572,136.788 206.682,125.088 206.480 L 117.632 206.351 115.972 205.030 C 115.059 204.303,114.107 203.458,113.856 203.152 C 113.504 202.722,113.400 198.023,113.400 182.435 L 113.400 162.275 115.755 161.174 L 118.110 160.073 155.796 160.073 L 193.483 160.073 194.462 161.096 L 195.442 162.118 195.442 182.943 C 195.442 194.397,195.304 203.823,195.134 203.889 C 194.965 203.956,194.594 204.503,194.310 205.105 L 193.793 206.199 186.140 206.413 C 178.240 206.635,173.787 207.153,172.049 208.051 C 171.498 208.336,170.835 208.572,170.574 208.575 C 167.995 208.609,167.730 211.271,167.730 237.180 C 167.730 263.145,167.662 262.554,170.838 263.959 C 171.693 264.337,172.917 265.196,173.560 265.869 L 174.729 267.092 199.861 267.195 C 226.374 267.304,227.137 267.263,228.681 265.635 C 229.151 265.140,229.756 264.732,230.027 264.728 C 230.970 264.716,232.635 262.521,232.619 261.311 L 232.604 260.164 231.799 261.755 C 231.246 262.848,230.537 263.576,229.535 264.082 C 228.733 264.487,227.830 264.958,227.530 265.129 C 224.916 266.616,225.560 266.584,200.553 266.463 C 176.552 266.347,174.294 266.226,174.294 265.051 C 174.294 264.870,174.118 264.722,173.903 264.722 C 173.688 264.722,173.266 264.476,172.965 264.175 C 172.664 263.874,172.143 263.623,171.806 263.616 C 171.052 263.601,169.945 262.678,169.087 261.347 C 168.480 260.405,168.446 258.811,168.541 236.187 C 168.657 208.289,168.328 210.641,172.387 208.726 L 175.039 207.475 184.430 207.475 C 194.123 207.475,195.442 207.285,195.442 205.891 C 195.442 205.643,195.770 204.798,196.171 204.011 C 196.875 202.632,196.900 201.865,196.896 182.512 L 196.892 162.443 195.224 160.711 L 193.556 158.979 155.392 158.983 L 117.229 158.988 115.362 159.886 M104.908 205.002 L 104.620 206.357 95.428 206.504 C 81.273 206.730,79.995 207.366,93.574 207.426 C 105.803 207.480,105.517 207.539,105.310 205.039 L 105.195 203.646 104.908 205.002 M79.704 208.597 C 79.185 209.214,78.765 210.157,78.770 210.693 C 78.779 211.599,78.824 211.570,79.408 210.290 C 79.754 209.532,80.529 208.590,81.130 208.196 C 82.108 207.556,82.141 207.479,81.436 207.477 C 81.002 207.476,80.225 207.978,79.704 208.597 M229.319 207.951 C 230.892 208.503,231.966 209.942,232.290 211.934 L 232.543 213.491 232.589 211.549 C 232.646 209.113,231.302 207.461,229.290 207.496 L 228.077 207.516 229.319 207.951 M78.247 213.180 C 78.106 213.811,77.671 214.616,77.281 214.969 C 76.309 215.848,76.156 255.901,77.122 256.702 C 77.424 256.953,77.916 257.917,78.215 258.844 L 78.758 260.529 78.534 258.888 C 78.065 255.461,77.964 216.856,78.418 214.907 C 78.658 213.881,78.775 212.815,78.679 212.537 C 78.583 212.260,78.389 212.549,78.247 213.180 M86.292 215.070 C 85.314 216.150,85.374 255.938,86.355 256.826 C 87.517 257.877,130.782 257.734,132.129 256.674 L 133.090 255.918 133.090 235.786 L 133.090 215.654 132.031 215.028 C 130.345 214.032,87.195 214.071,86.292 215.070 M178.760 215.029 L 177.575 215.629 177.575 235.805 L 177.575 255.982 178.760 256.716 C 180.553 257.826,223.701 257.674,224.939 256.552 C 225.701 255.862,225.706 255.726,225.706 235.765 L 225.706 215.672 224.886 215.129 C 223.575 214.260,180.464 214.167,178.760 215.029 M270.556 214.887 L 268.551 215.314 268.450 235.187 C 268.330 258.772,268.017 256.431,271.365 257.011 C 274.307 257.520,313.591 257.412,316.317 256.887 C 318.412 256.483,318.311 257.555,318.317 235.660 L 318.323 215.531 316.955 215.071 C 315.047 214.430,273.475 214.265,270.556 214.887 M131.784 215.354 C 132.542 215.644,132.677 255.509,131.923 256.263 C 131.168 257.017,86.565 256.881,86.274 256.123 C 85.802 254.892,86.028 215.568,86.509 215.374 C 87.166 215.109,131.095 215.089,131.784 215.354 M223.285 215.364 L 224.977 215.596 224.977 235.771 C 224.977 255.343,224.956 255.956,224.272 256.323 C 223.124 256.937,179.759 256.813,178.943 256.193 C 178.348 255.742,178.304 254.324,178.304 235.629 C 178.304 216.813,178.345 215.540,178.943 215.384 C 179.941 215.122,221.390 215.104,223.285 215.364 M315.679 215.368 L 317.593 215.598 317.593 235.727 L 317.593 255.855 316.184 256.278 C 314.239 256.860,272.662 256.874,270.353 256.292 L 268.733 255.884 268.733 235.711 L 268.733 215.539 270.283 215.399 C 272.984 215.156,313.680 215.128,315.679 215.368 " stroke="none" fill="#5c7484" fill-rule="evenodd"></path><path id="path5" d="M0.000 182.315 L 0.000 364.631 200.000 364.631 L 400.000 364.631 400.000 182.315 L 400.000 0.000 200.000 0.000 L 0.000 0.000 0.000 182.315 M204.351 73.108 C 205.095 73.810,205.845 74.385,206.018 74.385 C 206.191 74.385,206.448 74.754,206.589 75.205 C 206.871 76.100,208.330 77.625,209.473 78.218 C 210.382 78.689,211.109 80.099,211.116 81.404 C 211.120 82.212,211.288 82.407,211.978 82.407 C 213.394 82.407,215.088 83.152,215.318 83.877 C 215.437 84.251,215.851 84.657,216.237 84.780 C 216.624 84.903,217.225 85.486,217.573 86.075 C 217.922 86.664,218.428 87.147,218.698 87.147 C 219.180 87.147,220.766 88.457,221.989 89.865 C 223.182 91.240,226.229 94.075,226.513 94.075 C 226.671 94.075,226.800 94.258,226.800 94.482 C 226.800 94.707,227.293 95.451,227.894 96.136 C 228.496 96.821,228.988 97.562,228.988 97.783 C 228.988 98.258,230.689 99.928,231.716 100.460 C 232.614 100.926,233.351 102.338,233.358 103.606 C 233.363 104.418,233.566 104.606,234.659 104.811 C 236.961 105.243,237.375 105.895,237.375 109.097 C 237.375 113.146,235.844 113.893,229.209 113.081 C 225.704 112.652,225.206 112.329,224.807 110.224 C 224.624 109.262,224.375 109.013,223.414 108.830 C 221.701 108.506,221.140 107.939,220.760 106.146 C 220.443 104.654,220.308 104.511,218.783 104.063 C 216.859 103.496,216.226 102.767,216.226 101.115 C 216.226 100.060,216.108 99.909,215.280 99.909 C 213.250 99.909,211.486 98.121,211.486 96.063 C 211.486 95.269,211.329 95.169,210.084 95.169 C 208.388 95.169,207.463 94.288,207.116 92.342 C 206.572 89.295,206.344 100.247,206.452 124.339 L 206.563 149.316 251.595 149.499 C 301.855 149.702,298.409 149.504,299.231 152.233 C 299.553 153.303,299.679 160.164,299.703 177.940 C 299.722 191.276,299.835 202.557,299.956 203.008 L 300.176 203.829 309.489 203.829 L 318.801 203.829 320.020 204.759 C 320.691 205.270,321.240 205.982,321.240 206.341 C 321.240 206.852,321.690 207.064,323.334 207.325 C 326.732 207.864,326.509 206.030,326.641 234.584 C 326.757 259.680,326.595 263.735,325.443 264.577 C 325.137 264.801,324.886 265.090,324.886 265.218 C 324.886 265.501,323.507 266.910,323.230 266.910 C 323.122 266.910,322.534 267.279,321.924 267.730 L 320.814 268.551 293.378 268.551 L 265.942 268.551 264.151 267.444 C 263.166 266.835,262.188 265.991,261.977 265.568 C 261.767 265.146,261.354 264.511,261.061 264.158 C 260.322 263.266,260.254 209.596,260.991 208.307 C 261.334 207.708,261.932 207.435,263.298 207.254 C 264.751 207.061,265.209 206.835,265.454 206.191 C 266.295 203.979,267.057 203.829,277.433 203.829 L 286.931 203.829 287.143 202.644 C 287.260 201.992,287.308 192.598,287.251 181.768 L 287.147 162.078 246.855 162.078 L 206.563 162.078 206.459 181.768 C 206.402 192.598,206.450 201.992,206.567 202.644 L 206.779 203.829 216.627 203.829 C 227.541 203.829,228.208 203.948,230.723 206.351 C 231.369 206.969,232.043 207.475,232.219 207.475 C 233.264 207.475,233.391 210.962,233.287 236.828 L 233.181 263.081 232.283 264.972 C 231.635 266.335,230.972 267.100,229.912 267.707 L 228.441 268.551 207.110 268.677 C 195.378 268.747,182.920 268.687,179.426 268.544 L 173.072 268.285 171.951 267.137 C 171.334 266.505,170.050 265.365,169.098 264.602 L 167.366 263.215 167.366 236.273 L 167.366 209.331 168.294 208.403 C 168.826 207.871,169.643 207.473,170.208 207.470 C 171.938 207.461,172.764 207.067,173.185 206.051 C 174.044 203.978,174.811 203.829,184.589 203.829 C 193.454 203.829,193.498 203.825,193.929 203.008 C 194.253 202.396,194.338 197.092,194.264 182.133 L 194.166 162.078 156.062 161.978 C 135.105 161.923,117.589 161.967,117.138 162.076 L 116.317 162.275 116.317 182.371 L 116.317 202.467 117.102 203.148 C 117.823 203.773,118.622 203.829,126.822 203.829 L 135.756 203.829 136.976 204.759 C 137.646 205.270,138.195 205.935,138.195 206.236 C 138.195 206.537,138.810 207.033,139.562 207.338 C 144.437 209.316,144.029 206.628,144.029 236.781 C 144.029 265.365,144.228 263.467,141.132 264.394 C 140.047 264.719,139.662 265.061,139.417 265.916 C 138.631 268.656,139.721 268.535,114.559 268.680 C 86.371 268.843,81.333 268.654,80.064 267.385 C 79.091 266.412,78.031 263.326,78.031 261.466 C 78.031 260.631,77.813 260.237,77.211 259.985 C 74.364 258.795,74.385 258.966,74.385 236.036 C 74.385 213.321,74.516 212.282,77.393 212.227 C 77.849 212.219,78.031 211.918,78.031 211.176 C 78.031 209.484,78.717 208.004,80.245 206.397 C 82.501 204.026,83.576 203.837,94.868 203.833 L 104.594 203.829 104.745 177.849 C 104.829 163.560,105.019 151.520,105.168 151.093 C 105.733 149.480,105.208 149.499,150.215 149.499 C 173.854 149.499,193.454 149.399,193.771 149.277 C 194.563 148.974,194.663 95.796,193.874 95.007 C 193.305 94.438,192.270 95.148,191.508 96.630 C 191.249 97.133,190.470 97.933,189.776 98.409 C 189.082 98.884,188.514 99.417,188.514 99.591 C 188.514 99.766,188.186 99.909,187.785 99.909 C 187.384 99.909,187.056 100.082,187.056 100.293 C 187.056 100.721,180.994 106.837,180.570 106.837 C 180.298 106.837,179.808 107.645,178.968 109.480 C 178.716 110.032,178.381 110.483,178.225 110.483 C 178.068 110.483,177.935 110.688,177.930 110.939 C 177.912 111.782,173.492 113.452,171.277 113.452 C 167.379 113.452,167.156 113.014,167.349 105.743 C 167.455 101.763,167.766 101.183,170.039 100.733 C 171.398 100.465,171.561 100.308,171.908 98.945 C 172.426 96.909,173.058 96.263,174.532 96.263 C 175.775 96.263,175.884 96.147,176.253 94.439 C 176.578 92.934,177.374 92.170,178.867 91.927 C 180.070 91.731,180.315 91.534,180.506 90.607 C 180.916 88.614,181.544 87.884,183.243 87.430 C 184.421 87.115,184.868 86.811,184.868 86.324 C 184.868 84.778,185.936 83.530,187.698 83.016 C 189.270 82.558,189.445 82.395,189.639 81.202 C 189.927 79.429,190.494 78.844,192.268 78.493 C 193.630 78.224,193.806 78.060,194.151 76.746 C 194.713 74.599,194.855 74.488,197.640 74.018 C 199.618 73.685,200.343 73.390,200.829 72.721 C 201.712 71.507,202.777 71.624,204.351 73.108 M86.782 235.919 L 86.782 256.341 109.116 256.247 L 131.449 256.153 131.544 235.825 L 131.638 215.497 109.210 215.497 L 86.782 215.497 86.782 235.919 M179.851 235.825 L 179.945 256.153 199.271 256.261 C 209.900 256.321,219.458 256.268,220.510 256.144 L 222.425 255.918 222.425 235.708 L 222.425 215.497 201.091 215.497 L 179.757 215.497 179.851 235.825 M272.015 235.688 L 272.015 255.880 273.154 256.108 C 274.615 256.400,312.765 256.398,313.856 256.106 L 314.676 255.886 314.676 235.691 L 314.676 215.497 293.345 215.497 L 272.015 215.497 272.015 235.688 " stroke="none" fill="#3c546c" fill-rule="evenodd"></path><path id="path6" d="M200.000 74.043 C 199.230 74.255,199.555 74.294,201.094 74.174 C 203.878 73.956,204.874 74.467,205.907 76.644 C 206.629 78.165,207.918 79.168,208.457 78.629 C 208.566 78.520,208.225 78.323,207.700 78.192 C 207.175 78.060,206.746 77.789,206.746 77.591 C 206.746 74.817,203.460 73.090,200.000 74.043 M196.157 74.918 C 195.648 75.195,195.014 75.885,194.748 76.453 C 194.481 77.020,194.143 77.730,193.995 78.031 C 193.848 78.332,193.415 78.626,193.035 78.685 C 191.690 78.894,188.625 82.771,189.804 82.771 C 189.917 82.771,190.238 82.225,190.517 81.557 C 190.857 80.743,191.567 80.055,192.667 79.471 C 193.833 78.853,194.498 78.184,194.955 77.168 C 195.421 76.136,196.011 75.550,197.071 75.069 C 197.982 74.655,198.264 74.403,197.812 74.407 C 197.411 74.411,196.666 74.641,196.157 74.918 M209.287 79.469 C 209.679 80.201,210.392 80.801,210.392 80.399 C 210.392 79.898,209.615 78.760,209.272 78.760 C 209.034 78.760,209.040 79.006,209.287 79.469 M210.418 81.724 C 210.384 82.500,211.049 83.026,212.399 83.292 C 213.421 83.493,213.411 83.476,212.244 83.025 C 211.558 82.760,210.872 82.225,210.720 81.837 C 210.504 81.286,210.438 81.261,210.418 81.724 M186.782 84.209 C 186.331 84.586,185.962 85.101,185.962 85.355 C 185.962 85.663,186.173 85.608,186.600 85.188 C 186.951 84.843,187.566 84.327,187.967 84.042 C 188.501 83.662,188.550 83.524,188.149 83.524 C 187.849 83.524,187.233 83.833,186.782 84.209 M213.896 84.019 C 214.113 84.585,215.132 85.110,215.132 84.656 C 215.132 84.293,214.340 83.500,213.977 83.500 C 213.823 83.500,213.786 83.734,213.896 84.019 M217.484 87.758 C 218.076 88.079,218.850 88.687,219.204 89.111 C 219.822 89.850,220.146 89.563,219.593 88.766 C 219.141 88.116,217.554 87.146,216.965 87.161 C 216.659 87.169,216.893 87.438,217.484 87.758 M183.409 88.134 C 182.491 88.469,181.221 89.793,181.233 90.401 C 181.241 90.783,181.505 90.626,182.025 89.929 C 182.454 89.353,183.310 88.662,183.927 88.393 C 184.995 87.929,184.563 87.712,183.409 88.134 M206.129 90.884 C 205.463 91.914,205.573 148.807,206.243 149.547 C 206.838 150.205,208.295 150.225,250.467 150.138 L 294.075 150.049 250.537 149.954 C 219.101 149.886,206.863 149.747,206.508 149.452 C 205.944 148.984,205.793 94.846,206.348 91.978 C 206.662 90.353,206.618 90.130,206.129 90.884 M219.872 90.946 C 219.872 91.231,220.356 91.571,220.947 91.700 C 222.080 91.949,224.248 93.897,224.248 94.665 C 224.248 95.326,225.298 96.266,226.006 96.239 C 226.450 96.223,226.396 96.127,225.809 95.891 C 225.364 95.712,224.758 95.025,224.461 94.364 C 223.689 92.644,223.059 91.969,221.973 91.696 C 221.448 91.564,220.930 91.225,220.822 90.942 C 220.565 90.274,219.872 90.277,219.872 90.946 M207.693 92.069 C 208.397 93.842,211.486 96.105,211.486 94.848 C 211.486 94.667,211.071 94.414,210.565 94.287 C 209.633 94.053,208.204 92.863,208.204 92.321 C 208.204 92.159,207.959 91.708,207.659 91.319 C 207.202 90.725,207.207 90.846,207.693 92.069 M179.217 92.461 C 177.697 93.254,176.845 94.084,176.850 94.769 C 176.853 95.147,177.181 94.936,177.788 94.166 C 178.302 93.514,178.936 92.981,179.198 92.981 C 179.460 92.981,179.878 92.735,180.128 92.434 C 180.697 91.748,180.577 91.752,179.217 92.461 M193.254 92.406 C 193.254 92.691,192.830 93.430,192.310 94.047 C 191.791 94.664,191.547 95.169,191.769 95.169 C 191.990 95.169,192.479 94.663,192.855 94.044 C 193.573 92.863,193.627 92.884,194.620 94.755 C 195.444 96.307,195.270 148.962,194.439 149.368 C 194.088 149.540,174.329 149.763,150.531 149.863 L 107.260 150.046 106.319 150.930 C 105.802 151.416,105.378 152.043,105.378 152.323 C 105.378 152.603,105.931 152.246,106.606 151.530 L 107.835 150.228 150.563 150.228 C 188.149 150.228,193.420 150.161,194.366 149.672 L 195.442 149.115 195.442 121.772 L 195.442 94.429 194.622 93.163 C 193.754 91.823,193.254 91.547,193.254 92.406 M189.341 95.408 C 189.094 95.508,188.722 96.219,188.515 96.988 C 188.262 97.928,187.753 98.633,186.959 99.141 C 186.310 99.557,186.026 99.894,186.326 99.891 C 187.108 99.882,188.374 98.736,188.685 97.756 C 188.974 96.846,189.952 95.741,190.747 95.425 C 191.058 95.302,190.971 95.226,190.520 95.226 C 190.119 95.226,189.588 95.308,189.341 95.408 M211.862 95.252 C 211.824 96.119,213.166 98.552,213.816 98.795 C 215.720 99.506,216.315 99.618,216.068 99.219 C 215.931 98.997,215.541 98.809,215.202 98.803 C 214.401 98.787,212.944 97.567,212.944 96.912 C 212.944 96.393,211.883 94.766,211.862 95.252 M174.738 96.869 C 173.408 97.524,171.965 99.308,172.201 100.005 C 172.284 100.253,172.628 99.925,172.965 99.277 C 173.301 98.629,174.056 97.850,174.641 97.548 C 176.525 96.573,176.615 95.944,174.738 96.869 M226.800 96.617 C 226.800 96.800,226.960 97.047,227.155 97.168 C 227.349 97.288,227.825 98.102,228.212 98.976 C 228.849 100.416,230.158 101.413,230.699 100.871 C 230.808 100.763,230.500 100.574,230.015 100.452 C 229.378 100.292,228.939 99.732,228.437 98.438 C 227.822 96.854,226.800 95.717,226.800 96.617 M184.149 100.861 C 183.508 102.662,183.229 102.984,181.566 103.834 C 180.350 104.456,179.838 104.989,179.488 105.999 C 178.971 107.493,178.221 108.307,176.581 109.155 C 175.971 109.471,175.378 110.103,175.263 110.562 C 175.147 111.020,174.595 111.677,174.035 112.023 C 173.308 112.472,173.196 112.654,173.645 112.661 C 173.989 112.667,174.636 112.179,175.080 111.577 C 175.525 110.975,175.999 110.483,176.134 110.483 C 177.095 110.483,180.128 106.512,180.128 105.255 C 180.128 104.944,180.648 104.633,181.404 104.491 C 182.106 104.359,182.680 104.095,182.680 103.903 C 182.680 103.712,182.891 103.555,183.148 103.555 C 183.619 103.555,185.028 100.312,184.699 99.984 C 184.603 99.887,184.355 100.282,184.149 100.861 M216.780 101.276 C 217.386 102.747,218.215 103.555,219.117 103.555 C 219.446 103.555,219.195 103.214,218.513 102.735 C 217.871 102.284,217.245 101.463,217.122 100.912 C 216.998 100.360,216.744 99.909,216.557 99.909 C 216.370 99.909,216.470 100.524,216.780 101.276 M170.845 100.904 C 168.669 101.457,167.330 103.740,167.413 106.753 L 167.461 108.478 167.735 106.472 C 168.160 103.368,168.607 102.588,170.542 101.581 C 172.240 100.697,172.314 100.531,170.845 100.904 M231.176 101.129 C 231.176 101.199,231.504 101.634,231.905 102.097 C 232.696 103.009,232.858 102.831,232.257 101.708 C 231.941 101.117,231.176 100.708,231.176 101.129 M232.651 103.920 C 232.660 104.677,233.522 105.741,234.133 105.751 C 236.894 105.795,237.577 110.310,235.066 111.919 C 234.426 112.328,234.159 112.661,234.468 112.665 C 237.782 112.701,238.064 106.649,234.799 105.555 C 234.110 105.324,233.343 104.738,233.096 104.254 C 232.848 103.769,232.648 103.619,232.651 103.920 M220.966 104.992 C 220.966 105.861,222.470 107.931,223.093 107.919 C 223.589 107.909,223.549 107.780,222.881 107.222 C 222.429 106.846,222.055 106.400,222.049 106.231 C 222.028 105.690,220.966 104.474,220.966 104.992 M224.490 108.469 C 224.913 108.765,225.373 109.463,225.512 110.019 C 225.865 111.428,226.949 112.325,228.544 112.530 L 229.900 112.704 228.535 112.184 C 227.188 111.671,225.742 110.313,225.719 109.537 C 225.704 109.069,224.520 107.931,224.047 107.931 C 223.868 107.931,224.067 108.173,224.490 108.469 M167.380 109.699 C 167.352 110.654,168.550 112.671,169.139 112.659 C 169.674 112.649,169.670 112.598,169.103 112.167 C 168.755 111.903,168.228 111.129,167.932 110.447 C 167.636 109.765,167.388 109.428,167.380 109.699 M170.556 112.928 C 171.007 113.015,171.746 113.015,172.197 112.928 C 172.648 112.841,172.279 112.770,171.376 112.770 C 170.474 112.770,170.105 112.841,170.556 112.928 M295.960 150.934 C 297.790 151.765,298.354 152.684,298.659 155.333 L 298.890 157.338 298.944 155.071 C 299.006 152.423,297.405 150.220,295.430 150.236 C 294.534 150.243,294.585 150.310,295.960 150.934 M115.679 161.190 L 113.400 162.276 113.400 182.436 C 113.400 198.024,113.504 202.722,113.856 203.152 C 114.107 203.458,115.067 204.310,115.990 205.045 L 117.669 206.381 124.778 206.381 C 128.688 206.381,132.363 206.532,132.945 206.717 C 133.526 206.901,134.904 207.134,136.007 207.233 C 137.110 207.333,137.685 207.329,137.284 207.225 C 136.882 207.120,136.302 206.812,135.994 206.540 C 134.767 205.455,130.870 204.933,123.955 204.928 L 117.190 204.923 116.024 203.720 L 114.859 202.518 114.859 182.236 L 114.859 161.954 115.948 161.715 C 116.548 161.583,117.132 161.324,117.246 161.139 C 117.371 160.937,132.633 160.802,155.473 160.802 L 193.492 160.802 194.285 161.646 L 195.077 162.490 195.077 182.418 C 195.077 200.352,195.016 202.474,194.463 203.634 L 193.849 204.923 187.626 204.920 C 180.554 204.917,175.923 205.475,174.863 206.456 C 174.474 206.816,173.913 207.110,173.617 207.110 C 173.321 207.110,173.163 207.195,173.267 207.299 C 173.370 207.403,174.587 207.293,175.971 207.056 C 177.355 206.819,181.931 206.529,186.140 206.412 L 193.793 206.199 194.310 205.105 C 194.594 204.503,194.965 203.956,195.134 203.889 C 195.304 203.823,195.442 194.397,195.442 182.943 L 195.442 162.118 194.462 161.096 L 193.483 160.073 155.720 160.088 L 117.958 160.104 115.679 161.190 M206.266 161.362 C 205.350 163.282,205.333 201.004,206.247 204.260 L 206.842 206.381 215.751 206.381 C 220.651 206.381,224.937 206.529,225.275 206.709 C 225.612 206.889,226.873 207.125,228.077 207.234 C 229.280 207.343,229.772 207.318,229.170 207.179 C 228.569 207.040,227.221 206.476,226.174 205.925 L 224.272 204.923 215.567 204.923 L 206.861 204.923 206.439 203.513 C 205.841 201.518,205.842 163.043,206.440 161.731 L 206.863 160.802 246.914 160.802 C 277.185 160.802,286.964 160.906,286.964 161.228 C 286.964 161.462,287.050 161.567,287.155 161.462 C 288.550 160.068,288.697 160.073,246.884 160.073 L 206.881 160.073 206.266 161.362 M287.355 182.932 C 287.369 195.034,287.514 203.700,287.694 203.282 C 288.149 202.222,288.149 162.360,287.694 162.078 C 287.452 161.929,287.338 168.966,287.355 182.932 M104.837 203.803 L 104.591 204.923 95.813 204.923 C 87.060 204.923,87.029 204.925,84.994 205.894 C 83.872 206.428,82.461 206.992,81.860 207.147 C 81.215 207.313,81.739 207.344,83.136 207.221 C 84.439 207.108,85.782 206.872,86.120 206.698 C 86.458 206.524,90.746 206.381,95.648 206.381 L 104.562 206.381 104.987 204.696 C 105.220 203.769,105.337 202.937,105.247 202.847 C 105.157 202.756,104.972 203.187,104.837 203.803 M299.012 203.178 C 299.004 203.522,299.274 204.384,299.612 205.092 L 300.226 206.381 309.019 206.381 C 313.893 206.381,317.967 206.531,318.159 206.717 C 318.349 206.902,319.161 207.142,319.964 207.250 C 320.766 207.358,321.094 207.355,320.693 207.242 C 320.292 207.130,319.587 206.690,319.127 206.266 C 318.056 205.278,315.173 204.975,306.546 204.945 L 300.056 204.923 299.541 203.737 C 299.256 203.082,299.019 202.832,299.012 203.178 M278.112 204.838 L 269.077 204.935 267.965 205.932 C 267.353 206.480,266.496 207.035,266.061 207.165 C 265.315 207.389,265.321 207.404,266.180 207.436 C 266.682 207.455,267.562 207.225,268.136 206.926 C 268.979 206.486,270.892 206.381,278.048 206.381 C 286.702 206.381,286.921 206.363,287.155 205.624 C 287.466 204.645,288.404 204.727,278.112 204.838 M79.326 208.183 C 78.974 208.573,78.743 209.040,78.814 209.221 C 78.885 209.402,79.324 209.084,79.791 208.513 C 80.736 207.356,80.333 207.070,79.326 208.183 M139.303 208.554 C 139.997 209.147,140.686 209.640,140.834 209.648 C 140.982 209.656,141.556 210.360,142.110 211.212 L 143.118 212.762 143.235 233.911 C 143.379 259.831,143.330 260.657,141.569 262.367 C 140.855 263.061,140.125 263.628,139.946 263.628 C 139.768 263.628,138.958 264.243,138.147 264.995 C 137.336 265.747,136.400 266.527,136.066 266.727 C 135.677 266.962,125.998 267.092,109.015 267.092 L 82.569 267.092 80.847 265.295 C 79.900 264.306,79.125 263.336,79.125 263.137 C 79.125 262.939,79.027 262.875,78.907 262.995 C 78.660 263.242,79.749 265.286,80.599 266.172 C 82.179 267.819,82.212 267.821,109.572 267.821 C 138.419 267.821,136.654 267.975,138.699 265.293 C 139.242 264.581,140.113 263.891,140.634 263.760 C 143.687 262.994,143.714 262.742,143.589 235.916 C 143.468 209.658,143.543 210.360,140.701 208.910 C 139.925 208.514,139.289 208.029,139.289 207.832 C 139.289 207.636,139.008 207.475,138.665 207.475 C 138.219 207.475,138.402 207.784,139.303 208.554 M170.359 208.221 C 167.440 209.517,167.562 208.356,167.442 236.013 C 167.320 264.007,167.204 262.886,170.365 264.193 C 171.262 264.564,172.143 265.201,172.324 265.608 C 172.505 266.016,173.309 266.718,174.111 267.170 L 175.570 267.992 200.333 267.998 C 228.660 268.005,227.570 268.111,230.797 265.033 C 231.807 264.069,232.634 263.095,232.634 262.868 C 232.634 262.642,232.158 262.967,231.577 263.590 C 230.995 264.212,230.297 264.725,230.027 264.728 C 229.756 264.732,229.151 265.140,228.681 265.635 C 227.137 267.263,226.374 267.304,199.861 267.195 L 174.729 267.092 173.560 265.869 C 172.917 265.196,171.693 264.337,170.838 263.959 C 167.662 262.554,167.730 263.145,167.730 237.180 C 167.730 211.104,167.980 208.656,170.647 208.562 C 170.948 208.552,171.604 208.308,172.106 208.022 C 173.431 207.265,172.196 207.406,170.359 208.221 M231.473 208.478 C 232.011 209.029,232.503 209.368,232.566 209.230 C 232.710 208.913,231.292 207.475,230.835 207.475 C 230.647 207.475,230.934 207.926,231.473 208.478 M262.279 208.295 C 260.992 209.708,260.709 210.632,260.777 213.194 C 260.832 215.273,260.862 215.381,260.961 213.856 C 261.182 210.446,261.774 208.969,263.225 208.202 C 264.237 207.667,264.365 207.503,263.783 207.491 C 263.367 207.482,262.690 207.844,262.279 208.295 M323.519 208.126 C 324.271 208.464,324.886 208.948,324.886 209.202 C 324.886 209.455,325.038 209.663,325.224 209.663 C 325.410 209.663,325.637 209.950,325.729 210.301 C 325.881 210.885,325.899 210.883,325.938 210.273 C 325.997 209.339,324.022 207.471,323.000 207.494 C 322.303 207.509,322.396 207.622,323.519 208.126 M232.807 235.916 C 232.807 250.055,232.852 255.839,232.908 248.769 C 232.963 241.700,232.963 230.132,232.908 223.063 C 232.852 215.994,232.807 221.778,232.807 235.916 M78.244 212.000 C 78.110 212.712,77.606 213.590,77.106 213.984 C 76.612 214.372,76.208 214.872,76.208 215.093 C 76.208 215.315,76.044 215.497,75.843 215.497 C 75.034 215.497,75.383 255.627,76.204 256.974 C 76.601 257.625,77.079 258.159,77.266 258.159 C 77.453 258.159,77.784 258.610,78.003 259.161 L 78.400 260.164 78.198 259.070 C 78.087 258.469,77.676 257.532,77.285 256.988 C 76.194 255.475,76.170 215.974,77.259 214.988 C 77.950 214.363,79.024 211.264,78.672 210.911 C 78.568 210.808,78.375 211.297,78.244 212.000 M326.152 237.375 C 326.152 250.109,326.197 255.319,326.253 248.952 C 326.309 242.584,326.309 232.165,326.253 225.798 C 326.197 219.430,326.152 224.640,326.152 237.375 M220.879 215.390 C 221.333 215.477,221.989 215.474,222.338 215.383 C 222.687 215.291,222.315 215.220,221.513 215.224 C 220.711 215.228,220.426 215.303,220.879 215.390 M86.223 235.734 C 86.223 246.964,86.269 251.611,86.326 246.061 C 86.383 240.510,86.383 231.321,86.326 225.641 C 86.270 219.962,86.223 224.503,86.223 235.734 M132.084 235.570 C 132.029 248.355,131.862 255.987,131.633 256.264 C 131.430 256.509,131.512 256.493,131.818 256.229 C 132.297 255.817,132.355 253.168,132.270 235.535 L 132.172 215.314 132.084 235.570 M178.304 235.602 C 178.304 256.999,178.279 256.675,179.945 256.677 C 180.146 256.678,180.023 256.511,179.672 256.306 C 179.076 255.959,179.034 254.587,179.034 235.716 C 179.034 222.480,178.908 215.497,178.669 215.497 C 178.430 215.497,178.304 222.442,178.304 235.602 M224.701 235.626 L 224.613 255.938 223.245 256.166 C 221.211 256.507,221.002 256.639,222.446 256.671 C 225.161 256.732,224.997 258.150,224.887 235.552 L 224.789 215.314 224.701 235.626 M268.733 235.697 L 268.733 255.898 270.576 256.340 C 271.589 256.583,272.499 256.701,272.598 256.603 C 272.697 256.504,272.196 256.314,271.485 256.180 L 270.191 255.938 270.191 235.717 C 270.191 215.740,270.183 215.497,269.462 215.497 C 268.742 215.497,268.733 215.740,268.733 235.697 M316.135 235.727 L 316.135 255.957 315.206 256.190 C 314.696 256.318,314.352 256.497,314.442 256.587 C 314.532 256.677,315.278 256.549,316.099 256.303 L 317.593 255.855 317.593 235.676 C 317.593 215.740,317.585 215.497,316.864 215.497 C 316.144 215.497,316.135 215.740,316.135 235.727 M260.777 258.994 C 260.712 261.445,261.658 264.357,262.519 264.357 C 262.703 264.357,263.397 264.860,264.061 265.474 C 266.932 268.130,265.476 268.004,293.279 268.004 C 320.875 268.004,320.618 268.025,322.197 265.615 C 322.519 265.124,323.084 264.722,323.453 264.722 C 324.292 264.722,325.980 263.073,325.980 262.254 C 325.980 261.795,325.825 261.868,325.359 262.544 C 324.559 263.704,323.828 264.258,322.720 264.542 C 322.231 264.668,321.341 265.250,320.741 265.836 C 319.191 267.351,319.890 267.318,292.196 267.200 L 266.980 267.092 265.880 265.941 C 265.275 265.308,264.398 264.670,263.931 264.523 C 261.955 263.902,261.218 262.369,260.960 258.341 C 260.861 256.814,260.832 256.920,260.777 258.994 " stroke="none" fill="#546c7c" fill-rule="evenodd"></path><path id="path7" d="M200.829 72.721 C 200.343 73.390,199.618 73.685,197.640 74.018 C 194.855 74.488,194.713 74.599,194.151 76.746 C 193.806 78.060,193.630 78.224,192.268 78.493 C 190.494 78.844,189.927 79.429,189.639 81.202 C 189.445 82.395,189.270 82.558,187.698 83.016 C 185.936 83.530,184.868 84.778,184.868 86.324 C 184.868 86.811,184.421 87.115,183.243 87.430 C 181.544 87.884,180.916 88.614,180.506 90.607 C 180.315 91.534,180.070 91.731,178.867 91.927 C 177.374 92.170,176.578 92.934,176.253 94.439 C 175.884 96.147,175.775 96.263,174.532 96.263 C 173.059 96.263,172.426 96.909,171.909 98.940 C 171.569 100.279,171.387 100.459,170.104 100.725 C 168.146 101.132,167.364 101.933,167.374 103.521 L 167.382 104.831 168.045 103.373 C 168.682 101.973,169.518 101.314,171.285 100.819 C 171.737 100.692,172.106 100.338,172.106 100.032 C 172.106 99.006,173.537 97.449,175.199 96.668 C 176.486 96.064,176.846 95.701,176.846 95.011 C 176.846 94.040,178.128 92.852,180.036 92.055 C 180.902 91.693,181.222 91.326,181.222 90.693 C 181.222 89.671,182.477 88.390,183.800 88.062 C 184.697 87.840,185.962 86.238,185.962 85.326 C 185.962 84.661,187.505 83.526,188.428 83.513 C 189.068 83.503,189.443 83.071,190.100 81.586 C 190.891 79.801,191.554 79.196,193.354 78.619 C 193.709 78.505,194.093 78.121,194.207 77.766 C 195.022 75.222,195.805 74.705,199.862 74.030 C 203.980 73.346,205.859 74.181,206.570 77.014 C 206.725 77.634,207.246 78.062,208.318 78.449 C 209.667 78.937,209.911 79.208,210.414 80.771 C 210.934 82.386,211.130 82.591,212.667 83.112 C 214.709 83.804,214.851 83.938,215.322 85.614 C 215.618 86.665,215.919 86.984,216.781 87.162 C 218.371 87.490,219.504 88.303,219.756 89.296 C 220.031 90.379,220.989 91.365,222.114 91.722 C 223.119 92.041,223.723 92.719,224.457 94.354 C 224.817 95.155,225.442 95.725,226.366 96.095 C 227.485 96.542,227.868 96.973,228.424 98.405 C 229.005 99.904,229.329 100.246,230.597 100.705 C 231.905 101.178,232.157 101.461,232.656 103.012 C 233.232 104.803,233.528 105.115,235.217 105.711 C 235.735 105.894,236.428 106.591,236.758 107.260 L 237.358 108.478 237.366 107.374 C 237.376 106.037,236.433 105.144,234.659 104.811 C 233.566 104.606,233.363 104.418,233.358 103.606 C 233.351 102.338,232.614 100.926,231.716 100.460 C 230.689 99.928,228.988 98.258,228.988 97.783 C 228.988 97.562,228.496 96.821,227.894 96.136 C 227.293 95.451,226.800 94.707,226.800 94.482 C 226.800 94.258,226.671 94.075,226.513 94.075 C 226.229 94.075,223.182 91.240,221.989 89.865 C 220.766 88.457,219.180 87.147,218.698 87.147 C 218.428 87.147,217.922 86.664,217.573 86.075 C 217.225 85.486,216.624 84.903,216.237 84.780 C 215.851 84.657,215.437 84.251,215.318 83.877 C 215.088 83.152,213.394 82.407,211.978 82.407 C 211.288 82.407,211.120 82.212,211.116 81.404 C 211.109 80.099,210.382 78.689,209.473 78.218 C 208.330 77.625,206.871 76.100,206.589 75.205 C 206.448 74.754,206.191 74.385,206.018 74.385 C 205.845 74.385,205.095 73.810,204.351 73.108 C 202.777 71.624,201.712 71.507,200.829 72.721 M206.543 90.805 C 206.007 91.638,205.881 148.713,206.413 149.355 C 206.769 149.784,213.495 149.864,249.726 149.866 C 297.489 149.870,296.010 149.817,297.765 151.572 L 298.997 152.805 298.997 177.599 C 298.997 198.426,299.082 202.596,299.526 203.658 L 300.054 204.923 306.545 204.945 C 315.283 204.975,318.055 205.273,319.148 206.300 C 319.690 206.809,320.600 207.156,321.625 207.243 C 322.516 207.318,322.794 207.309,322.242 207.222 C 321.559 207.114,321.240 206.845,321.240 206.376 C 321.240 205.998,320.691 205.270,320.020 204.759 L 318.801 203.829 309.489 203.829 L 300.176 203.829 299.956 203.008 C 299.835 202.557,299.722 191.276,299.703 177.940 C 299.679 160.164,299.553 153.303,299.231 152.233 C 298.409 149.504,301.855 149.702,251.595 149.499 L 206.563 149.316 206.452 124.339 C 206.344 100.247,206.572 89.295,207.116 92.342 C 207.458 94.260,208.394 95.173,209.993 95.150 L 211.304 95.131 209.907 94.552 C 208.789 94.089,208.348 93.604,207.699 92.121 C 207.072 90.691,206.809 90.391,206.543 90.805 M192.835 94.052 C 192.515 94.610,191.818 95.176,191.286 95.309 C 190.124 95.601,189.048 96.613,188.685 97.756 C 188.318 98.913,187.060 99.882,185.907 99.897 C 185.082 99.907,184.845 100.175,184.285 101.732 C 183.925 102.735,183.416 103.555,183.155 103.555 C 182.894 103.555,182.680 103.712,182.680 103.903 C 182.680 104.095,182.106 104.359,181.404 104.491 C 180.648 104.633,180.128 104.944,180.128 105.255 C 180.128 106.512,177.095 110.483,176.134 110.483 C 175.999 110.483,175.537 110.960,175.106 111.543 C 173.596 113.585,168.975 113.531,167.953 111.459 C 167.385 110.307,167.382 110.306,167.374 111.262 C 167.353 113.618,171.600 114.216,175.616 112.423 C 176.883 111.858,177.925 111.190,177.930 110.939 C 177.935 110.688,178.068 110.483,178.225 110.483 C 178.381 110.483,178.716 110.032,178.968 109.480 C 179.808 107.645,180.298 106.837,180.570 106.837 C 180.994 106.837,187.056 100.721,187.056 100.293 C 187.056 100.082,187.384 99.909,187.785 99.909 C 188.186 99.909,188.514 99.766,188.514 99.591 C 188.514 99.417,189.082 98.884,189.776 98.409 C 190.470 97.933,191.249 97.133,191.508 96.630 C 192.270 95.148,193.305 94.438,193.874 95.007 C 194.663 95.796,194.563 148.974,193.771 149.277 C 193.454 149.399,173.854 149.499,150.215 149.499 C 105.208 149.499,105.733 149.480,105.168 151.093 C 105.019 151.520,104.829 163.560,104.745 177.849 L 104.594 203.829 94.868 203.833 C 83.576 203.837,82.501 204.026,80.245 206.397 C 78.717 208.004,78.031 209.484,78.031 211.176 C 78.031 211.918,77.849 212.219,77.393 212.227 C 74.516 212.282,74.385 213.321,74.385 236.036 C 74.385 258.966,74.364 258.795,77.211 259.985 C 77.813 260.237,78.031 260.631,78.031 261.466 C 78.031 263.326,79.091 266.412,80.064 267.385 C 81.333 268.654,86.371 268.843,114.559 268.680 C 139.721 268.535,138.631 268.656,139.417 265.916 C 139.662 265.061,140.047 264.719,141.132 264.394 C 144.228 263.467,144.029 265.365,144.029 236.781 C 144.029 209.019,144.044 209.216,141.874 208.294 C 141.355 208.073,140.314 207.643,139.562 207.338 C 138.810 207.033,138.195 206.537,138.195 206.236 C 138.195 205.935,137.646 205.270,136.976 204.759 L 135.756 203.829 126.822 203.829 C 118.622 203.829,117.823 203.773,117.102 203.148 L 116.317 202.467 116.317 182.371 L 116.317 162.275 117.138 162.076 C 117.589 161.967,135.105 161.923,156.062 161.978 L 194.166 162.078 194.264 182.133 C 194.338 197.092,194.253 202.396,193.929 203.008 C 193.498 203.825,193.454 203.829,184.589 203.829 C 174.811 203.829,174.044 203.978,173.185 206.051 C 172.764 207.067,171.938 207.461,170.208 207.470 C 168.441 207.479,167.359 209.000,167.405 211.411 L 167.445 213.491 167.748 211.959 C 168.300 209.165,169.522 208.100,173.074 207.320 C 173.690 207.185,174.504 206.788,174.882 206.438 C 175.921 205.476,180.613 204.917,187.626 204.920 L 193.849 204.923 194.463 203.634 C 195.016 202.474,195.077 200.349,195.077 182.367 L 195.077 162.388 194.234 161.595 L 193.390 160.802 155.422 160.802 C 132.613 160.802,117.371 160.937,117.246 161.139 C 117.132 161.324,116.548 161.583,115.948 161.715 L 114.859 161.954 114.859 182.273 L 114.859 202.592 116.061 203.757 L 117.264 204.923 123.992 204.928 C 130.885 204.933,134.780 205.459,135.994 206.546 C 136.302 206.823,137.170 207.163,137.922 207.302 C 138.674 207.442,139.289 207.699,139.289 207.873 C 139.289 208.047,139.925 208.514,140.701 208.910 C 143.543 210.360,143.468 209.658,143.589 235.916 C 143.714 262.742,143.687 262.994,140.634 263.760 C 140.113 263.891,139.242 264.581,138.699 265.293 C 136.654 267.975,138.419 267.821,109.572 267.821 C 82.212 267.821,82.179 267.819,80.599 266.172 C 79.640 265.173,78.838 263.510,78.581 261.987 C 78.209 259.788,77.650 258.159,77.268 258.159 C 77.080 258.159,76.601 257.625,76.204 256.974 C 75.383 255.627,75.034 215.497,75.843 215.497 C 76.044 215.497,76.208 215.325,76.208 215.115 C 76.208 214.905,76.622 214.371,77.129 213.930 C 77.775 213.367,78.185 212.461,78.499 210.901 C 79.042 208.205,79.524 207.568,81.258 207.251 C 81.990 207.117,83.589 206.539,84.812 205.965 L 87.035 204.923 95.784 204.923 L 104.534 204.923 104.956 203.513 C 105.258 202.504,105.378 194.958,105.378 176.958 L 105.378 151.814 106.319 150.930 L 107.260 150.046 150.531 149.863 C 174.329 149.763,194.088 149.540,194.439 149.368 C 195.367 148.914,195.432 96.356,194.507 94.503 C 193.727 92.939,193.508 92.880,192.835 94.052 M211.507 95.972 C 211.460 98.180,213.506 100.159,215.502 99.835 C 216.283 99.709,216.187 99.618,214.806 99.178 C 213.408 98.733,213.095 98.431,212.365 96.827 C 211.652 95.260,211.525 95.133,211.507 95.972 M216.234 101.207 C 216.223 102.763,216.883 103.503,218.783 104.063 C 220.308 104.511,220.443 104.654,220.760 106.146 C 221.140 107.939,221.701 108.506,223.414 108.830 C 224.375 109.013,224.624 109.262,224.807 110.224 C 225.206 112.329,225.704 112.652,229.209 113.081 C 234.696 113.752,237.401 112.977,237.345 110.748 L 237.315 109.572 236.803 110.741 C 235.388 113.974,226.359 113.396,225.512 110.019 C 225.239 108.929,224.093 107.931,223.115 107.931 C 222.436 107.931,221.365 106.478,220.987 105.045 C 220.802 104.341,220.343 103.975,219.173 103.600 C 217.891 103.188,217.484 102.825,216.925 101.594 C 216.246 100.100,216.242 100.097,216.234 101.207 M206.440 161.731 C 205.842 163.043,205.841 201.518,206.439 203.513 L 206.861 204.923 215.595 204.923 L 224.328 204.923 226.385 205.985 C 227.516 206.570,229.066 207.154,229.829 207.282 C 230.592 207.410,231.577 207.876,232.017 208.316 L 232.817 209.116 232.817 236.111 L 232.817 263.106 230.888 264.946 C 227.555 268.125,228.759 268.005,200.333 267.998 L 175.570 267.992 174.111 267.170 C 173.309 266.718,172.505 266.016,172.324 265.608 C 172.143 265.201,171.263 264.565,170.368 264.194 C 169.094 263.667,168.593 263.197,168.061 262.025 L 167.382 260.529 167.374 261.872 C 167.367 263.040,167.591 263.395,169.098 264.602 C 170.050 265.365,171.334 266.505,171.951 267.137 L 173.072 268.285 179.426 268.544 C 182.920 268.687,195.378 268.747,207.110 268.677 L 228.441 268.551 229.912 267.707 C 230.972 267.100,231.635 266.335,232.283 264.972 L 233.181 263.081 233.287 236.828 C 233.391 210.962,233.264 207.475,232.219 207.475 C 232.043 207.475,231.369 206.969,230.723 206.351 C 228.208 203.948,227.541 203.829,216.627 203.829 L 206.779 203.829 206.567 202.644 C 206.450 201.992,206.402 192.598,206.459 181.768 L 206.563 162.078 246.950 162.078 C 280.433 162.078,287.305 161.995,287.151 161.593 C 287.048 161.326,286.964 161.039,286.964 160.955 C 286.964 160.871,268.942 160.802,246.914 160.802 L 206.863 160.802 206.440 161.731 M287.007 203.191 C 286.968 203.781,286.252 203.829,277.449 203.829 C 267.055 203.829,266.295 203.978,265.454 206.191 C 265.209 206.835,264.751 207.061,263.298 207.254 C 261.361 207.511,260.711 208.123,260.711 209.693 C 260.711 210.408,260.804 210.363,261.531 209.295 C 262.533 207.825,262.987 207.570,265.091 207.302 C 266.221 207.157,267.101 206.751,267.898 206.007 L 269.058 204.923 278.023 204.923 C 287.529 204.923,287.657 204.899,287.220 203.212 C 287.063 202.607,287.046 202.605,287.007 203.191 M324.728 208.314 C 326.203 209.584,326.285 211.117,326.294 237.557 C 326.302 263.790,326.204 264.722,323.414 264.722 C 323.066 264.722,322.519 265.124,322.197 265.615 C 320.618 268.025,320.875 268.004,293.279 268.004 C 265.476 268.004,266.932 268.130,264.061 265.474 C 263.397 264.860,262.704 264.357,262.520 264.357 C 262.337 264.357,261.862 263.742,261.465 262.990 L 260.743 261.623 260.727 262.735 C 260.718 263.346,260.894 264.030,261.118 264.254 C 261.342 264.477,261.713 265.038,261.943 265.499 C 262.172 265.960,263.166 266.835,264.151 267.444 L 265.942 268.551 293.378 268.551 L 320.814 268.551 321.924 267.730 C 322.534 267.279,323.122 266.910,323.230 266.910 C 323.507 266.910,324.886 265.501,324.886 265.218 C 324.886 265.090,325.137 264.801,325.443 264.577 C 326.595 263.735,326.757 259.680,326.641 234.584 C 326.517 207.720,326.524 207.813,324.550 207.533 C 323.691 207.411,323.694 207.426,324.728 208.314 M260.518 236.828 C 260.518 249.262,260.564 254.401,260.620 248.249 C 260.676 242.096,260.676 231.923,260.620 225.642 C 260.564 219.360,260.518 224.394,260.518 236.828 M86.585 215.588 C 86.489 215.839,86.453 225.150,86.505 236.281 L 86.600 256.518 108.802 256.612 C 124.897 256.680,131.140 256.592,131.500 256.294 C 131.910 255.953,131.981 252.347,131.910 235.598 L 131.823 215.314 131.636 235.734 L 131.449 256.153 109.116 256.247 L 86.782 256.341 86.782 235.922 L 86.782 215.502 109.116 215.406 L 131.449 215.309 109.104 215.220 C 91.499 215.151,86.722 215.229,86.585 215.588 M190.064 215.405 C 195.629 215.462,204.736 215.462,210.301 215.405 C 215.866 215.349,211.313 215.302,200.182 215.302 C 189.052 215.302,184.499 215.349,190.064 215.405 M283.409 215.405 C 288.974 215.462,298.081 215.462,303.646 215.405 C 309.211 215.349,304.658 215.302,293.528 215.302 C 282.397 215.302,277.844 215.349,283.409 215.405 M179.034 235.721 C 179.034 255.634,179.045 255.951,179.770 256.339 C 180.643 256.806,222.477 256.657,223.792 256.182 L 224.613 255.886 224.613 235.691 L 224.613 215.497 223.519 215.497 L 222.425 215.497 222.425 235.708 L 222.425 255.918 220.510 256.144 C 219.458 256.268,209.900 256.321,199.271 256.261 L 179.945 256.153 179.851 235.825 C 179.790 222.694,179.629 215.497,179.395 215.497 C 179.161 215.497,179.034 222.595,179.034 235.721 M270.191 235.691 L 270.191 255.884 271.811 256.292 C 274.046 256.855,313.374 256.862,314.987 256.300 L 316.135 255.899 316.135 235.698 C 316.135 215.740,316.126 215.497,315.406 215.497 C 314.685 215.497,314.676 215.740,314.676 235.691 L 314.676 255.886 313.856 256.106 C 312.765 256.398,274.615 256.400,273.154 256.108 L 272.015 255.880 272.015 235.688 L 272.015 215.497 271.103 215.497 L 270.191 215.497 270.191 235.691 " stroke="none" fill="#4c6474" fill-rule="evenodd"></path></g></svg>